<svg xmlns="http://www.w3.org/2000/svg" width="16.287" height="16.287" viewBox="0 0 16.287 16.287">
  <path id="language" d="M8.144,0a8.144,8.144,0,1,0,8.144,8.144A8.144,8.144,0,0,0,8.144,0Zm7.043,11-2.316.4A12.153,12.153,0,0,0,13.3,8.415h2.441A7.55,7.55,0,0,1,15.187,11ZM.55,8.415H2.99A12.153,12.153,0,0,0,3.417,11.4L1.1,11A7.55,7.55,0,0,1,.55,8.415ZM1.1,5.291l2.316-.4A12.153,12.153,0,0,0,2.99,7.872H.55A7.55,7.55,0,0,1,1.1,5.291Zm7.315-.932a18.674,18.674,0,0,1,2.91.266l.958.165a11.652,11.652,0,0,1,.471,3.083H8.415Zm3-.269a19.242,19.242,0,0,0-3-.274V.558c1.556.15,2.908,1.574,3.674,3.648ZM7.872,3.816a19.238,19.238,0,0,0-3,.274L4.2,4.205C4.964,2.131,6.316.706,7.872.557Zm-2.91.809a18.67,18.67,0,0,1,2.91-.266V7.872H3.533A11.652,11.652,0,0,1,4,4.79ZM3.533,8.415H7.872v3.514a18.675,18.675,0,0,1-2.91-.266L4,11.5a11.652,11.652,0,0,1-.471-3.083ZM4.87,12.2a19.307,19.307,0,0,0,3,.275v3.257c-1.556-.15-2.908-1.575-3.674-3.648Zm3.546.275a19.3,19.3,0,0,0,3-.275l.672-.116c-.766,2.074-2.118,3.5-3.674,3.648Zm2.91-.81a18.67,18.67,0,0,1-2.91.266V8.415h4.339a11.652,11.652,0,0,1-.471,3.083ZM13.3,7.872a12.153,12.153,0,0,0-.426-2.981l2.316.4a7.55,7.55,0,0,1,.551,2.581Zm1.615-3.18-2.22-.383A7.486,7.486,0,0,0,10.532.93a7.637,7.637,0,0,1,4.38,3.763ZM5.755.93A7.486,7.486,0,0,0,3.6,4.309l-2.22.383A7.637,7.637,0,0,1,5.755.93ZM1.375,11.595l2.22.383a7.486,7.486,0,0,0,2.16,3.38,7.637,7.637,0,0,1-4.38-3.763Zm9.157,3.763a7.486,7.486,0,0,0,2.16-3.38l2.22-.383a7.637,7.637,0,0,1-4.38,3.763Zm0,0" fill="#f2ae2e"/>
</svg>
