<svg xmlns="http://www.w3.org/2000/svg" width="17.356" height="19.747" viewBox="0 0 17.356 19.747">
  <g id="notification" transform="translate(-30.999)">
    <path id="Path_4290" data-name="Path 4290" d="M45.655,10.138V8.292a5.989,5.989,0,0,0-4.243-5.721V1.736a1.736,1.736,0,0,0-3.471,0v.836A5.989,5.989,0,0,0,33.7,8.292v1.846a9.084,9.084,0,0,1-2.539,6.316.579.579,0,0,0,.418.979h5.265a2.893,2.893,0,0,0,5.669,0h5.265a.579.579,0,0,0,.418-.979A9.084,9.084,0,0,1,45.655,10.138ZM39.1,1.736a.579.579,0,0,1,1.157,0v.607c-.19-.018-.383-.028-.579-.028s-.388.01-.579.028Zm.579,16.855a1.738,1.738,0,0,1-1.636-1.157h3.272A1.738,1.738,0,0,1,39.677,18.59Zm-6.853-2.314a10.229,10.229,0,0,0,2.031-6.138V8.292a4.821,4.821,0,0,1,9.642,0v1.846a10.229,10.229,0,0,0,2.031,6.138Z" fill="#f2ae2e"/>
  </g>
</svg>
