<svg xmlns="http://www.w3.org/2000/svg" width="13.586" height="18.114" viewBox="0 0 13.586 18.114">
  <g id="padlock" transform="translate(-3)">
    <path id="Path_4291" data-name="Path 4291" d="M14.887,20.321H4.7a1.7,1.7,0,0,1-1.7-1.7V10.7A1.7,1.7,0,0,1,4.7,9H14.887a1.7,1.7,0,0,1,1.7,1.7v7.925A1.7,1.7,0,0,1,14.887,20.321ZM4.7,10.132a.567.567,0,0,0-.566.566v7.925a.567.567,0,0,0,.566.566H14.887a.567.567,0,0,0,.566-.566V10.7a.567.567,0,0,0-.566-.566Z" transform="translate(0 -2.207)" fill="#f2ae2e"/>
    <path id="Path_4292" data-name="Path 4292" d="M14.491,7.925a.566.566,0,0,1-.566-.566V4.529a3.4,3.4,0,0,0-6.793,0v2.83A.566.566,0,0,1,6,7.359V4.529a4.529,4.529,0,0,1,9.057,0v2.83A.566.566,0,0,1,14.491,7.925Z" transform="translate(-0.736)" fill="#f2ae2e"/>
    <path id="Path_4293" data-name="Path 4293" d="M11.51,16.019a1.51,1.51,0,1,1,1.51-1.51A1.511,1.511,0,0,1,11.51,16.019Zm0-1.887a.377.377,0,1,0,.377.377A.378.378,0,0,0,11.51,14.132Z" transform="translate(-1.717 -3.188)" fill="#f2ae2e"/>
    <path id="Path_4294" data-name="Path 4294" d="M11.816,18.958a.566.566,0,0,1-.566-.566V16.316a.566.566,0,0,1,1.132,0v2.076A.566.566,0,0,1,11.816,18.958Z" transform="translate(-2.023 -3.863)" fill="#f2ae2e"/>
  </g>
</svg>
