<svg xmlns="http://www.w3.org/2000/svg" width="13.826" height="16.387" viewBox="0 0 13.826 16.387">
  <g id="verified" transform="translate(-40 0)">
    <path id="Path_4296" data-name="Path 4296" d="M53.432,2.654,47.159.049a.64.64,0,0,0-.491,0l-6.273,2.6A.64.64,0,0,0,40,3.245V6.411a10.72,10.72,0,0,0,6.671,9.928.64.64,0,0,0,.484,0,10.72,10.72,0,0,0,6.671-9.928V3.245A.64.64,0,0,0,53.432,2.654Zm-.886,3.757a9.442,9.442,0,0,1-5.633,8.641A9.442,9.442,0,0,1,41.28,6.411V3.672l5.633-2.339,5.633,2.339Zm-6.34,2.158,2.751-2.751a.64.64,0,1,1,.905.905l-3.2,3.2a.64.64,0,0,1-.905,0L43.964,8.137a.64.64,0,1,1,.905-.905Z" transform="translate(0 0)" fill="#f2ae2e"/>
  </g>
</svg>
