<svg xmlns="http://www.w3.org/2000/svg" width="17.433" height="19.998" viewBox="0 0 17.433 19.998">
  <g id="gift-box_3_" data-name="gift-box (3)" transform="translate(-32.828 0.001)">
    <g id="Group_283" data-name="Group 283" transform="translate(32.828 -0.001)">
      <path id="Path_146" data-name="Path 146" d="M49.106,6.944l-1.96-.713a2.373,2.373,0,1,0-3.082-3.609l-1.353,1.2-.268-1.794a2.374,2.374,0,1,0-4.681.791l-1.848-.673a1.757,1.757,0,0,0-2.249,1.049l-.8,2.2a.585.585,0,0,0,.35.75l9.143,3.328H33.528a.585.585,0,0,0-.585.585v8.19A1.757,1.757,0,0,0,34.7,20H46.4a1.757,1.757,0,0,0,1.755-1.755V11.577l.453.165a.585.585,0,0,0,.75-.35l.8-2.2A1.757,1.757,0,0,0,49.106,6.944ZM38.792,18.827H34.7a.586.586,0,0,1-.585-.585v-7.6h4.68Zm2.34,0h-1.17v-8.19h1.17ZM44.838,3.5a1.2,1.2,0,1,1,.386,2.033l-1.9-.692ZM39.384,1.4a1.2,1.2,0,0,1,1.9.793l.3,2.009-1.9-.692A1.209,1.209,0,0,1,39.384,1.4Zm.276,5.837-5.5-2,.6-1.649a.586.586,0,0,1,.75-.35l4.947,1.8Zm2.2.8-1.1-.4.8-2.2,1.1.4Zm5.124,10.2a.586.586,0,0,1-.585.585H42.3v-8.19H45.57l1.412.514v7.091Zm2.073-9.449-.6,1.649-5.5-2,.8-2.2,4.947,1.8A.586.586,0,0,1,49.056,8.793Z" transform="translate(-32.828 0.001)" fill="#f2ae2e"/>
    </g>
  </g>
</svg>
