<svg xmlns="http://www.w3.org/2000/svg" width="16.682" height="19.995" viewBox="0 0 16.682 19.995">
  <g id="user" transform="translate(0 0)">
    <path id="Path_142" data-name="Path 142" d="M91.848,9.632a4.66,4.66,0,0,0,3.405-1.411,4.66,4.66,0,0,0,1.411-3.405,4.661,4.661,0,0,0-1.411-3.405,4.815,4.815,0,0,0-6.81,0,4.66,4.66,0,0,0-1.411,3.4,4.66,4.66,0,0,0,1.411,3.405A4.662,4.662,0,0,0,91.848,9.632ZM89.271,2.239a3.643,3.643,0,0,1,5.153,0,3.482,3.482,0,0,1,1.068,2.576,3.482,3.482,0,0,1-1.068,2.577,3.643,3.643,0,0,1-5.153,0A3.481,3.481,0,0,1,88.2,4.816,3.481,3.481,0,0,1,89.271,2.239Zm0,0" transform="translate(-83.633)" fill="#393741"/>
    <path id="Path_143" data-name="Path 143" d="M16.641,253.033a11.9,11.9,0,0,0-.162-1.263,9.954,9.954,0,0,0-.311-1.27,6.274,6.274,0,0,0-.522-1.185,4.466,4.466,0,0,0-.787-1.026,3.472,3.472,0,0,0-1.131-.711,3.909,3.909,0,0,0-1.444-.261,1.466,1.466,0,0,0-.783.332c-.235.153-.509.33-.815.526a4.673,4.673,0,0,1-1.055.465,4.1,4.1,0,0,1-2.581,0A4.659,4.659,0,0,1,6,248.174c-.3-.194-.578-.371-.816-.526a1.464,1.464,0,0,0-.782-.332,3.9,3.9,0,0,0-1.444.262,3.469,3.469,0,0,0-1.131.711,4.467,4.467,0,0,0-.787,1.026A6.286,6.286,0,0,0,.512,250.5,9.978,9.978,0,0,0,.2,251.77a11.815,11.815,0,0,0-.162,1.264c-.027.382-.04.779-.04,1.181a3.32,3.32,0,0,0,.986,2.512,3.549,3.549,0,0,0,2.541.927h9.628a3.55,3.55,0,0,0,2.541-.927,3.319,3.319,0,0,0,.986-2.512c0-.4-.014-.8-.04-1.181Zm-1.754,2.844a2.39,2.39,0,0,1-1.733.6H3.527a2.39,2.39,0,0,1-1.733-.6,2.168,2.168,0,0,1-.622-1.663c0-.375.012-.745.037-1.1a10.656,10.656,0,0,1,.146-1.138,8.8,8.8,0,0,1,.273-1.12,5.118,5.118,0,0,1,.425-.963,3.311,3.311,0,0,1,.579-.758,2.3,2.3,0,0,1,.753-.468,2.7,2.7,0,0,1,.923-.178c.041.022.114.063.232.141.241.157.519.336.825.532a5.806,5.806,0,0,0,1.324.592,5.268,5.268,0,0,0,3.3,0,5.812,5.812,0,0,0,1.325-.592c.314-.2.584-.375.825-.532.118-.077.191-.119.232-.141a2.7,2.7,0,0,1,.923.178,2.307,2.307,0,0,1,.752.468,3.3,3.3,0,0,1,.579.758,5.1,5.1,0,0,1,.425.963,8.779,8.779,0,0,1,.273,1.12,10.747,10.747,0,0,1,.146,1.138h0c.025.354.037.724.038,1.1a2.168,2.168,0,0,1-.622,1.663Zm0,0" transform="translate(0 -237.658)" fill="#393741"/>
  </g>
</svg>
