<svg xmlns="http://www.w3.org/2000/svg" width="17.343" height="19.97" viewBox="0 0 17.343 19.97">
  <g id="tracking-app_1_" data-name="tracking-app (1)" transform="translate(-128 -16)">
    <path id="Path_428" data-name="Path 428" d="M145.343,117.664V104.526a.526.526,0,0,0-.526-.526h-3.153v1.051h2.628v2.1h-4.2V108.2h4.2v8.934H129.051V108.2h3.679v-1.051h-3.679v-2.1h2.1V104h-2.628a.526.526,0,0,0-.526.526v13.138a.526.526,0,0,0,.526.526h16.292a.526.526,0,0,0,.526-.526Z" transform="translate(0 -82.219)" fill="#393741"/>
    <path id="Path_429" data-name="Path 429" d="M188.73,16A4.735,4.735,0,0,0,184,20.73c0,1.07.738,2.7,2.193,4.845,1.054,1.553,2.09,2.8,2.134,2.85a.525.525,0,0,0,.807,0c.044-.052,1.08-1.3,2.134-2.85,1.455-2.145,2.193-3.774,2.193-4.845A4.735,4.735,0,0,0,188.73,16Zm0,11.254c-1.308-1.647-3.679-4.957-3.679-6.524a3.679,3.679,0,0,1,7.358,0C192.409,22.3,190.038,25.607,188.73,27.254Z" transform="translate(-52.321)" fill="#393741"/>
    <path id="Path_430" data-name="Path 430" d="M226.1,56a2.1,2.1,0,1,0,2.1,2.1,2.1,2.1,0,0,0-2.1-2.1Zm0,3.153a1.051,1.051,0,1,1,1.051-1.051A1.051,1.051,0,0,1,226.1,59.153Z" transform="translate(-89.694 -37.372)" fill="#393741"/>
    <path id="Path_431" data-name="Path 431" d="M272,200.526v4.73a.526.526,0,0,0,.526.526h4.73a.526.526,0,0,0,.526-.526v-4.73a.526.526,0,0,0-.526-.526h-4.73a.526.526,0,0,0-.526.526Zm1.051.526h3.679v3.679h-3.679Z" transform="translate(-134.54 -171.913)" fill="#393741"/>
    <path id="Path_432" data-name="Path 432" d="M296,248h2.628v1.051H296Z" transform="translate(-156.964 -216.759)" fill="#393741"/>
    <path id="Path_433" data-name="Path 433" d="M312,224h1.577v1.051H312Z" transform="translate(-171.913 -194.336)" fill="#393741"/>
  </g>
</svg>
