<svg xmlns="http://www.w3.org/2000/svg" xmlns:xlink="http://www.w3.org/1999/xlink" width="36.835" height="41.103" viewBox="0 0 36.835 41.103">
  <defs>
    <filter id="Path_349" x="9.37" y="0" width="22.676" height="23.337" filterUnits="userSpaceOnUse">
      <feOffset dy="3" input="SourceAlpha"/>
      <feGaussianBlur stdDeviation="3" result="blur"/>
      <feFlood flood-opacity="0.161"/>
      <feComposite operator="in" in2="blur"/>
      <feComposite in="SourceGraphic"/>
    </filter>
    <filter id="Path_350" x="0" y="5.571" width="36.835" height="35.532" filterUnits="userSpaceOnUse">
      <feOffset dy="3" input="SourceAlpha"/>
      <feGaussianBlur stdDeviation="3" result="blur-2"/>
      <feFlood flood-opacity="0.161"/>
      <feComposite operator="in" in2="blur-2"/>
      <feComposite in="SourceGraphic"/>
    </filter>
  </defs>
  <g id="apple-logo" transform="translate(9 6)">
    <g id="Group_521" data-name="Group 521" transform="translate(0 0)">
      <g transform="matrix(1, 0, 0, 1, -9, -6)" filter="url(#Path_349)">
        <path id="Path_349-2" data-name="Path 349" d="M15.833,0H16a4.947,4.947,0,0,1-1.246,3.728,3.862,3.862,0,0,1-3.4,1.6A4.8,4.8,0,0,1,12.62,1.711,5.477,5.477,0,0,1,15.833,0Z" transform="translate(7.03 6)" fill="#fff"/>
      </g>
      <g transform="matrix(1, 0, 0, 1, -9, -6)" filter="url(#Path_350)">
        <path id="Path_350-2" data-name="Path 350" d="M20.939,16.879v.046a13.442,13.442,0,0,1-1.923,3.708C18.282,21.642,17.383,23,15.778,23c-1.387,0-2.308-.892-3.729-.916-1.5-.024-2.33.746-3.7.939H7.875a4.186,4.186,0,0,1-2.418-1.666,14.594,14.594,0,0,1-3.354-8.4V11.928A6.771,6.771,0,0,1,5.06,6.371a4.993,4.993,0,0,1,3.352-.776,8.432,8.432,0,0,1,1.642.471,4.535,4.535,0,0,0,1.641.492,3.94,3.94,0,0,0,1.151-.352,7.085,7.085,0,0,1,3.7-.657A5.14,5.14,0,0,1,20.329,7.8a4.847,4.847,0,0,0-2.462,4.809A4.964,4.964,0,0,0,20.939,16.879Z" transform="translate(6.9 6.08)" fill="#fff"/>
      </g>
    </g>
  </g>
</svg>
