<svg xmlns="http://www.w3.org/2000/svg" xmlns:xlink="http://www.w3.org/1999/xlink" width="375" height="812" viewBox="0 0 375 812">
  <defs>
    <radialGradient id="radial-gradient" cx="0.5" cy="0.5" r="0.5" gradientTransform="translate(0 -0.106) scale(1 1.213)" gradientUnits="objectBoundingBox">
      <stop offset="0" stop-color="#fff"/>
      <stop offset="1" stop-color="#e9e9e9"/>
    </radialGradient>
  </defs>
  <g id="back" transform="translate(0 0)">
    <path id="Path_20" data-name="Path 20" d="M0,138.216H375v812H0Z" transform="translate(0 -138.216)" fill="url(#radial-gradient)"/>
    <g id="Group_2048" data-name="Group 2048">
      <g id="Group_420" data-name="Group 420" transform="translate(-25.354 -21.815)" opacity="0.26">
        <path id="Path_190" data-name="Path 190" d="M49.076,408.544a4.942,4.942,0,0,0-.048-.566c-.571-2.89,1.5-5.107,4.565-4.863a7.271,7.271,0,0,1,4.323,2.042c.315.281.624.569.942.859,3-4.792,2.255-13.476-3.1-19.481l-1.017.767a6.674,6.674,0,0,1-8.43.179,15.9,15.9,0,0,1-2.291-2.124,4.373,4.373,0,0,1-.641-4.95,4.6,4.6,0,0,1,4.138-2.978,12.178,12.178,0,0,1,5.639.808c.336.134.673.261,1.082.42a8.273,8.273,0,0,0,.062-6.278,18.3,18.3,0,0,0-9.538-10.035,4.432,4.432,0,0,0-4.274-.059c-.485.271-1.166.484-1.512-.188s.152-1.144.662-1.5A7.614,7.614,0,0,1,44.619,359a16.06,16.06,0,0,1,4.79.971,17.793,17.793,0,0,1,10.671,11.883,13.548,13.548,0,0,1-.787,9.25,1.2,1.2,0,0,0,.28,1.534c5.236,5.53,7.579,12.07,6.417,19.761a15.971,15.971,0,0,1-3.423,8.111,1.071,1.071,0,0,0-.078.942c2.308,5.122,2.706,10.653,3.051,16.19.046.744.14,1.838-.942,1.916s-.8-1.046-.923-1.719c-.734-4.089-1.442-8.183-2.172-12.272a3.71,3.71,0,0,0-.323-.915c-.3-.642-.478-1.523-1.012-1.822-.4-.227-1.282.285-1.946.482a7.791,7.791,0,0,1-8.06-2.856,4.684,4.684,0,0,0-.429-.506Q49.4,409.248,49.076,408.544ZM51.933,382.4c-1.6-.629-3.03-1.273-4.523-1.75a1.973,1.973,0,0,0-2.388,1.042,1.8,1.8,0,0,0,.984,2.274C47.733,384.956,50.137,384.421,51.933,382.4Zm5.081,26.127A12.513,12.513,0,0,0,54.809,407a7.649,7.649,0,0,0-2.684-.5c-.308-.009-.872.548-.954.91a2.27,2.27,0,0,0,1.53,2.426A3.745,3.745,0,0,0,57.014,408.522Z" transform="translate(-1.946 370.932)" fill="#ffbf4a"/>
        <path id="Path_191" data-name="Path 191" d="M438.039,78.667c-3.411-1.972-4.174-5.282-4.516-8.771a17.119,17.119,0,0,1,3.437-12.12A26.35,26.35,0,0,1,453.5,47.322a10.8,10.8,0,0,1,3.071,0,1.464,1.464,0,0,1,1.381,1.292,1.538,1.538,0,0,1-.914,1.667c-.885.46-1.806.857-2.731,1.235a35.152,35.152,0,0,0-10.46,6.527c-2.767,2.516-4.707,5.594-4.871,9.379a30.059,30.059,0,0,0,.875,6.276,4.788,4.788,0,0,0,.767,1.315c.663-.739,1.213-1.36,1.773-1.973a14.506,14.506,0,0,1,8.416-4.793,7.371,7.371,0,0,1,2.307-.038,2.567,2.567,0,0,1,2.219,3.469,9.455,9.455,0,0,1-3.391,4.831,16.7,16.7,0,0,1-7.54,3.062,1.762,1.762,0,0,0-1.037.7,19.438,19.438,0,0,0-2.474,15.248c.846,3.753,3.548,5.494,7.329,4.652,1.717-.383,3.37-1.056,5.053-1.6a1.477,1.477,0,0,1,.94-.052c-.223.275-.391.651-.679.809-3.392,1.875-6.915,3.382-10.907,2.991a7.026,7.026,0,0,1-6.209-4.982,20.812,20.812,0,0,1-.056-14.956C436.829,81.154,437.441,79.978,438.039,78.667Zm7.709-2.094a9.056,9.056,0,0,0,6.863-3.046,5.857,5.857,0,0,0,1.044-1.923c.274-.815-.021-1.086-.855-.955a3.865,3.865,0,0,0-.833.235C449.252,71.976,447.428,74.04,445.748,76.573Z" transform="translate(-74.752 -3.659)" fill="#ffbf4a"/>
        <path id="Path_192" data-name="Path 192" d="M434.05,390.006c.87-.487,1.66-.959,2.477-1.381a18.743,18.743,0,0,1,12.134-1.977,8.714,8.714,0,0,1,4.376,1.881c2.112,1.841,2.08,4.186-.234,5.727a13.828,13.828,0,0,1-3.978,1.82,20.3,20.3,0,0,1-9.847.349,4.3,4.3,0,0,1-1.363-.431,1.724,1.724,0,0,0-2.485.475c-2.69,2.885-5.25,5.869-5.487,10.044-.241,4.238,1.214,6.445,4.817,7.707,1.161.407,2.32.827,3.455,1.3.3.124.493.481.735.731-.3.2-.579.543-.892.573a4.423,4.423,0,0,1-1.719-.153c-1.921-.614-3.855-1.21-5.716-1.981-3.226-1.335-5.68-5.578-5.626-9.453a15.92,15.92,0,0,1,3.633-9.622c1.037-1.349,2.221-2.585,3.381-3.921,0,.027.016-.057-.018-.105-3.211-4.514-2.457-9.123-.231-13.7a20.308,20.308,0,0,1,9.939-9.433c4.8-2.3,9.869-3.538,15.23-2.729a12.777,12.777,0,0,1,3.686,1.4,1.673,1.673,0,0,1,.93,1.991c-.275.93-1.106.99-1.924,1.015a39.867,39.867,0,0,0-12.769,2.323c-5.7,2.118-10.091,5.7-12.42,11.482A7.357,7.357,0,0,0,434.05,390.006Zm3.978,4.283a2.8,2.8,0,0,0,.441.3,15.4,15.4,0,0,0,12.131-.629,4.887,4.887,0,0,0,1.448-1.111c.468-.494.389-1.067-.278-1.307a6.459,6.459,0,0,0-1.987-.4,20.708,20.708,0,0,0-10.832,2.569C438.668,393.878,438.4,394.06,438.028,394.289Z" transform="translate(-73.493 369.996)" fill="#ffbf4a"/>
        <path id="Path_193" data-name="Path 193" d="M50.106,70.654c1.492-.793,2.752-1.584,4.107-2.144a21.4,21.4,0,0,1,3.993-1.179,4.68,4.68,0,0,1,4.08,1.033,2.209,2.209,0,0,1,.628,3.063c-2.552,3.557-5.612,6.391-10.369,6.405a5.9,5.9,0,0,1-1.732-.235.87.87,0,0,0-1.168.415,14.844,14.844,0,0,0-2.838,7.921A5.514,5.514,0,0,0,50.3,91.655a17.587,17.587,0,0,1,2.047.947c.348.211.816.691.772.981-.1.645-.766.574-1.238.447-2.618-.71-5-1.848-6.509-4.229a12.094,12.094,0,0,1-1.126-11.218A35.853,35.853,0,0,1,46.3,74.76c.135-.257.279-.67.167-.871a10.526,10.526,0,0,1-.769-7.727c1.447-6.491,5.428-10.791,11.5-13.27a7.65,7.65,0,0,1,1.933-.5,1.073,1.073,0,0,1,.856.431c.09.141-.146.664-.367.8-2.914,1.813-4.748,4.6-6.64,7.327a16.579,16.579,0,0,0-2.847,7.084A18.49,18.49,0,0,0,50.106,70.654Zm3.383,3.174c2.536.81,6.562-.847,7.742-3.127.25-.484.011-.756-.4-.746a4.067,4.067,0,0,0-1.842.318c-1.783,1.017-3.5,2.152-5.235,3.249A1.532,1.532,0,0,0,53.488,73.828Z" transform="translate(-2.595 -4.404)" fill="#ffbf4a"/>
        <path id="Path_194" data-name="Path 194" d="M386.075,216.659c1.325-1.049,2.422-2.053,3.653-2.849a21.4,21.4,0,0,1,3.715-1.88,4.683,4.683,0,0,1,4.2.282,2.208,2.208,0,0,1,1.169,2.9c-1.869,3.959-4.368,7.3-9.045,8.168a5.919,5.919,0,0,1-1.745.08.871.871,0,0,0-1.075.619,14.841,14.841,0,0,0-1.364,8.3,5.515,5.515,0,0,0,4.465,5,17.636,17.636,0,0,1,2.184.562c.379.144.926.532.936.825.02.652-.65.7-1.137.663-2.7-.227-5.254-.917-7.164-2.988a12.092,12.092,0,0,1-3.128-10.831,35.513,35.513,0,0,1,1.328-4.128c.087-.277.154-.71.008-.888a10.525,10.525,0,0,1-2.149-7.462c.254-6.646,3.4-11.593,8.918-15.124a7.687,7.687,0,0,1,1.811-.845,1.075,1.075,0,0,1,.919.271c.114.122-.023.68-.217.855-2.54,2.308-3.841,5.382-5.212,8.4a16.573,16.573,0,0,0-1.524,7.481A18.638,18.638,0,0,0,386.075,216.659Zm3.9,2.513c2.641.339,6.3-2.016,7.052-4.471.159-.521-.125-.746-.523-.663a4.062,4.062,0,0,0-1.755.645c-1.571,1.322-3.053,2.748-4.564,4.139A1.562,1.562,0,0,0,389.974,219.172Z" transform="translate(-64.251 154.425)" fill="#ffbf4a"/>
        <g id="Group_353" data-name="Group 353" transform="translate(307.371 228.9)">
          <g id="Group_352" data-name="Group 352">
            <path id="Path_195" data-name="Path 195" d="M376.283,146.82c1.266-1.257,1.323-1.814.313-3.285a21.163,21.163,0,0,1-1.747-2.784c1.576.5,3.174.936,4.712,1.524,1.486.575,2.639.5,3.68-.882a47.4,47.4,0,0,1,3.234-3.509c-.187,2.048-.3,3.858-.533,5.649a1.718,1.718,0,0,0,1.068,2.134c1.152.49,2.259,1.114,3.627,1.806-.884.208-1.534.355-2.181.514-.564.142-1.13.272-1.672.459-1.542.524-1.875,1-1.856,2.641a26.381,26.381,0,0,1-.106,3.688c-.22-.258-.452-.512-.656-.779-1.144-1.487-2.261-3-3.425-4.469-1.077-1.371-1.755-1.57-3.374-.974-1.435.533-2.845,1.122-4.265,1.7-.027-.068-.051-.125-.077-.194C374.11,148.978,375.2,147.9,376.283,146.82Z" transform="translate(-370.223 -135.714)" fill="#c7953a"/>
            <path id="Path_196" data-name="Path 196" d="M385.47,143.169c.234-1.792.347-3.6.533-5.649a47.413,47.413,0,0,0-3.234,3.509c-1.042,1.384-2.195,1.457-3.681.882-1.538-.589-3.136-1.024-4.712-1.524a21.156,21.156,0,0,0,1.747,2.784c1.01,1.471.953,2.028-.313,3.285-1.079,1.084-2.172,2.158-3.259,3.236.026.069.05.126.077.194,1.42-.573,2.831-1.162,4.265-1.7,1.619-.6,2.3-.4,3.374.974,1.164,1.471,2.282,2.982,3.425,4.469.2.267.436.521.656.779a26.358,26.358,0,0,0,.106-3.688c-.02-1.64.314-2.118,1.856-2.641.543-.187,1.108-.317,1.672-.459.647-.159,1.3-.306,2.181-.514-1.368-.692-2.475-1.316-3.627-1.806A1.718,1.718,0,0,1,385.47,143.169Zm1.533-.12a.962.962,0,0,0,.656,1.167,36.716,36.716,0,0,1,3.479,1.75,2.172,2.172,0,0,1,.96,1.376c.043.294-.625.859-1.07,1.007-1.331.437-2.7.758-4.068,1.067a1.173,1.173,0,0,0-1.039,1.366,40.144,40.144,0,0,1-.032,4.4,2.267,2.267,0,0,1-.89,1.638c-.7.387-1.093-.441-1.47-.944-1.414-1.839-2.828-3.677-4.212-5.547a1.535,1.535,0,0,0-2.144-.68c-1.741.782-3.557,1.412-5.347,2.081a2.855,2.855,0,0,1-1.1.2c-.926-.024-1.3-.8-.666-1.778,1.418-1.445,2.962-3.094,4.585-4.649.6-.577.653-.965.157-1.628a34.722,34.722,0,0,1-2.412-3.548,4.5,4.5,0,0,1-.222-1.691,5.487,5.487,0,0,1,1.614-.027c2.063.616,4.1,1.306,6.135,2.008a1.3,1.3,0,0,0,1.6-.444c1.278-1.465,2.609-2.885,4.009-4.239a4.553,4.553,0,0,1,1.607-.593,5.283,5.283,0,0,1,.413,1.571C387.441,138.964,387.247,141.008,387,143.049Z" transform="translate(-369.751 -135.349)" fill="#c7953a"/>
          </g>
        </g>
        <g id="Group_355" data-name="Group 355" transform="translate(106.024 335.789)">
          <g id="Group_354" data-name="Group 354" transform="translate(0 0)">
            <path id="Path_197" data-name="Path 197" d="M150.723,204.629a2.205,2.205,0,0,1-.823,1.453,23.046,23.046,0,0,1-2.874,1.554c-.738.375-1.489.714-2.252,1.049a2.246,2.246,0,0,0-1.492,2.774,48.694,48.694,0,0,1,.595,6.233,5.756,5.756,0,0,1-.735,2.034,7.141,7.141,0,0,1-1.887-.835c-1.813-1.625-3.577-3.317-5.3-5.033a1.775,1.775,0,0,0-2.53-.292c-1.88,1.182-3.826,2.27-5.755,3.373a7.082,7.082,0,0,1-1.771.816c-1.128.272-1.878-.543-1.591-1.808.786-1.484,1.686-3.076,2.5-4.711,2.481-5.028,2.493-3.457-1.1-7.371a9.64,9.64,0,0,1-1.493-1.8,2.078,2.078,0,0,1-.182-1.656c.154-.322.977-.487,1.47-.438q2.936.3,5.829.788a2.833,2.833,0,0,0,3.435-1.556,50.312,50.312,0,0,1,3.608-5.58c.355-.51,1.132-.72,1.728-1.061a6.6,6.6,0,0,1,.912,1.693c.443,2.4.8,4.813,1.146,7.225a1.4,1.4,0,0,0,1.4,1.382c2.032.265,4.055.573,6.059.954C150.044,203.9,150.754,204.4,150.723,204.629Zm-7.155,2.563c1.144-.582,2.306-1.138,3.724-1.835-1.575-.258-2.844-.479-4.122-.667-2.017-.283-2.393-.585-2.795-2.64s-.692-4.105-1.077-6.424c-1.113,1.732-2.216,3.231-3.09,4.851-1.116,2.079-2.8,2.523-4.944,2.165-1.4-.229-2.837-.366-4.6-.589,1.141,1.243,2.023,2.256,2.975,3.208a2.685,2.685,0,0,1,.49,3.442c-1.029,2.043-2.01,4.12-3.084,6.354,2.1-1.2,4.049-2.262,5.942-3.408a2.768,2.768,0,0,1,3.683.339c.917.865,1.849,1.712,2.766,2.577.772.719,1.541,1.448,2.568,2.418-.223-2.147-.309-3.925-.617-5.666A3.517,3.517,0,0,1,143.568,207.191Z" transform="translate(-123.922 -192.565)" fill="#c7953a"/>
            <path id="Path_198" data-name="Path 198" d="M147.754,205.871c-1.418.7-2.58,1.253-3.724,1.835a3.517,3.517,0,0,0-2.18,4.125c.308,1.741.394,3.52.617,5.666-1.027-.97-1.8-1.7-2.568-2.418-.917-.865-1.849-1.712-2.766-2.577a2.768,2.768,0,0,0-3.683-.339c-1.893,1.145-3.846,2.209-5.942,3.408,1.074-2.234,2.055-4.311,3.084-6.354a2.685,2.685,0,0,0-.49-3.442c-.953-.952-1.834-1.965-2.975-3.208,1.762.223,3.2.359,4.6.589,2.144.359,3.828-.086,4.944-2.165.874-1.619,1.977-3.119,3.09-4.851.384,2.319.683,4.383,1.077,6.424s.778,2.356,2.795,2.64C144.91,205.393,146.18,205.614,147.754,205.871Z" transform="translate(-124.384 -193.08)" fill="#c7953a"/>
          </g>
        </g>
        <g id="Group_357" data-name="Group 357" transform="translate(288.077 543.496)">
          <g id="Group_356" data-name="Group 356">
            <path id="Path_199" data-name="Path 199" d="M363.784,311.362c.013,1.031-.012,2.061.074,3.08a2.091,2.091,0,0,0,1.816,2.159c1.877.356,3.729.8,6,1.288-.686.381-1.091.626-1.521.847-6.147,3.128-5.287,3.03-4.993,8.772.049.97.1,1.939.159,3.227-1.755-2.024-3.288-3.828-4.87-5.582-1.976-2.183-2-2.147-4.54-.76-1.876,1.031-3.778,2.011-5.667,3.005a2.714,2.714,0,0,1-.16-.233c1.239-2.159,2.552-4.281,3.73-6.478,1.1-2.073.92-2.625-.724-4.22-.908-.883-1.73-1.853-2.675-2.871,1.73.221,3.448.368,5.116.7,2.319.454,4.11.061,5.3-2.233a25.567,25.567,0,0,1,2.5-3.411c.147.025.294.05.442.086C363.772,309.608,363.772,310.478,363.784,311.362Z" transform="translate(-346.943 -305.157)" fill="#c7953a"/>
            <path id="Path_200" data-name="Path 200" d="M349.147,310.7c2.38.258,4.736.7,7.128.908a2.487,2.487,0,0,0,1.779-.81c1.5-1.743,2.822-3.632,4.331-5.362a2.422,2.422,0,0,1,1.951-.834c.478.147.9,1.19.944,1.864.135,2.049.11,4.11.086,6.171-.013.944.282,1.386,1.288,1.558a61.563,61.563,0,0,1,6.134,1.4c.65.2,1.631.9,1.607,1.313a2.77,2.77,0,0,1-1.3,1.815c-1.705,1.055-3.521,1.914-5.3,2.846a2.137,2.137,0,0,0-1.251,2.38c.221,2.331.318,4.686.466,7.03a3.365,3.365,0,0,1,0,1.312c-.233.639-.552,1.534-1.043,1.706-.442.147-1.337-.393-1.742-.871-2.233-2.65-4.38-5.386-6.515-8.048-2.5,1.251-4.76,2.405-7.055,3.521a7.614,7.614,0,0,1-2.184.822,2.3,2.3,0,0,1-1.828-.417,2.148,2.148,0,0,1-.037-1.865,31.778,31.778,0,0,1,1.828-3.005c1.019-1.668,1.987-3.362,2.993-5.042a1.113,1.113,0,0,0-.294-1.631,36.35,36.35,0,0,1-3.656-3.607,3.45,3.45,0,0,1-1.019-2.491C346.816,310.074,348.178,310.6,349.147,310.7Zm6.232,13.1c2.54-1.387,2.564-1.423,4.54.76,1.583,1.755,3.116,3.558,4.87,5.582-.062-1.288-.11-2.257-.159-3.227-.294-5.742-1.154-5.643,4.993-8.772.43-.221.835-.466,1.521-.847-2.269-.49-4.121-.932-6-1.288a2.091,2.091,0,0,1-1.816-2.159c-.086-1.019-.061-2.049-.074-3.08-.012-.883-.012-1.754-.012-2.625-.147-.037-.294-.062-.442-.086a25.566,25.566,0,0,0-2.5,3.411c-1.19,2.294-2.981,2.687-5.3,2.233-1.668-.331-3.386-.478-5.116-.7.945,1.018,1.767,1.987,2.675,2.871,1.644,1.595,1.828,2.147.724,4.22-1.178,2.2-2.491,4.318-3.73,6.478a2.686,2.686,0,0,0,.16.233C351.6,325.814,353.5,324.833,355.379,323.8Z" transform="translate(-346.415 -304.569)" fill="#c7953a"/>
          </g>
        </g>
        <g id="Group_359" data-name="Group 359" transform="translate(315.153 804.127)">
          <g id="Group_358" data-name="Group 358">
            <path id="Path_201" data-name="Path 201" d="M396.923,453.135c.439.132,1.1.6,1.085.887a1.872,1.872,0,0,1-.878,1.227c-1.152.712-2.379,1.293-3.58,1.922a1.444,1.444,0,0,0-.846,1.608c.149,1.574.216,3.165.315,4.749a2.286,2.286,0,0,1,0,.887c-.157.431-.373,1.036-.7,1.152-.3.1-.9-.265-1.177-.589-1.508-1.79-2.959-3.638-4.4-5.437-1.69.846-3.215,1.625-4.765,2.379a5.14,5.14,0,0,1-1.476.555,1.554,1.554,0,0,1-1.234-.282,1.447,1.447,0,0,1-.025-1.26,21.315,21.315,0,0,1,1.234-2.03c.688-1.127,1.343-2.271,2.023-3.407a.753.753,0,0,0-.2-1.1,24.312,24.312,0,0,1-2.47-2.436c-.389-.456-.821-1.21-.688-1.683.24-.87,1.161-.514,1.815-.448,1.607.174,3.2.472,4.816.614a1.681,1.681,0,0,0,1.2-.547c1.011-1.177,1.906-2.454,2.926-3.622a1.634,1.634,0,0,1,1.317-.563c.324.1.605.8.639,1.259.091,1.384.074,2.777.058,4.169-.009.639.19.936.87,1.053A41.329,41.329,0,0,1,396.923,453.135Zm-2.139,1.724c.29-.15.564-.315,1.028-.573-1.533-.331-2.784-.63-4.053-.87a1.413,1.413,0,0,1-1.227-1.458c-.058-.688-.041-1.384-.05-2.081-.009-.6-.009-1.185-.009-1.773-.1-.025-.2-.041-.3-.058a17.274,17.274,0,0,0-1.69,2.3c-.8,1.55-2.014,1.815-3.58,1.508-1.127-.223-2.288-.323-3.456-.473.638.688,1.193,1.343,1.807,1.94,1.11,1.078,1.234,1.451.489,2.851-.8,1.483-1.683,2.917-2.52,4.376a1.9,1.9,0,0,0,.108.158c1.276-.672,2.561-1.334,3.83-2.031,1.715-.936,1.732-.961,3.066.514,1.069,1.185,2.106,2.4,3.29,3.77-.041-.87-.074-1.524-.107-2.179C391.212,456.906,390.632,456.972,394.784,454.859Z" transform="translate(-379.106 -445.686)" fill="#ffbf4a"/>
            <path id="Path_202" data-name="Path 202" d="M396.169,454.684c-.464.258-.738.423-1.028.573-4.152,2.113-3.572,2.047-3.372,5.926.033.655.066,1.31.107,2.179-1.185-1.367-2.221-2.586-3.29-3.77-1.334-1.476-1.351-1.451-3.066-.514-1.269.7-2.553,1.359-3.83,2.031-.041-.05-.074-.108-.108-.158.837-1.459,1.724-2.893,2.52-4.376.746-1.4.621-1.773-.489-2.851-.614-.6-1.169-1.251-1.807-1.94,1.168.15,2.329.249,3.456.472,1.566.307,2.776.042,3.58-1.508a17.272,17.272,0,0,1,1.69-2.3c.1.017.2.033.3.058,0,.589,0,1.177.009,1.774.009.7-.009,1.393.05,2.081a1.413,1.413,0,0,0,1.227,1.458C393.385,454.054,394.636,454.352,396.169,454.684Z" transform="translate(-379.463 -446.083)" fill="#ffbf4a"/>
          </g>
        </g>
        <g id="Group_361" data-name="Group 361" transform="translate(100.28 236.441)">
          <g id="Group_360" data-name="Group 360" transform="translate(0)">
            <path id="Path_203" data-name="Path 203" d="M128.312,155.168c-.916.993-1.661,2.123-2.6,3.364,0-1.164.017-2.1,0-3.03-.017-.676-.043-1.361-.1-2.046a1.779,1.779,0,0,0-1.661-1.661c-1.318-.274-2.636-.556-4.254-.89,1.618-.728,2.953-1.421,4.348-1.934a2.732,2.732,0,0,0,2.106-2.859c-.017-1.292.1-2.585.163-3.877.128-.086.257-.18.385-.274.359.471.7.95,1.078,1.412.3.368.676.676.95,1.07,1.318,1.832,2.919,2.491,5.119,1.506a7.172,7.172,0,0,1,2.465-.043,36.747,36.747,0,0,1-1.806,3.475,2.026,2.026,0,0,0,.163,2.765c.676.8,1.258,1.695,2.054,2.782-1.575-.2-2.919-.377-4.271-.531a8.667,8.667,0,0,0-2.337-.154A3.369,3.369,0,0,0,128.312,155.168Z" transform="translate(-117.251 -139.952)" fill="#c7953a"/>
            <path id="Path_204" data-name="Path 204" d="M126.575,140.2c1.335,1.267,2.619,2.6,3.9,3.929a1.2,1.2,0,0,0,1.361.351,26.871,26.871,0,0,1,3.261-.856,5.361,5.361,0,0,1,2.089.051c.779.188.676.916.445,1.447-.651,1.5-1.352,2.987-2.123,4.434a1.161,1.161,0,0,0,.06,1.532,24.79,24.79,0,0,1,2.106,2.9,1.9,1.9,0,0,1,.248,1.566c-.2.342-.984.5-1.5.462-2.071-.163-4.143-.471-6.214-.625a1.937,1.937,0,0,0-1.352.616c-1.036,1.215-1.934,2.559-2.979,3.775-.325.368-1.07.736-1.421.6-.368-.145-.625-.882-.7-1.4a18.07,18.07,0,0,1-.026-2.457h.026v-1.027c-.009-3.133.394-2.32-2.431-3-1.121-.265-2.294-.368-3.407-.668a1.651,1.651,0,0,1-1.07-.882c-.086-.274.342-.9.693-1.078,1.883-.967,3.8-1.857,5.735-2.722a1.268,1.268,0,0,0,.916-1.267q.09-2.452.377-4.9a1.863,1.863,0,0,1,.659-1.344C125.53,139.5,126.224,139.877,126.575,140.2Zm3.124,13.7a8.669,8.669,0,0,1,2.337.154c1.352.154,2.7.334,4.271.531-.8-1.087-1.378-1.977-2.054-2.782a2.026,2.026,0,0,1-.163-2.765,36.748,36.748,0,0,0,1.806-3.475,7.171,7.171,0,0,0-2.465.043c-2.2.984-3.8.325-5.119-1.506-.274-.394-.651-.7-.95-1.07-.377-.462-.719-.942-1.078-1.412-.128.094-.257.188-.385.274-.06,1.292-.18,2.585-.163,3.877a2.732,2.732,0,0,1-2.106,2.859c-1.4.514-2.73,1.207-4.348,1.934,1.618.334,2.936.616,4.254.89a1.779,1.779,0,0,1,1.661,1.661c.06.685.086,1.37.1,2.046.017.933,0,1.866,0,3.03.942-1.241,1.686-2.371,2.6-3.364A3.37,3.37,0,0,1,129.7,153.906Z" transform="translate(-116.84 -139.613)" fill="#c7953a"/>
          </g>
        </g>
        <g id="Group_363" data-name="Group 363" transform="translate(338.194 440.119)">
          <g id="Group_362" data-name="Group 362" transform="translate(0 0)">
            <path id="Path_205" data-name="Path 205" d="M423.542,262.755a1.271,1.271,0,0,1,.228,1.036c-.118.237-.639.371-.983.368-1.391-.027-2.787-.151-4.177-.171a1.3,1.3,0,0,0-.879.465c-.644.853-1.192,1.787-1.841,2.641-.2.258-.686.534-.925.456s-.452-.564-.524-.9a12.1,12.1,0,0,1-.115-1.64h.017c-.014-.229-.027-.458-.04-.687-.13-2.093.171-1.565-1.743-1.905-.76-.133-1.547-.155-2.3-.312a1.1,1.1,0,0,1-.75-.546c-.068-.18.193-.615.42-.748,1.22-.721,2.466-1.392,3.724-2.046a.848.848,0,0,0,.562-.883c-.025-1.095,0-2.192.057-3.292a1.251,1.251,0,0,1,.388-.924c.194-.109.672.116.919.319.942.793,1.853,1.635,2.764,2.47a.8.8,0,0,0,.923.181,18.051,18.051,0,0,1,2.145-.7,3.577,3.577,0,0,1,1.4-.048c.528.095.488.585.354.948-.375,1.026-.785,2.05-1.243,3.046a.776.776,0,0,0,.1,1.021A16.807,16.807,0,0,1,423.542,262.755Zm-1.524-5.557a4.816,4.816,0,0,0-1.645.126,2.523,2.523,0,0,1-3.479-.8c-.2-.253-.462-.443-.677-.677-.27-.294-.518-.6-.776-.9-.082.068-.164.136-.247.2.011.866-.018,1.734.044,2.6a1.828,1.828,0,0,1-1.293,1.994c-.912.4-1.777.914-2.829,1.465,1.094.159,1.986.3,2.878.426a1.191,1.191,0,0,1,1.175,1.044c.067.455.111.912.149,1.363.049.622.075,1.246.121,2.024.579-.866,1.032-1.651,1.6-2.35a2.258,2.258,0,0,1,1.165-.689,5.831,5.831,0,0,1,1.567.01c.909.05,1.815.116,2.874.186-.574-.7-1-1.266-1.482-1.777a1.356,1.356,0,0,1-.218-1.841A24.349,24.349,0,0,0,422.019,257.2Z" transform="translate(-409.497 -253.634)" fill="#c7953a"/>
            <path id="Path_206" data-name="Path 206" d="M420.646,257.544a4.814,4.814,0,0,1,1.645-.126,24.339,24.339,0,0,1-1.069,2.393,1.356,1.356,0,0,0,.218,1.841c.484.511.908,1.082,1.482,1.777-1.06-.069-1.965-.136-2.874-.186a5.831,5.831,0,0,0-1.567-.01,2.258,2.258,0,0,0-1.165.689c-.573.7-1.025,1.484-1.6,2.35-.046-.778-.072-1.4-.121-2.024-.038-.451-.082-.908-.149-1.363a1.191,1.191,0,0,0-1.175-1.044c-.892-.131-1.784-.267-2.878-.426,1.052-.55,1.916-1.066,2.829-1.465a1.828,1.828,0,0,0,1.293-1.993c-.062-.863-.033-1.731-.044-2.6.082-.062.164-.13.246-.2.259.3.507.607.776.9.215.234.478.425.677.677A2.523,2.523,0,0,0,420.646,257.544Z" transform="translate(-409.77 -253.854)" fill="#c7953a"/>
          </g>
        </g>
        <g id="Group_365" data-name="Group 365" transform="translate(55.365 296.48)">
          <g id="Group_364" data-name="Group 364" transform="translate(0 0)">
            <path id="Path_207" data-name="Path 207" d="M63.478,180.208a1.356,1.356,0,0,1-.218,1.84c-.484.511-.908,1.083-1.482,1.778,1.06-.069,1.964-.136,2.874-.186a5.83,5.83,0,0,1,1.567-.01,2.252,2.252,0,0,1,1.165.689c.573.7,1.025,1.483,1.6,2.35.046-.778.072-1.4.12-2.025.039-.451.083-.907.15-1.363a1.19,1.19,0,0,1,1.175-1.043c.892-.131,1.784-.268,2.878-.426-1.052-.55-1.916-1.067-2.829-1.465a1.828,1.828,0,0,1-1.293-1.993c.062-.863.033-1.732.045-2.6-.082-.062-.164-.131-.246-.2-.258.3-.507.607-.776.9-.215.234-.478.425-.677.678a2.523,2.523,0,0,1-3.479.8,4.8,4.8,0,0,0-1.646-.126A24.639,24.639,0,0,0,63.478,180.208Z" transform="translate(-60.612 -174.251)" fill="#c7953a"/>
            <path id="Path_208" data-name="Path 208" d="M64.966,177.029a18.087,18.087,0,0,0-2.145-.7,3.593,3.593,0,0,0-1.4-.049c-.528.1-.488.585-.354.949.375,1.026.785,2.049,1.243,3.046a.777.777,0,0,1-.1,1.021,16.728,16.728,0,0,0-1.522,1.856,1.27,1.27,0,0,0-.228,1.037c.118.236.639.371.983.368,1.391-.027,2.787-.151,4.177-.171a1.3,1.3,0,0,1,.879.465c.644.853,1.191,1.786,1.84,2.64.2.259.686.535.926.457s.452-.564.524-.9a12.105,12.105,0,0,0,.115-1.64h-.017c.014-.229.027-.458.04-.686.13-2.093-.171-1.566,1.743-1.905.76-.133,1.548-.155,2.3-.312a1.1,1.1,0,0,0,.75-.547c.068-.179-.193-.614-.42-.748-1.22-.721-2.466-1.391-3.724-2.045a.849.849,0,0,1-.561-.882c.025-1.095,0-2.192-.057-3.292a1.251,1.251,0,0,0-.388-.924c-.194-.109-.672.116-.919.318-.942.794-1.853,1.635-2.764,2.471A.8.8,0,0,1,64.966,177.029Zm-1.9,4.8a1.356,1.356,0,0,0,.218-1.84,24.637,24.637,0,0,1-1.07-2.393,4.8,4.8,0,0,1,1.646.126,2.523,2.523,0,0,0,3.479-.8c.2-.253.462-.443.677-.678.27-.294.518-.6.776-.9.082.068.164.136.247.2-.011.865.018,1.734-.045,2.6a1.828,1.828,0,0,0,1.293,1.993c.912.4,1.777.914,2.829,1.464-1.094.158-1.986.3-2.878.426a1.19,1.19,0,0,0-1.175,1.043c-.067.455-.111.912-.15,1.363-.048.623-.074,1.247-.12,2.025-.579-.867-1.032-1.651-1.6-2.35a2.252,2.252,0,0,0-1.165-.689,5.832,5.832,0,0,0-1.567.01c-.91.05-1.815.116-2.874.186C62.155,182.911,62.58,182.34,63.063,181.829Z" transform="translate(-60.415 -174.031)" fill="#c7953a"/>
          </g>
        </g>
        <g id="Group_367" data-name="Group 367" transform="translate(76.777 566.62)">
          <g id="Group_366" data-name="Group 366">
            <path id="Path_209" data-name="Path 209" d="M89.124,336.48a1.271,1.271,0,0,0,.439.966c.236.118.733-.086,1.007-.294,1.1-.855,2.14-1.791,3.241-2.641a1.3,1.3,0,0,1,.983-.154c1.026.3,2.024.716,3.056,1.009a1.164,1.164,0,0,0,1.014-.189c.152-.217.024-.722-.122-1.037a12.155,12.155,0,0,0-.891-1.382l-.015.01-.379-.574c-1.15-1.753-1.075-1.15.253-2.57.528-.562,1.145-1.052,1.656-1.629a1.107,1.107,0,0,0,.273-.888c-.053-.184-.523-.376-.785-.347-1.409.154-2.807.365-4.207.595a.85.85,0,0,1-.979-.37q-.954-1.337-2.018-2.6c-.209-.253-.6-.544-.864-.508-.222.029-.47.5-.546.806-.278,1.2-.5,2.42-.731,3.634a.807.807,0,0,1-.631.7,17.978,17.978,0,0,0-2.137.724,3.609,3.609,0,0,0-1.148.8c-.365.392-.039.761.285.971.916.6,1.857,1.17,2.82,1.694.392.209.583.4.532.878A16.777,16.777,0,0,0,89.124,336.48Zm-2.111-5.362c.564-.372.948-.811,1.393-.885a2.523,2.523,0,0,0,2.3-2.729c.008-.321.1-.632.136-.948.04-.4.055-.791.081-1.186.107.005.213.01.317.011.51.7,1.054,1.377,1.52,2.106a1.828,1.828,0,0,0,2.231.821c.969-.228,1.97-.333,3.142-.523-.781.783-1.413,1.427-2.048,2.065a1.191,1.191,0,0,0-.315,1.54c.219.4.457.8.7,1.18.335.528.688,1.042,1.118,1.693-.983-.346-1.816-.7-2.694-.919a2.258,2.258,0,0,0-1.346.146,5.8,5.8,0,0,0-1.248.948c-.7.585-1.383,1.18-2.19,1.872.044-.9.041-1.613.122-2.312a1.355,1.355,0,0,0-.929-1.6A24.521,24.521,0,0,1,87.013,331.119Z" transform="translate(-85.432 -323.874)" fill="#c7953a"/>
            <path id="Path_210" data-name="Path 210" d="M88.672,330.485c-.445.074-.829.513-1.393.885a24.5,24.5,0,0,0,2.29,1.275,1.355,1.355,0,0,1,.929,1.6c-.08.7-.078,1.411-.122,2.312.807-.692,1.492-1.287,2.19-1.872a5.8,5.8,0,0,1,1.248-.948,2.258,2.258,0,0,1,1.346-.146c.877.217,1.71.573,2.694.919-.43-.651-.783-1.165-1.118-1.693-.24-.383-.478-.775-.7-1.18a1.191,1.191,0,0,1,.315-1.54c.635-.639,1.268-1.282,2.048-2.065-1.172.19-2.173.3-3.142.523a1.828,1.828,0,0,1-2.231-.821c-.466-.728-1.01-1.405-1.52-2.106-.1,0-.21-.006-.317-.011-.027.4-.041.79-.081,1.186-.032.317-.128.627-.136.948A2.523,2.523,0,0,1,88.672,330.485Z" transform="translate(-85.698 -324.126)" fill="#c7953a"/>
          </g>
        </g>
        <g id="Group_416" data-name="Group 416" transform="translate(25.354 21.815)" opacity="0.5">
          <g id="Group_369" data-name="Group 369" transform="translate(294.177 611.829)">
            <g id="Group_368" data-name="Group 368">
              <path id="Path_211" data-name="Path 211" d="M394.341,367.69a3.659,3.659,0,0,1-.1,2.867,1.671,1.671,0,0,1-1,.865c-1.986.488-3.98.959-6,1.267-2,.308-2.842-.505-2.927-2.542-.043-1.1-.111-2.191-.171-3.278-.017,0-.026-.009-.043-.009a6.219,6.219,0,0,1,.205-1.712c.2-.488.591-1.147,1.019-1.258,1.875-.479,3.792-.822,5.7-1.156a1.786,1.786,0,0,1,2.123,1.472C393.519,365.379,393.878,366.552,394.341,367.69Zm-1.866,2.405a.715.715,0,0,0,.351-.582,27.708,27.708,0,0,0-.719-3.663c-.522-1.772-.582-1.755-2.362-1.464-.505.077-1,.171-1.506.282-2.636.591-2.636.591-2.439,3.321v2.251c.009.71.325,1.1,1.07.959C388.743,370.849,390.609,370.5,392.475,370.1Z" transform="translate(-384.095 -362.7)" fill="#ff5252"/>
              <path id="Path_212" data-name="Path 212" d="M393.1,369.772a.714.714,0,0,1-.351.582c-1.866.4-3.732.753-5.606,1.1-.745.146-1.061-.248-1.07-.959v-2.251c-.2-2.73-.2-2.73,2.439-3.321.505-.111,1-.205,1.506-.282,1.78-.291,1.84-.308,2.362,1.464A27.708,27.708,0,0,1,393.1,369.772Z" transform="translate(-384.369 -362.959)" fill="#ff5252"/>
            </g>
          </g>
          <g id="Group_371" data-name="Group 371" transform="translate(52.481 365.551)">
            <g id="Group_370" data-name="Group 370">
              <path id="Path_213" data-name="Path 213" d="M92.188,227.17c1.725,1.282,3.39,2.627,5.232,4.079-1.157,1.289-2.194,2.467-3.265,3.605-.494.516-.963.724-1.582-.026-1.135-1.4-2.409-2.682-3.621-4.008a1.036,1.036,0,0,1,.111-1.732c.717-.579,1.343-1.262,2.077-1.807A1.128,1.128,0,0,1,92.188,227.17Z" transform="translate(-86.937 -225.351)" fill="#ff5252"/>
              <path id="Path_214" data-name="Path 214" d="M92.3,234.537c.619.75,1.088.542,1.582.026,1.072-1.138,2.108-2.316,3.265-3.605-1.843-1.452-3.508-2.8-5.232-4.079a1.128,1.128,0,0,0-1.047.112c-.734.544-1.36,1.228-2.077,1.807a1.036,1.036,0,0,0-.111,1.732C89.894,231.855,91.169,233.142,92.3,234.537Zm5.849-4.643c.644.5.9.972.249,1.69-1.184,1.322-2.259,2.742-3.478,4.026-1.332,1.414-2.419,1.342-3.71-.09-1.213-1.337-2.482-2.63-3.633-4.018-1.3-1.582-1.213-2.458.3-3.863.824-.756,1.681-1.5,2.562-2.187a1.617,1.617,0,0,1,2.164.048q1.444,1.154,2.9,2.295l-.005.007C96.384,228.5,97.265,229.206,98.152,229.893Z" transform="translate(-86.668 -225.06)" fill="#ff5252"/>
            </g>
          </g>
          <g id="Group_373" data-name="Group 373" transform="translate(352.808 282.524)">
            <g id="Group_372" data-name="Group 372">
              <path id="Path_215" data-name="Path 215" d="M465.75,186.622c.12.719-.009,1.1-.916,1.548a16.963,16.963,0,0,1-5.478,1.353c-2.183.3-2.893-.352-2.97-2.508-.017-.548-.077-1.1-.1-1.635s0-1.1,0-1.643H456.2c0-.505-.017-1.019.009-1.532a1.625,1.625,0,0,1,1.173-1.626c1.66-.5,3.321-1.01,5.016-1.378a1.769,1.769,0,0,1,2.3,1.584Q465.275,183.7,465.75,186.622Zm-1.352.488c-.385-2.029-.736-4-1.173-5.957-.051-.214-.642-.5-.916-.437-1.4.318-2.773.711-4.134,1.165a1.078,1.078,0,0,0-.471.847c.009,1.37.086,2.73.171,4.091.086,1.328.24,1.473,1.566,1.259C461.051,187.812,462.643,187.453,464.4,187.11Z" transform="translate(-456.193 -179.139)" fill="#ff5252"/>
              <path id="Path_216" data-name="Path 216" d="M463.48,181.417c.437,1.96.787,3.929,1.173,5.957-1.755.342-3.347.7-4.956.967-1.327.214-1.481.068-1.566-1.259-.086-1.36-.163-2.721-.171-4.091a1.078,1.078,0,0,1,.471-.847c1.361-.454,2.739-.847,4.134-1.165C462.838,180.921,463.428,181.2,463.48,181.417Z" transform="translate(-456.447 -179.403)" fill="#ff5252"/>
            </g>
          </g>
          <g id="Group_375" data-name="Group 375" transform="translate(24.729 428.302)">
            <g id="Group_374" data-name="Group 374" transform="translate(0 0)">
              <path id="Path_217" data-name="Path 217" d="M63.344,265.726a2.637,2.637,0,0,1-.745,2.208,35.458,35.458,0,0,1-5.546,2.32c-1.258.428-2.054-.137-2.285-1.464-.257-1.481-.394-2.979-.522-3.929-.026-2.782.445-3.432,2.6-3.895a24.4,24.4,0,0,1,3.347-.462,1.841,1.841,0,0,1,2.011,1.4A22.916,22.916,0,0,1,63.344,265.726Zm-1.215,1c-.214-.71-.359-1.2-.505-1.678-1.078-3.5-1.5-3.706-5.041-2.465-.068.017-.163.009-.2.051-.205.24-.582.5-.573.736.077,1.815.223,3.621.377,5.812C58.38,268.277,60.212,267.523,62.129,266.727Z" transform="translate(-54.245 -260.497)" fill="#ff5252"/>
              <path id="Path_218" data-name="Path 218" d="M61.888,265.285c.146.479.291.967.505,1.678-1.917.8-3.749,1.549-5.94,2.457-.154-2.191-.3-4-.377-5.812-.009-.24.368-.5.573-.736.034-.043.128-.034.2-.051C60.39,261.578,60.809,261.784,61.888,265.285Z" transform="translate(-54.509 -260.732)" fill="#ff5252"/>
            </g>
          </g>
          <g id="Group_377" data-name="Group 377" transform="translate(79.1 456.236)">
            <g id="Group_376" data-name="Group 376" transform="translate(0 0)">
              <path id="Path_219" data-name="Path 219" d="M130.9,281.293a2.637,2.637,0,0,1-.745,2.208,35.448,35.448,0,0,1-5.546,2.319c-1.258.428-2.054-.137-2.285-1.463-.257-1.481-.394-2.979-.522-3.929-.026-2.782.445-3.432,2.6-3.895a24.4,24.4,0,0,1,3.347-.462,1.841,1.841,0,0,1,2.011,1.4A22.953,22.953,0,0,1,130.9,281.293Zm-1.215,1c-.214-.711-.359-1.2-.505-1.679-1.078-3.5-1.5-3.706-5.041-2.464-.068.017-.163.009-.2.051-.205.24-.582.5-.573.736.077,1.814.223,3.621.377,5.811C125.935,283.844,127.767,283.09,129.684,282.294Z" transform="translate(-121.8 -276.064)" fill="#ff5252"/>
              <path id="Path_220" data-name="Path 220" d="M129.443,280.851c.145.48.291.968.505,1.678-1.917.8-3.749,1.549-5.94,2.456-.154-2.19-.3-4-.377-5.811-.009-.241.368-.5.573-.736.034-.043.128-.034.2-.051C127.945,277.144,128.364,277.35,129.443,280.851Z" transform="translate(-122.064 -276.299)" fill="#ff5252"/>
            </g>
          </g>
          <g id="Group_379" data-name="Group 379" transform="translate(353.146 399.691)">
            <g id="Group_378" data-name="Group 378" transform="translate(0 0)">
              <path id="Path_221" data-name="Path 221" d="M464.309,246.3a1.98,1.98,0,0,1,1.19,2.191c-.214,1.241-.428,2.825-.779,4.391a1.235,1.235,0,0,1-.959.736c-1.549-.069-3.1-.334-4.656-.411-2.593-.12-3.056-.787-1.969-3.158.591-1.31,1.207-2.6,1.883-3.86.745-1.378,1.2-1.524,2.645-.976C462.555,245.547,463.445,245.889,464.309,246.3Zm-.334,2.114a1,1,0,0,0-.419-.8c-.942-.454-1.917-.822-3.013-1.275-.847,1.78-1.643,3.458-2.491,5.23,1.849.146,3.509.274,5.341.419C463.6,250.759,463.83,249.6,463.975,248.414Z" transform="translate(-456.587 -244.916)" fill="#ff5252"/>
              <path id="Path_222" data-name="Path 222" d="M463.8,247.858a1,1,0,0,1,.419.8c-.145,1.181-.377,2.345-.582,3.578-1.832-.145-3.492-.274-5.341-.419.847-1.772,1.643-3.449,2.491-5.23C461.885,247.037,462.861,247.4,463.8,247.858Z" transform="translate(-456.834 -245.156)" fill="#ff5252"/>
            </g>
          </g>
          <g id="Group_381" data-name="Group 381" transform="translate(357.438 533.947)">
            <g id="Group_380" data-name="Group 380" transform="translate(0 0)">
              <path id="Path_223" data-name="Path 223" d="M469.323,321.24a1.98,1.98,0,0,1,1.19,2.191c-.214,1.241-.428,2.825-.779,4.391a1.235,1.235,0,0,1-.959.736c-1.549-.068-3.1-.334-4.656-.411-2.593-.12-3.056-.787-1.969-3.158.591-1.31,1.207-2.6,1.883-3.86.745-1.378,1.2-1.524,2.645-.976C467.569,320.487,468.459,320.829,469.323,321.24Zm-.334,2.114a1,1,0,0,0-.419-.8c-.942-.454-1.917-.822-3.013-1.275-.847,1.78-1.643,3.458-2.491,5.23,1.849.146,3.509.274,5.341.419C468.613,325.7,468.844,324.535,468.99,323.354Z" transform="translate(-461.601 -319.856)" fill="#ff5252"/>
              <path id="Path_224" data-name="Path 224" d="M468.817,322.8a1,1,0,0,1,.419.8c-.146,1.181-.377,2.345-.582,3.578-1.832-.146-3.492-.274-5.341-.419.847-1.772,1.643-3.449,2.491-5.23C466.9,321.977,467.875,322.345,468.817,322.8Z" transform="translate(-461.848 -320.096)" fill="#ff5252"/>
            </g>
          </g>
          <g id="Group_383" data-name="Group 383" transform="translate(4.436 343.794)">
            <g id="Group_382" data-name="Group 382">
              <path id="Path_225" data-name="Path 225" d="M38.72,217.868a19.2,19.2,0,0,1,.214,2.7c-.026.368-.488.984-.8,1.019a29.135,29.135,0,0,1-3.869.163,19.756,19.756,0,0,1-2.345-.223,1.421,1.421,0,0,1-1.37-1.609c.154-1.626.4-3.244.651-4.862a1.221,1.221,0,0,1,1.464-1.1c1.6.128,3.2.231,4.785.471,1.267.188,1.455.522,1.447,1.789-.009.548,0,1.1,0,1.635C38.831,217.86,38.78,217.86,38.72,217.868Zm-1.506,2.542c.077-1.6.146-3.021.223-4.571-1.618-.163-3.133-.317-4.845-.488-.223,1.626-.428,3.1-.651,4.75C33.764,220.205,35.442,220.308,37.213,220.41Z" transform="translate(-30.537 -213.948)" fill="#ff5252"/>
              <path id="Path_226" data-name="Path 226" d="M37.672,216.076c-.077,1.549-.146,2.97-.223,4.571-1.772-.1-3.449-.205-5.273-.308.223-1.652.428-3.124.651-4.75C34.539,215.759,36.054,215.913,37.672,216.076Z" transform="translate(-30.773 -214.185)" fill="#ff5252"/>
            </g>
          </g>
          <g id="Group_385" data-name="Group 385" transform="translate(319.882 317.197)">
            <g id="Group_384" data-name="Group 384">
              <path id="Path_227" data-name="Path 227" d="M426.364,204.658c.017.8-.633,1.07-1.233,1.1-1.532.1-3.064.1-4.6.094a7.422,7.422,0,0,1-1.618-.214,1.356,1.356,0,0,1-1.156-1.738c.077-.471.188-.933.308-1.4.779-2.859.976-3.013,3.937-3.1.95.111,1.909.171,2.842.342a1.577,1.577,0,0,1,1.4,1.823C426.21,202.6,426.347,203.631,426.364,204.658Zm-1.558-3.672c-1.464,0-2.756-.043-4.031.034a1.2,1.2,0,0,0-.882.642,24.452,24.452,0,0,0-.753,2.611h5.375C424.618,203.143,424.7,202.21,424.806,200.986Z" transform="translate(-417.724 -199.411)" fill="#ff5252"/>
              <path id="Path_228" data-name="Path 228" d="M421.013,201.283c1.275-.077,2.568-.034,4.031-.034-.1,1.224-.188,2.157-.291,3.287h-5.375a24.472,24.472,0,0,1,.753-2.611A1.2,1.2,0,0,1,421.013,201.283Z" transform="translate(-417.962 -199.674)" fill="#ff5252"/>
            </g>
          </g>
          <g id="Group_387" data-name="Group 387" transform="translate(329.01 805.551)">
            <g id="Group_386" data-name="Group 386">
              <path id="Path_229" data-name="Path 229" d="M437.029,478.083c.017.8-.633,1.07-1.233,1.1-1.532.1-3.064.1-4.6.094a7.425,7.425,0,0,1-1.618-.214,1.356,1.356,0,0,1-1.156-1.738c.077-.471.188-.933.308-1.4.779-2.859.976-3.013,3.937-3.1.95.111,1.909.171,2.842.342a1.577,1.577,0,0,1,1.4,1.823C436.875,476.029,437.012,477.056,437.029,478.083Zm-1.558-3.672c-1.464,0-2.756-.043-4.031.034a1.2,1.2,0,0,0-.882.642,24.479,24.479,0,0,0-.753,2.611h5.375C435.283,476.568,435.368,475.635,435.471,474.411Z" transform="translate(-428.389 -472.836)" fill="#ff5252"/>
              <path id="Path_230" data-name="Path 230" d="M431.678,474.708c1.275-.077,2.568-.034,4.031-.034-.1,1.224-.188,2.157-.291,3.287h-5.375a24.44,24.44,0,0,1,.753-2.611A1.2,1.2,0,0,1,431.678,474.708Z" transform="translate(-428.627 -473.099)" fill="#ff5252"/>
            </g>
          </g>
          <g id="Group_389" data-name="Group 389" transform="translate(366.36 188.38)">
            <g id="Group_388" data-name="Group 388">
              <path id="Path_231" data-name="Path 231" d="M480.665,132.534c.017.8-.633,1.07-1.232,1.1-1.532.1-3.064.1-4.6.094a7.425,7.425,0,0,1-1.618-.214,1.356,1.356,0,0,1-1.156-1.738c.077-.471.188-.933.308-1.4.779-2.859.976-3.013,3.937-3.1.95.111,1.909.171,2.842.342a1.577,1.577,0,0,1,1.4,1.823C480.511,130.48,480.648,131.507,480.665,132.534Zm-1.558-3.672c-1.464,0-2.756-.043-4.032.034a1.2,1.2,0,0,0-.882.642,24.467,24.467,0,0,0-.753,2.611h5.375C478.919,131.019,479,130.086,479.107,128.862Z" transform="translate(-472.025 -127.287)" fill="#ff5252"/>
              <path id="Path_232" data-name="Path 232" d="M475.314,129.159c1.275-.077,2.568-.034,4.031-.034-.1,1.224-.188,2.157-.291,3.287h-5.375a24.452,24.452,0,0,1,.753-2.611A1.2,1.2,0,0,1,475.314,129.159Z" transform="translate(-472.263 -127.55)" fill="#ff5252"/>
            </g>
          </g>
          <g id="Group_391" data-name="Group 391" transform="translate(35.552 805.105)">
            <g id="Group_390" data-name="Group 390">
              <path id="Path_233" data-name="Path 233" d="M75.53,477.561c.017.8-.633,1.07-1.233,1.1-1.532.1-3.064.1-4.6.094a7.426,7.426,0,0,1-1.618-.214,1.356,1.356,0,0,1-1.156-1.738c.077-.471.188-.933.308-1.4.779-2.859.976-3.013,3.937-3.1.95.111,1.909.171,2.842.342a1.577,1.577,0,0,1,1.4,1.823C75.376,475.507,75.513,476.534,75.53,477.561Zm-1.558-3.672c-1.464,0-2.756-.043-4.031.034a1.2,1.2,0,0,0-.882.642,24.457,24.457,0,0,0-.753,2.611h5.375C73.784,476.046,73.869,475.113,73.972,473.889Z" transform="translate(-66.89 -472.314)" fill="#ff5252"/>
              <path id="Path_234" data-name="Path 234" d="M70.179,474.186c1.275-.077,2.568-.034,4.031-.034-.1,1.224-.188,2.157-.291,3.287H68.544a24.451,24.451,0,0,1,.753-2.611A1.2,1.2,0,0,1,70.179,474.186Z" transform="translate(-67.128 -472.577)" fill="#ff5252"/>
            </g>
          </g>
          <g id="Group_393" data-name="Group 393" transform="translate(357.609 781.45)">
            <g id="Group_392" data-name="Group 392">
              <path id="Path_235" data-name="Path 235" d="M470.441,449.925c.017.8-.633,1.07-1.232,1.1-1.532.1-3.064.1-4.6.094a7.429,7.429,0,0,1-1.618-.214,1.356,1.356,0,0,1-1.156-1.738c.077-.471.188-.933.308-1.4.779-2.859.976-3.013,3.937-3.1.95.111,1.909.171,2.842.342a1.577,1.577,0,0,1,1.4,1.823C470.287,447.871,470.424,448.9,470.441,449.925Zm-1.558-3.672c-1.464,0-2.756-.043-4.032.034a1.2,1.2,0,0,0-.882.642,24.486,24.486,0,0,0-.753,2.611h5.375C468.695,448.41,468.78,447.477,468.883,446.253Z" transform="translate(-461.801 -444.678)" fill="#ff5252"/>
              <path id="Path_236" data-name="Path 236" d="M465.09,446.55c1.275-.077,2.568-.034,4.031-.034-.1,1.224-.188,2.157-.291,3.287h-5.375a24.438,24.438,0,0,1,.753-2.611A1.2,1.2,0,0,1,465.09,446.55Z" transform="translate(-462.039 -444.941)" fill="#ff5252"/>
            </g>
          </g>
          <g id="Group_395" data-name="Group 395" transform="translate(353.119)">
            <g id="Group_394" data-name="Group 394">
              <path id="Path_237" data-name="Path 237" d="M465.195,27.062c.017.8-.633,1.07-1.233,1.1-1.532.1-3.064.1-4.6.094a7.424,7.424,0,0,1-1.618-.214,1.356,1.356,0,0,1-1.156-1.738c.077-.471.188-.933.308-1.4.779-2.859.976-3.013,3.937-3.1.95.111,1.909.171,2.842.342a1.577,1.577,0,0,1,1.4,1.823C465.041,25.008,465.178,26.035,465.195,27.062Zm-1.558-3.672c-1.464,0-2.756-.043-4.031.034a1.2,1.2,0,0,0-.882.642,24.438,24.438,0,0,0-.753,2.611h5.375C463.449,25.547,463.534,24.614,463.637,23.39Z" transform="translate(-456.555 -21.815)" fill="#ff5252"/>
              <path id="Path_238" data-name="Path 238" d="M459.844,23.687c1.275-.077,2.568-.034,4.031-.034-.1,1.224-.188,2.157-.291,3.287h-5.375a24.439,24.439,0,0,1,.753-2.611A1.2,1.2,0,0,1,459.844,23.687Z" transform="translate(-456.793 -22.078)" fill="#ff5252"/>
            </g>
          </g>
          <g id="Group_397" data-name="Group 397" transform="translate(0 175.878)">
            <g id="Group_396" data-name="Group 396">
              <path id="Path_239" data-name="Path 239" d="M33.992,122.637c-.154,1.506-.248,2.594-.394,3.681-.1.753-.428,1.164-1.335.864a5.785,5.785,0,0,0-1.729-.094c-.993-.017-1.986,0-2.979-.017-2.157-.051-2.662-.779-1.806-2.73a27.223,27.223,0,0,1,1.652-3.176,1.807,1.807,0,0,1,2.2-.865,20.609,20.609,0,0,1,3.3,1.078C33.436,121.645,33.761,122.364,33.992,122.637Zm-1.6.668c.009-.231-.128-.625-.282-.676a23.454,23.454,0,0,0-2.936-.847c-.214-.043-.616.282-.762.531-.548.976-1.027,1.994-1.643,3.218h5.41C32.255,124.786,32.357,124.05,32.392,123.305Z" transform="translate(-25.354 -120.204)" fill="#ff5252"/>
              <path id="Path_240" data-name="Path 240" d="M32.347,122.894c.154.051.291.445.282.676-.034.745-.137,1.481-.214,2.225h-5.41c.616-1.224,1.1-2.243,1.643-3.218.146-.248.548-.573.762-.531A23.451,23.451,0,0,1,32.347,122.894Z" transform="translate(-25.592 -120.469)" fill="#ff5252"/>
            </g>
          </g>
          <g id="Group_399" data-name="Group 399" transform="translate(1.29 3.315)">
            <g id="Group_398" data-name="Group 398">
              <path id="Path_241" data-name="Path 241" d="M35.5,28.121c-.154,1.506-.248,2.594-.394,3.681-.1.753-.428,1.164-1.334.864a5.791,5.791,0,0,0-1.73-.094c-.993-.017-1.986,0-2.978-.017-2.158-.051-2.663-.779-1.807-2.73a27.225,27.225,0,0,1,1.652-3.176,1.808,1.808,0,0,1,2.2-.864,20.609,20.609,0,0,1,3.3,1.078C34.943,27.129,35.269,27.848,35.5,28.121Zm-1.6.668c.009-.231-.128-.625-.282-.676a23.453,23.453,0,0,0-2.936-.847c-.214-.043-.616.282-.761.531-.549.976-1.028,1.994-1.643,3.218h5.409C33.762,30.27,33.864,29.534,33.9,28.789Z" transform="translate(-26.861 -25.688)" fill="#ff5252"/>
              <path id="Path_242" data-name="Path 242" d="M33.854,28.378c.155.051.291.445.282.676-.034.745-.137,1.481-.214,2.225H28.514c.615-1.224,1.095-2.243,1.643-3.218.145-.248.547-.573.761-.531A23.454,23.454,0,0,1,33.854,28.378Z" transform="translate(-27.099 -25.953)" fill="#ff5252"/>
            </g>
          </g>
          <g id="Group_401" data-name="Group 401" transform="translate(69.002 596.567)">
            <g id="Group_400" data-name="Group 400" transform="translate(0)">
              <path id="Path_243" data-name="Path 243" d="M118.12,357.978c-.154,1.506-.248,2.593-.394,3.681-.1.753-.428,1.164-1.335.865a5.784,5.784,0,0,0-1.729-.094c-.993-.017-1.986,0-2.979-.017-2.157-.051-2.662-.779-1.806-2.73a27.218,27.218,0,0,1,1.652-3.176,1.807,1.807,0,0,1,2.2-.864,20.606,20.606,0,0,1,3.3,1.078C117.564,356.985,117.889,357.7,118.12,357.978Zm-1.6.668c.009-.231-.128-.625-.282-.676a23.464,23.464,0,0,0-2.936-.847c-.214-.043-.616.282-.762.531-.548.976-1.027,1.994-1.643,3.218h5.41C116.383,360.126,116.485,359.39,116.52,358.645Z" transform="translate(-109.482 -355.544)" fill="#ff5252"/>
              <path id="Path_244" data-name="Path 244" d="M116.475,358.234c.154.051.291.445.282.676-.034.745-.137,1.481-.214,2.225h-5.41c.616-1.224,1.1-2.243,1.643-3.218.145-.248.548-.573.762-.531A23.475,23.475,0,0,1,116.475,358.234Z" transform="translate(-109.72 -355.809)" fill="#ff5252"/>
            </g>
          </g>
          <g id="Group_403" data-name="Group 403" transform="translate(319.977 495.358)">
            <g id="Group_402" data-name="Group 402">
              <path id="Path_245" data-name="Path 245" d="M426.473,301.359c-.154,1.506-.248,2.594-.394,3.681-.1.753-.428,1.164-1.335.865a5.784,5.784,0,0,0-1.729-.094c-.993-.017-1.986,0-2.979-.017-2.157-.051-2.662-.779-1.806-2.73a27.221,27.221,0,0,1,1.652-3.176,1.807,1.807,0,0,1,2.2-.865,20.607,20.607,0,0,1,3.3,1.078C425.917,300.367,426.242,301.086,426.473,301.359Zm-1.6.668c.009-.231-.128-.625-.282-.676a23.441,23.441,0,0,0-2.936-.847c-.214-.043-.616.282-.762.531-.548.976-1.027,1.994-1.643,3.218h5.41C424.736,303.508,424.838,302.772,424.873,302.027Z" transform="translate(-417.835 -298.926)" fill="#ff5252"/>
              <path id="Path_246" data-name="Path 246" d="M424.828,301.616c.154.051.291.445.282.676-.034.745-.137,1.481-.214,2.225h-5.41c.616-1.224,1.1-2.243,1.643-3.218.146-.248.548-.573.762-.531A23.464,23.464,0,0,1,424.828,301.616Z" transform="translate(-418.073 -299.191)" fill="#ff5252"/>
            </g>
          </g>
          <g id="Group_405" data-name="Group 405" transform="translate(303.621 18.692)">
            <g id="Group_404" data-name="Group 404">
              <path id="Path_247" data-name="Path 247" d="M407.364,46.086c-.154,1.506-.248,2.594-.394,3.681-.1.753-.428,1.164-1.335.865a5.784,5.784,0,0,0-1.729-.094c-.993-.017-1.986,0-2.979-.017-2.157-.051-2.662-.779-1.806-2.73a27.223,27.223,0,0,1,1.652-3.176,1.808,1.808,0,0,1,2.2-.865,20.611,20.611,0,0,1,3.3,1.078C406.808,45.094,407.133,45.813,407.364,46.086Zm-1.6.668c.009-.231-.128-.625-.282-.676a23.454,23.454,0,0,0-2.936-.847c-.214-.043-.616.282-.762.531-.548.976-1.027,1.994-1.643,3.218h5.41C405.627,48.235,405.729,47.5,405.764,46.754Z" transform="translate(-398.726 -43.653)" fill="#ff5252"/>
              <path id="Path_248" data-name="Path 248" d="M405.719,46.343c.154.051.291.445.282.676-.034.745-.137,1.481-.214,2.225h-5.409c.616-1.224,1.1-2.243,1.643-3.218.146-.248.548-.573.762-.531A23.456,23.456,0,0,1,405.719,46.343Z" transform="translate(-398.964 -43.918)" fill="#ff5252"/>
            </g>
          </g>
          <g id="Group_407" data-name="Group 407" transform="translate(13.927 522.986)">
            <g id="Group_406" data-name="Group 406" transform="translate(0 0)">
              <path id="Path_249" data-name="Path 249" d="M50.263,316.815c-.154,1.506-.248,2.594-.394,3.68-.1.753-.428,1.164-1.335.865a5.785,5.785,0,0,0-1.729-.094c-.993-.017-1.986,0-2.979-.017-2.157-.051-2.662-.779-1.806-2.73a27.226,27.226,0,0,1,1.652-3.176,1.807,1.807,0,0,1,2.2-.865,20.61,20.61,0,0,1,3.3,1.078C49.707,315.823,50.032,316.542,50.263,316.815Zm-1.6.668c.009-.231-.128-.625-.282-.676a23.449,23.449,0,0,0-2.936-.847c-.214-.043-.616.282-.762.531-.548.976-1.027,1.994-1.643,3.218h5.41C48.526,318.964,48.628,318.228,48.663,317.483Z" transform="translate(-41.625 -314.382)" fill="#ff5252"/>
              <path id="Path_250" data-name="Path 250" d="M48.618,317.072c.154.051.291.445.282.676-.034.745-.137,1.481-.214,2.225h-5.41c.616-1.224,1.1-2.243,1.643-3.218.146-.248.548-.573.762-.531A23.475,23.475,0,0,1,48.618,317.072Z" transform="translate(-41.863 -314.647)" fill="#ff5252"/>
            </g>
          </g>
          <g id="Group_409" data-name="Group 409" transform="translate(63.288 763.956)">
            <g id="Group_408" data-name="Group 408">
              <path id="Path_251" data-name="Path 251" d="M110.969,429.522c-.865,1.7-1.47,2.927-2.135,4.136-.463.836-1.031,1.17-1.958.406a7.269,7.269,0,0,0-1.984-.9c-1.156-.472-2.327-.9-3.484-1.375-2.5-1.041-2.766-2.124-.876-4.022a34.422,34.422,0,0,1,3.38-2.971,2.273,2.273,0,0,1,2.972-.013,25.848,25.848,0,0,1,3.372,2.762A4.918,4.918,0,0,1,110.969,429.522Zm-2.179.055c.115-.267.134-.791-.024-.921a29.593,29.593,0,0,0-3.056-2.328c-.232-.147-.851.051-1.135.276-1.085.9-2.111,1.871-3.39,3.026l6.341,2.459C107.956,431.251,108.411,430.434,108.79,429.577Z" transform="translate(-99.295 -424.24)" fill="#ff5252"/>
              <path id="Path_252" data-name="Path 252" d="M109.084,429c.157.13.139.654.024.921-.379.858-.834,1.674-1.263,2.511l-6.341-2.459c1.279-1.155,2.3-2.13,3.39-3.026.284-.224.9-.423,1.135-.276A29.574,29.574,0,0,1,109.084,429Z" transform="translate(-99.613 -424.583)" fill="#ff5252"/>
            </g>
          </g>
          <g id="Group_411" data-name="Group 411" transform="translate(5.608 788.594)">
            <g id="Group_410" data-name="Group 410">
              <path id="Path_253" data-name="Path 253" d="M40.544,455.458c-.154,1.506-.248,2.594-.394,3.681-.1.753-.428,1.164-1.335.864a5.783,5.783,0,0,0-1.729-.094c-.993-.017-1.986,0-2.979-.017-2.157-.051-2.662-.779-1.806-2.73a27.231,27.231,0,0,1,1.652-3.176,1.807,1.807,0,0,1,2.2-.864,20.6,20.6,0,0,1,3.3,1.078C39.988,454.466,40.313,455.185,40.544,455.458Zm-1.6.668c.009-.231-.128-.625-.282-.676a23.439,23.439,0,0,0-2.936-.847c-.214-.043-.616.282-.762.531-.548.976-1.027,1.994-1.643,3.218h5.41C38.807,457.607,38.909,456.871,38.944,456.126Z" transform="translate(-31.906 -453.025)" fill="#ff5252"/>
              <path id="Path_254" data-name="Path 254" d="M38.9,455.715c.154.051.291.445.282.676-.034.745-.137,1.481-.214,2.225h-5.41c.616-1.224,1.1-2.243,1.643-3.218.146-.248.548-.574.762-.531A23.46,23.46,0,0,1,38.9,455.715Z" transform="translate(-32.144 -453.29)" fill="#ff5252"/>
            </g>
          </g>
          <g id="Group_413" data-name="Group 413" transform="translate(35.609 190.85)">
            <g id="Group_412" data-name="Group 412">
              <path id="Path_255" data-name="Path 255" d="M74.806,131.36c-.137.428-.205.693-.308.942-.445,1.07-.882,2.14-1.361,3.193-.445.993-.676.975-1.669.522-1.01-.462-2.114-.728-3.167-1.13-1.455-.548-1.686-1.181-.9-2.483.651-1.078,1.335-2.148,2.02-3.21a1.288,1.288,0,0,1,1.849-.53,23.723,23.723,0,0,1,2.653,1.5A4.134,4.134,0,0,1,74.806,131.36Zm-2.268,1.755c.8-1.866.71-2.064-1.258-2.842-.034-.009-.068-.051-.094-.044-.274.078-.685.086-.813.275-.642.907-1.207,1.865-1.857,2.91,1.181.4,2.234.762,3.381,1.147C72.153,133.979,72.349,133.551,72.538,133.115Z" transform="translate(-66.957 -128.468)" fill="#ff5252"/>
              <path id="Path_256" data-name="Path 256" d="M71.542,130.569c1.969.778,2.054.976,1.258,2.842-.188.437-.385.865-.642,1.447-1.147-.385-2.2-.745-3.381-1.147.651-1.045,1.215-2,1.857-2.91.128-.188.539-.2.813-.275C71.473,130.518,71.507,130.56,71.542,130.569Z" transform="translate(-67.219 -128.764)" fill="#ff5252"/>
            </g>
          </g>
          <g id="Group_415" data-name="Group 415" transform="translate(48.557 6.465)">
            <g id="Group_414" data-name="Group 414">
              <path id="Path_257" data-name="Path 257" d="M89.933,32.259c-.137.428-.205.693-.308.942-.445,1.07-.882,2.14-1.361,3.193-.445.993-.676.976-1.669.522-1.01-.462-2.114-.728-3.167-1.13-1.455-.548-1.686-1.181-.9-2.482.651-1.078,1.335-2.148,2.02-3.21a1.289,1.289,0,0,1,1.849-.531,23.725,23.725,0,0,1,2.653,1.5A4.134,4.134,0,0,1,89.933,32.259Zm-2.268,1.755c.8-1.866.71-2.063-1.258-2.842-.034-.009-.068-.051-.094-.043-.274.077-.685.086-.813.274-.642.907-1.207,1.866-1.857,2.91,1.181.4,2.234.762,3.381,1.147C87.28,34.879,87.476,34.451,87.665,34.014Z" transform="translate(-82.084 -29.368)" fill="#ff5252"/>
              <path id="Path_258" data-name="Path 258" d="M86.669,31.469c1.969.779,2.054.976,1.258,2.842-.188.437-.385.864-.642,1.447-1.147-.385-2.2-.745-3.381-1.147.651-1.044,1.215-2,1.857-2.91.128-.188.539-.2.813-.274C86.6,31.417,86.634,31.46,86.669,31.469Z" transform="translate(-82.346 -29.664)" fill="#ff5252"/>
            </g>
          </g>
        </g>
      </g>
      <rect id="Rectangle_520" data-name="Rectangle 520" width="375" height="812" fill="#fff"/>
    </g>
  </g>
</svg>
