<svg xmlns="http://www.w3.org/2000/svg" width="14.198" height="17.739" viewBox="0 0 14.198 17.739">
  <path id="Path_137" data-name="Path 137" d="M62.995,15.334,61.979,3.9a.489.489,0,0,0-.486-.446H59.4a3.5,3.5,0,0,0-7.009,0H50.305a.486.486,0,0,0-.486.446L48.8,15.334c0,.015,0,.029,0,.044a2.528,2.528,0,0,0,2.663,2.362h8.873A2.528,2.528,0,0,0,63,15.377.176.176,0,0,0,62.995,15.334ZM55.9.979a2.527,2.527,0,0,1,2.525,2.47h-5.05A2.527,2.527,0,0,1,55.9.979Zm4.437,15.78H51.463a1.563,1.563,0,0,1-1.683-1.36l.972-10.966h1.64V5.92a.49.49,0,0,0,.979,0V4.433h5.053V5.92a.49.49,0,1,0,.979,0V4.433h1.64L62.019,15.4A1.565,1.565,0,0,1,60.336,16.759Z" transform="translate(-48.8)" fill="#393741"/>
</svg>
