<svg xmlns="http://www.w3.org/2000/svg" width="16.59" height="20.727" viewBox="0 0 16.59 20.727">
  <g id="shopping-bag_2_" data-name="shopping-bag (2)" transform="translate(-48.8)">
    <path id="Path_137" data-name="Path 137" d="M65.386,17.917,64.2,4.552a.571.571,0,0,0-.568-.521H61.19a4.1,4.1,0,0,0-8.189,0H50.559a.568.568,0,0,0-.568.521L48.8,17.917c0,.017,0,.034,0,.051a2.954,2.954,0,0,0,3.111,2.759H62.279a2.954,2.954,0,0,0,3.111-2.759A.206.206,0,0,0,65.386,17.917ZM57.1,1.144a2.953,2.953,0,0,1,2.95,2.887h-5.9A2.953,2.953,0,0,1,57.1,1.144Zm5.184,18.438H51.911a1.826,1.826,0,0,1-1.967-1.59L51.08,5.18H53V6.918a.572.572,0,0,0,1.144,0V5.18h5.9V6.918a.572.572,0,0,0,1.144,0V5.18h1.916l1.14,12.814A1.829,1.829,0,0,1,62.279,19.583Z" fill="#596273"/>
  </g>
</svg>
