<svg xmlns="http://www.w3.org/2000/svg" width="14.001" height="16.061" viewBox="0 0 14.001 16.061">
  <g id="gift-box_3_" data-name="gift-box (3)" transform="translate(-32.828 0.001)">
    <g id="Group_283" data-name="Group 283" transform="translate(32.828 -0.001)">
      <path id="Path_146" data-name="Path 146" d="M45.9,5.576,44.327,5a1.906,1.906,0,1,0-2.476-2.9l-1.087.961-.215-1.441a1.907,1.907,0,1,0-3.759.635l-1.484-.54a1.411,1.411,0,0,0-1.807.842l-.643,1.766a.47.47,0,0,0,.281.6L40.48,7.6H33.39a.47.47,0,0,0-.47.47V14.65a1.411,1.411,0,0,0,1.409,1.409h9.4a1.411,1.411,0,0,0,1.409-1.409V9.3l.363.132a.47.47,0,0,0,.6-.281l.643-1.766A1.411,1.411,0,0,0,45.9,5.576ZM37.618,15.12H34.329a.47.47,0,0,1-.47-.47V8.543h3.759Zm1.879,0h-.94V8.543h.94ZM42.474,2.809a.967.967,0,1,1,.31,1.633l-1.528-.556Zm-4.38-1.682a.967.967,0,0,1,1.527.637l.241,1.614-1.528-.556A.971.971,0,0,1,38.093,1.127Zm.221,4.688L33.9,4.208l.482-1.324a.47.47,0,0,1,.6-.281l3.973,1.446Zm1.766.643L39.2,6.136l.643-1.766.883.321ZM44.2,14.65a.47.47,0,0,1-.47.47H40.437V8.543h2.624l1.134.413V14.65Zm1.665-7.589-.482,1.324L40.964,6.779l.643-1.766L45.58,6.459A.47.47,0,0,1,45.861,7.062Z" transform="translate(-32.828 0.001)" fill="#464646"/>
    </g>
  </g>
</svg>
