<svg xmlns="http://www.w3.org/2000/svg" width="23.713" height="22.73" viewBox="0 0 23.713 22.73">
  <g id="cake" transform="translate(0 -10.614)">
    <g id="Group_298" data-name="Group 298" transform="translate(7.746 24.047)">
      <g id="Group_297" data-name="Group 297">
        <path id="Path_150" data-name="Path 150" d="M168.177,301.029a.468.468,0,0,0-.026-.087.457.457,0,0,0-.043-.08.464.464,0,0,0-.476-.2.466.466,0,0,0-.087.026.455.455,0,0,0-.08.043.45.45,0,0,0-.128.128.457.457,0,0,0-.043.08.467.467,0,0,0-.026.087.456.456,0,0,0-.009.09.464.464,0,0,0,.009.091.489.489,0,0,0,.026.087.47.47,0,0,0,.043.08.443.443,0,0,0,.057.07.472.472,0,0,0,.07.058.457.457,0,0,0,.08.043.468.468,0,0,0,.087.026.454.454,0,0,0,.09.009.464.464,0,0,0,.428-.286.491.491,0,0,0,.026-.087.463.463,0,0,0,.009-.091A.455.455,0,0,0,168.177,301.029Z" transform="translate(-167.26 -300.657)" fill="#393741"/>
      </g>
    </g>
    <g id="Group_300" data-name="Group 300" transform="translate(0 10.614)">
      <g id="Group_299" data-name="Group 299">
        <path id="Path_151" data-name="Path 151" d="M23.25,32.417H22.29V25.433A1.388,1.388,0,0,0,20.9,24.047h-.791V19.478a1.388,1.388,0,0,0-1.386-1.386H17.3V16.747a1.879,1.879,0,0,0,1.223-2.654l-1.271-2.575a.463.463,0,0,0-.831,0l-1.271,2.575a1.879,1.879,0,0,0,1.223,2.654v1.345H12.32V16.1a1.879,1.879,0,0,0,1.223-2.654l-1.271-2.575a.463.463,0,0,0-.831,0L10.17,13.447A1.879,1.879,0,0,0,11.393,16.1v1.991H7.334V16.749a1.882,1.882,0,0,0,1.223-2.656L7.286,11.518a.463.463,0,0,0-.831,0L5.185,14.093a1.882,1.882,0,0,0,1.223,2.656v1.343H4.986A1.388,1.388,0,0,0,3.6,19.479v4.568H2.809a1.388,1.388,0,0,0-1.386,1.386v6.984H.463a.463.463,0,1,0,0,.926H23.25a.463.463,0,0,0,0-.926ZM16.167,15.6a.954.954,0,0,1-.181-1.1l.856-1.733L17.7,14.5a.955.955,0,0,1-1.53,1.1Zm-4.985-.646a.954.954,0,0,1-.181-1.1l.856-1.733.856,1.733a.955.955,0,0,1-1.53,1.1ZM6.2,15.6a.954.954,0,0,1-.181-1.1l.856-1.733L7.727,14.5A.955.955,0,0,1,6.2,15.6Zm-1.21,3.418H18.727a.461.461,0,0,1,.46.46v1.454a2.241,2.241,0,0,1-.683.094,2.169,2.169,0,0,1-1.4-.476,3.23,3.23,0,0,0-3.837,0,2.311,2.311,0,0,1-2.81,0,3.067,3.067,0,0,0-1.919-.632,3.067,3.067,0,0,0-1.919.632,2.168,2.168,0,0,1-1.4.476,2.242,2.242,0,0,1-.683-.094V19.478h0A.461.461,0,0,1,4.986,19.018Zm16.378,13.4H2.349V27.966a2.351,2.351,0,0,1,.942.437,3.067,3.067,0,0,0,1.919.632A3.067,3.067,0,0,0,7.128,28.4a2.168,2.168,0,0,1,1.4-.476,2.169,2.169,0,0,1,1.4.476,3.23,3.23,0,0,0,3.837,0,2.311,2.311,0,0,1,2.81,0,3.23,3.23,0,0,0,3.838,0,2.352,2.352,0,0,1,.942-.437Zm0-5.388a3.126,3.126,0,0,0-1.456.6,2.311,2.311,0,0,1-2.81,0,3.23,3.23,0,0,0-3.837,0,2.311,2.311,0,0,1-2.81,0A3.067,3.067,0,0,0,8.532,27a3.067,3.067,0,0,0-1.919.632,2.168,2.168,0,0,1-1.4.476,2.169,2.169,0,0,1-1.4-.476,3.126,3.126,0,0,0-1.456-.6v-1.6a.461.461,0,0,1,.46-.46H6.363a.463.463,0,1,0,0-.926H4.526v-2.16a3.389,3.389,0,0,0,.683.065,3.067,3.067,0,0,0,1.919-.632,2.168,2.168,0,0,1,1.4-.476,2.169,2.169,0,0,1,1.4.476,3.23,3.23,0,0,0,3.837,0,2.311,2.311,0,0,1,2.81,0,3.067,3.067,0,0,0,1.919.632,3.391,3.391,0,0,0,.683-.065v2.16H10.056a.463.463,0,0,0,0,.926H20.9a.461.461,0,0,1,.46.46v1.6Z" transform="translate(0 -10.614)" fill="#393741"/>
      </g>
    </g>
    <g id="Group_302" data-name="Group 302" transform="translate(3.6 30.894)">
      <g id="Group_301" data-name="Group 301">
        <path id="Path_152" data-name="Path 152" d="M78.647,448.873a.466.466,0,0,0-.026-.087.456.456,0,0,0-.1-.151.464.464,0,0,0-.655,0,.465.465,0,0,0-.1.151.467.467,0,0,0-.026.087.47.47,0,0,0,0,.181.468.468,0,0,0,.026.087.465.465,0,0,0,.1.151.467.467,0,0,0,.328.136.46.46,0,0,0,.09-.009.468.468,0,0,0,.237-.126.457.457,0,0,0,.1-.151.468.468,0,0,0,.026-.087.447.447,0,0,0,0-.181Z" transform="translate(-77.73 -448.5)" fill="#393741"/>
      </g>
    </g>
    <g id="Group_304" data-name="Group 304" transform="translate(8.577 29.509)">
      <g id="Group_303" data-name="Group 303">
        <path id="Path_153" data-name="Path 153" d="M186.117,418.967a.47.47,0,0,0-.026-.087.492.492,0,0,0-.043-.08.5.5,0,0,0-.058-.07.443.443,0,0,0-.07-.057.47.47,0,0,0-.08-.043.49.49,0,0,0-.087-.026.458.458,0,0,0-.181,0,.468.468,0,0,0-.087.026.455.455,0,0,0-.08.043.443.443,0,0,0-.07.057.465.465,0,0,0-.057.07.491.491,0,0,0-.043.08.469.469,0,0,0-.026.087.448.448,0,0,0,0,.181.469.469,0,0,0,.026.087.491.491,0,0,0,.043.08.465.465,0,0,0,.057.07.47.47,0,0,0,.07.057.455.455,0,0,0,.08.043.466.466,0,0,0,.087.026.455.455,0,0,0,.09.009.463.463,0,0,0,.091-.009.488.488,0,0,0,.087-.026.469.469,0,0,0,.15-.1.5.5,0,0,0,.058-.07.492.492,0,0,0,.043-.08.47.47,0,0,0,.026-.087.471.471,0,0,0,0-.181Z" transform="translate(-185.2 -418.594)" fill="#393741"/>
      </g>
    </g>
    <g id="Group_306" data-name="Group 306" transform="translate(13.932 30.894)">
      <g id="Group_305" data-name="Group 305">
        <path id="Path_154" data-name="Path 154" d="M301.737,448.867a.471.471,0,0,0-.026-.087.466.466,0,0,0-.1-.151.472.472,0,0,0-.07-.057.457.457,0,0,0-.08-.043.467.467,0,0,0-.087-.026.459.459,0,0,0-.181,0,.49.49,0,0,0-.087.026.469.469,0,0,0-.15.1.527.527,0,0,0-.058.07.5.5,0,0,0-.043.08.468.468,0,0,0-.026.087.471.471,0,0,0,0,.181.468.468,0,0,0,.026.087.456.456,0,0,0,.1.151.443.443,0,0,0,.07.057.47.47,0,0,0,.08.043.487.487,0,0,0,.087.026.46.46,0,0,0,.476-.2.49.49,0,0,0,.043-.08.471.471,0,0,0,.026-.087.446.446,0,0,0,0-.181Z" transform="translate(-300.82 -448.494)" fill="#393741"/>
      </g>
    </g>
    <g id="Group_308" data-name="Group 308" transform="translate(19.187 29.786)">
      <g id="Group_307" data-name="Group 307">
        <path id="Path_155" data-name="Path 155" d="M415.2,424.943a.468.468,0,0,0-.026-.087.474.474,0,0,0-.043-.08.463.463,0,0,0-.713-.07.5.5,0,0,0-.057.07.47.47,0,0,0-.069.167.471.471,0,0,0,0,.181.463.463,0,0,0,.069.166.5.5,0,0,0,.057.071.52.52,0,0,0,.07.057.494.494,0,0,0,.08.043.47.47,0,0,0,.087.026.461.461,0,0,0,.091.009.464.464,0,0,0,.427-.286.479.479,0,0,0,.026-.087.446.446,0,0,0,0-.181Z" transform="translate(-414.28 -424.57)" fill="#393741"/>
      </g>
    </g>
    <g id="Group_310" data-name="Group 310" transform="translate(14.578 22.216)">
      <g id="Group_309" data-name="Group 309">
        <path id="Path_156" data-name="Path 156" d="M315.687,261.487a.493.493,0,0,0-.026-.087.461.461,0,0,0-.1-.15.448.448,0,0,0-.07-.058.47.47,0,0,0-.08-.043.487.487,0,0,0-.087-.026.458.458,0,0,0-.181,0,.467.467,0,0,0-.087.026.458.458,0,0,0-.08.043.46.46,0,0,0-.128.128.473.473,0,0,0-.043.08.491.491,0,0,0-.026.087.465.465,0,0,0-.009.091.457.457,0,0,0,.009.09.468.468,0,0,0,.026.087.478.478,0,0,0,.043.08.45.45,0,0,0,.128.128.458.458,0,0,0,.08.043.469.469,0,0,0,.087.026.457.457,0,0,0,.09.009.465.465,0,0,0,.091-.009.489.489,0,0,0,.087-.026.47.47,0,0,0,.08-.043.444.444,0,0,0,.07-.057.456.456,0,0,0,.1-.151.47.47,0,0,0,.026-.087.456.456,0,0,0,.009-.09A.465.465,0,0,0,315.687,261.487Z" transform="translate(-314.77 -261.114)" fill="#393741"/>
      </g>
    </g>
    <g id="Group_312" data-name="Group 312" transform="translate(8.532 21.585)">
      <g id="Group_311" data-name="Group 311">
        <path id="Path_157" data-name="Path 157" d="M185.127,247.868a.467.467,0,0,0-.026-.087.493.493,0,0,0-.043-.08.45.45,0,0,0-.128-.128.493.493,0,0,0-.08-.043.47.47,0,0,0-.087-.026.459.459,0,0,0-.181,0,.469.469,0,0,0-.087.026.46.46,0,0,0-.251.251.468.468,0,0,0-.026.087.47.47,0,0,0,0,.181.468.468,0,0,0,.026.087.492.492,0,0,0,.043.08.45.45,0,0,0,.128.128.492.492,0,0,0,.08.043.468.468,0,0,0,.087.026.448.448,0,0,0,.181,0,.469.469,0,0,0,.087-.026.465.465,0,0,0,.151-.1.522.522,0,0,0,.057-.07.493.493,0,0,0,.043-.08.467.467,0,0,0,.026-.087.47.47,0,0,0,0-.181Z" transform="translate(-184.21 -247.495)" fill="#393741"/>
      </g>
    </g>
  </g>
</svg>
