<svg id="delete" xmlns="http://www.w3.org/2000/svg" width="11.419" height="14.06" viewBox="0 0 11.419 14.06">
  <path id="Path_4070" data-name="Path 4070" d="M222.727,154.7a.329.329,0,0,0-.329.329v6.223a.329.329,0,1,0,.659,0v-6.223A.329.329,0,0,0,222.727,154.7Zm0,0" transform="translate(-215.075 -149.609)" fill="#393741"/>
  <path id="Path_4071" data-name="Path 4071" d="M104.727,154.7a.329.329,0,0,0-.329.329v6.223a.329.329,0,1,0,.659,0v-6.223A.329.329,0,0,0,104.727,154.7Zm0,0" transform="translate(-100.96 -149.609)" fill="#393741"/>
  <path id="Path_4072" data-name="Path 4072" d="M.932,4.184V12.3a1.817,1.817,0,0,0,.483,1.253,1.621,1.621,0,0,0,1.176.509h6.23A1.621,1.621,0,0,0,10,13.549,1.817,1.817,0,0,0,10.48,12.3V4.184a1.258,1.258,0,0,0-.323-2.473H8.472V1.3A1.293,1.293,0,0,0,7.168,0H4.244a1.293,1.293,0,0,0-1.3,1.3v.412H1.255A1.258,1.258,0,0,0,.932,4.184ZM8.821,13.4H2.591a1.043,1.043,0,0,1-1-1.1V4.213H9.822V12.3a1.043,1.043,0,0,1-1,1.1ZM3.6,1.3A.634.634,0,0,1,4.244.657H7.168a.634.634,0,0,1,.645.642v.412H3.6ZM1.255,2.369h8.9a.593.593,0,1,1,0,1.185h-8.9a.593.593,0,1,1,0-1.185Zm0,0" transform="translate(0.003 0.002)" fill="#393741"/>
  <path id="Path_4073" data-name="Path 4073" d="M163.727,154.7a.329.329,0,0,0-.329.329v6.223a.329.329,0,1,0,.659,0v-6.223A.329.329,0,0,0,163.727,154.7Zm0,0" transform="translate(-158.018 -149.609)" fill="#393741"/>
</svg>
