<svg xmlns="http://www.w3.org/2000/svg" width="20.658" height="30.381" viewBox="0 0 20.658 30.381">
  <g id="father" transform="translate(-0.5 -0.001)">
    <path id="Path_408" data-name="Path 408" d="M114.9,201.216a.451.451,0,0,0,.451-.451v-1.758a.451.451,0,1,0-.9,0v1.758A.451.451,0,0,0,114.9,201.216Zm0,0" transform="translate(-107.192 -186.773)" fill="#393741"/>
    <path id="Path_409" data-name="Path 409" d="M219.916,201.216a.451.451,0,0,0,.451-.451v-1.758a.451.451,0,1,0-.9,0v1.758A.451.451,0,0,0,219.916,201.216Zm0,0" transform="translate(-205.972 -186.773)" fill="#393741"/>
    <path id="Path_410" data-name="Path 410" d="M93.781,254.307a3.137,3.137,0,0,0,2.685-1.517,3.138,3.138,0,0,0,2.685,1.517h1.79a.451.451,0,0,0,.451-.451,3.14,3.14,0,0,0-3.136-3.136h-3.58a3.14,3.14,0,0,0-3.136,3.136.451.451,0,0,0,.451.451Zm4.475-2.685a2.238,2.238,0,0,1,2.188,1.783H99.151a2.238,2.238,0,0,1-2.188-1.783Zm-3.58,0h1.293a2.238,2.238,0,0,1-2.188,1.783H92.488A2.238,2.238,0,0,1,94.676,251.621Zm0,0" transform="translate(-85.637 -235.841)" fill="#393741"/>
    <path id="Path_411" data-name="Path 411" d="M9.1,392.145a.451.451,0,0,0-.423.3,6,6,0,0,0-.42,2.216v4.149a.451.451,0,1,0,.9,0v-4.149a5.112,5.112,0,0,1,.36-1.894.451.451,0,0,0,.032-.167h0a.451.451,0,0,0-.451-.451Zm0,0" transform="translate(-7.294 -368.875)" fill="#393741"/>
    <path id="Path_412" data-name="Path 412" d="M16.538,20.038a7.624,7.624,0,0,0,1.578-2.853c.081.007.164.011.247.011a2.793,2.793,0,0,0,1.466-5.172,12.685,12.685,0,0,0-.64-7.3.451.451,0,1,0-.82.377,11.649,11.649,0,0,1,.6,6.571,2.8,2.8,0,0,0-.607-.067c-.034,0-.068,0-.1,0L16.47,7.769a.451.451,0,0,0-.578-.228,13.433,13.433,0,0,1-10.127,0,.451.451,0,0,0-.578.228L3.4,11.61c-.034,0-.068,0-.1,0a2.8,2.8,0,0,0-.606.067c-.522-3.522,0-6.246,1.564-8.1C6.281,1.163,9.527.9,10.829.9c1.327,0,4.632.269,6.653,2.763a.451.451,0,0,0,.7-.568C15.917.3,12.285,0,10.829,0A11.42,11.42,0,0,0,7.082.619a8.008,8.008,0,0,0-3.52,2.373c-1.768,2.1-2.35,5.138-1.734,9.032A2.794,2.794,0,0,0,3.295,17.2c.083,0,.165,0,.246-.011a7.6,7.6,0,0,0,1.582,2.853,6.064,6.064,0,0,0-2.737,1.844.451.451,0,1,0,.689.582,5.154,5.154,0,0,1,2.784-1.7,7.624,7.624,0,0,0,1.234.871l.4,3.346a.451.451,0,0,0,.76.273l2.128-2.034V29.93a.451.451,0,1,0,.9,0V23.225l2.128,2.034a.451.451,0,0,0,.76-.273l.4-3.342A7.58,7.58,0,0,0,15.8,20.77a5.136,5.136,0,0,1,3.993,5.011V29.93a.451.451,0,1,0,.9,0V25.782a6.04,6.04,0,0,0-4.159-5.744Zm1.825-3.744h-.039a7.6,7.6,0,0,0,.108-1.272v-.678a.523.523,0,0,1,.464.31.451.451,0,0,0,.828-.36,1.406,1.406,0,0,0-1.292-.851v-.93a1.892,1.892,0,0,1-.068,3.782Zm-15.069,0a1.892,1.892,0,0,1-.069-3.782v.926a1.422,1.422,0,0,0-1.292.855.451.451,0,1,0,.827.36.517.517,0,0,1,.465-.309v.677a7.6,7.6,0,0,0,.107,1.273H3.295Zm.834-4.118,1.7-3.643a14.321,14.321,0,0,0,10,0l1.7,3.643V15.02a6.7,6.7,0,0,1-6.511,6.7H11c-.064,0-.127,0-.192,0a6.707,6.707,0,0,1-6.681-6.7ZM8.056,22.1a7.522,7.522,0,0,0,1.721.45l-1.5,1.432Zm5.321,1.882-1.5-1.433c.132-.018.263-.039.393-.064A7.571,7.571,0,0,0,13.6,22.1Zm0,0" transform="translate(0 0)" fill="#393741"/>
    <path id="Path_413" data-name="Path 413" d="M190.466,423.563a.451.451,0,1,0,.176.522A.455.455,0,0,0,190.466,423.563Zm0,0" transform="translate(-178.035 -398.358)" fill="#393741"/>
    <path id="Path_414" data-name="Path 414" d="M265.51,452.2a.451.451,0,0,0-.451.451V455.3a.451.451,0,0,0,.9,0v-2.646A.451.451,0,0,0,265.51,452.2Zm0,0" transform="translate(-248.86 -425.37)" fill="#393741"/>
    <path id="Path_415" data-name="Path 415" d="M69.307,452.2a.451.451,0,0,0-.451.451V455.3a.451.451,0,0,0,.9,0v-2.646A.451.451,0,0,0,69.307,452.2Zm0,0" transform="translate(-64.299 -425.37)" fill="#393741"/>
  </g>
</svg>
