<svg xmlns="http://www.w3.org/2000/svg" width="17.636" height="14.601" viewBox="0 0 17.636 14.601">
  <g id="Group_1631" data-name="Group 1631" transform="translate(0 -35.514)">
    <g id="Group_1630" data-name="Group 1630" transform="translate(0 35.514)">
      <path id="Path_4065" data-name="Path 4065" d="M12.635,35.514h0a4.956,4.956,0,0,0-3.817,1.764A4.889,4.889,0,0,0,5,35.514a5,5,0,0,0-5,5c0,4.733,8.26,9.354,8.595,9.532a.4.4,0,0,0,.446,0c.335-.179,8.595-4.733,8.595-9.532A5,5,0,0,0,12.635,35.514ZM8.818,49.154C7.523,48.4.893,44.355.893,40.515A4.108,4.108,0,0,1,5,36.407,4.018,4.018,0,0,1,8.438,38.26a.469.469,0,0,0,.759,0,4.108,4.108,0,0,1,7.545,2.255C16.743,44.4,10.113,48.417,8.818,49.154Z" transform="translate(0 -35.514)" fill="#393741"/>
    </g>
  </g>
</svg>
