<svg xmlns="http://www.w3.org/2000/svg" width="32.512" height="39.682" viewBox="0 0 32.512 39.682">
  <g id="female-worker" transform="translate(-72.69 0.512)">
    <g id="Group_286" data-name="Group 286" transform="translate(73.19)">
      <path id="Path_147" data-name="Path 147" d="M104.643,518.383q-.036-.413-.1-.823s-.16-.887-.19-1.022a5.877,5.877,0,0,0-2.631-3.587,7.817,7.817,0,0,0-.755-.445c-.339-.178-5.459-1.861-5.592-1.9a4.047,4.047,0,0,1,.06.579,4.977,4.977,0,0,1,1.86,5.689,6.346,6.346,0,0,0-3.048-2.029c-1.466,2.555-3.961,5.79-5.305,6.639-1.344-.849-3.839-4.083-5.305-6.639a6.347,6.347,0,0,0-3.048,2.029,4.977,4.977,0,0,1,1.86-5.689,4.053,4.053,0,0,1,.06-.579c-.133.042-5.253,1.724-5.592,1.9a7.836,7.836,0,0,0-.755.445,5.877,5.877,0,0,0-2.631,3.587c-.031.135-.19,1.022-.19,1.022q-.06.41-.1.823c0,.011-.058,1.443-.058,1.451s.015.671.023.831a3.565,3.565,0,0,0,.882,2.406,3.91,3.91,0,0,0,3.011,1.237q5.92,0,11.84,0t11.84,0a3.91,3.91,0,0,0,3.011-1.237,3.564,3.564,0,0,0,.882-2.406c.008-.16.023-.831.023-.831S104.645,518.395,104.643,518.383Z" transform="translate(-73.19 -485.639)" fill="none" stroke="#393741" stroke-width="1"/>
      <path id="Path_148" data-name="Path 148" d="M179.527,16.652a4.628,4.628,0,0,1,.2,1.255,2.57,2.57,0,0,1-.032.389,16.163,16.163,0,0,1-1.026,1.848c1.39,1.5,3.231,1.846,5.047,2.229.537.113,1.084.181,1.666.256l.567.105-.922,2.7A7.931,7.931,0,0,0,188.8,31.76h.024a7.931,7.931,0,0,0,3.777-6.329l-.922-2.7.567-.105c.582-.075,1.129-.143,1.666-.256,1.816-.383,3.656-.73,5.047-2.229a16.176,16.176,0,0,1-1.026-1.848,2.559,2.559,0,0,1-.032-.389,4.628,4.628,0,0,1,.2-1.255c.117-.421.251-.84.379-1.261A10.924,10.924,0,0,0,188.826,0H188.8a10.924,10.924,0,0,0-9.653,15.391C179.277,15.812,179.411,16.231,179.527,16.652Z" transform="translate(-173.058)" fill="none" stroke="#393741" stroke-width="1"/>
    </g>
  </g>
</svg>
