<svg xmlns="http://www.w3.org/2000/svg" width="26.038" height="26.038" viewBox="0 0 26.038 26.038">
  <g id="rings" transform="translate(-1 -1)">
    <path id="Path_404" data-name="Path 404" d="M20.649,5.72l2.013-1.438a.42.42,0,0,0,.176-.342V1.42a.42.42,0,0,0-.42-.42h-5.88a.42.42,0,0,0-.42.42V3.94a.42.42,0,0,0,.176.342L18.308,5.72a7.561,7.561,0,0,0-6.366,7A7.56,7.56,0,1,0,16.1,19.93,7.552,7.552,0,1,0,20.649,5.72Zm-2.01-3.04V1.84h1.68v.84ZM19.9,5.224V3.52H22v.2ZM22,2.68h-.84V1.84H22Zm-4.2-.84v.84h-.84V1.84Zm-.84,1.68h2.1v1.7l-2.1-1.5ZM13.6,19.479a5.04,5.04,0,1,1-5.04-5.04A5.045,5.045,0,0,1,13.6,19.479Zm1.68,0a6.728,6.728,0,1,1-3.335-5.8,7.5,7.5,0,0,0,.152,1.116,5.872,5.872,0,1,0,2.342,4.685,5.916,5.916,0,0,0-.05-.726,7.567,7.567,0,0,0,.889.708C15.279,19.467,15.279,19.472,15.279,19.479Zm4.2.42a6.72,6.72,0,1,1,6.72-6.72A6.727,6.727,0,0,1,19.479,19.9Z" transform="translate(0 0)" fill="#393741"/>
    <path id="Path_405" data-name="Path 405" d="M36.88,16a5.88,5.88,0,1,0,5.88,5.88A5.886,5.886,0,0,0,36.88,16Zm0,10.919a5.04,5.04,0,1,1,5.04-5.04A5.045,5.045,0,0,1,36.88,26.919Z" transform="translate(-17.401 -8.7)" fill="#393741"/>
    <path id="Path_406" data-name="Path 406" d="M7.883,9.462l3.463,2.994a.419.419,0,0,0,.549,0l3.462-2.994a2.482,2.482,0,0,0,.085-3.721,2.791,2.791,0,0,0-3.822.029A2.79,2.79,0,0,0,7.8,5.741a2.482,2.482,0,0,0,.084,3.721Zm.491-3.109a1.926,1.926,0,0,1,1.32-.514c.037,0,.074,0,.111,0a1.9,1.9,0,0,1,1.344.653l.151.178a.434.434,0,0,0,.64,0l.151-.178a1.9,1.9,0,0,1,1.344-.653,1.941,1.941,0,0,1,1.43.511,1.642,1.642,0,0,1-.058,2.474L11.62,11.583,8.432,8.827a1.643,1.643,0,0,1-.058-2.474Z" transform="translate(-3.48 -2.319)" fill="#393741"/>
  </g>
</svg>
