<svg xmlns="http://www.w3.org/2000/svg" width="22.994" height="11.126" viewBox="0 0 22.994 11.126">
  <g id="gift-card" transform="translate(-8 -136)">
    <path id="Path_4140" data-name="Path 4140" d="M30.623,136H8.371a.371.371,0,0,0-.371.371v10.384a.371.371,0,0,0,.371.371H30.623a.371.371,0,0,0,.371-.371V136.371A.371.371,0,0,0,30.623,136Zm-11.5.742h.742v2.967h-.742Zm-10.384,0h9.643v2.967h-.371a.371.371,0,0,0-.362.291l-2.165-.433a1.3,1.3,0,0,0-1.493.884H8.742Zm8.9,4.013v1.617l-2.3.46a.556.556,0,0,1-.665-.546V140.84a.555.555,0,0,1,.665-.546Zm-8.9.438h5.192v.742H8.742Zm9.643,5.192H8.742v-3.709h5.252a1.3,1.3,0,0,0,1.493.884l2.165-.433a.371.371,0,0,0,.362.291h.371Zm1.483,0h-.742v-2.967h.742Zm-1.483-3.709v-2.225H20.61v2.225Zm11.868,3.709H20.61v-2.967h.371a.371.371,0,0,0,.362-.291l2.165.433A1.3,1.3,0,0,0,25,142.676h5.252Zm-8.9-4.013v-1.617l2.3-.46a.556.556,0,0,1,.665.546v1.446a.556.556,0,0,1-.665.546Zm8.9-.438H25.06v-.742h5.192Zm0-1.483H25a1.3,1.3,0,0,0-1.493-.884L21.343,140a.371.371,0,0,0-.362-.291H20.61v-2.967h9.643Z" fill="#f2ae2e"/>
    <path id="Path_4141" data-name="Path 4141" d="M376.371,162.967h4.08a.371.371,0,0,0,.371-.371v-2.225a.371.371,0,0,0-.371-.371h-4.08a.371.371,0,0,0-.371.371V162.6A.371.371,0,0,0,376.371,162.967Zm.371-2.225h3.338v1.483h-3.338Z" transform="translate(-350.94 -22.887)" fill="#f2ae2e"/>
    <path id="Path_4142" data-name="Path 4142" d="M35.338,336H32.371a.371.371,0,0,0,0,.742h2.967a.371.371,0,0,0,0-.742Z" transform="translate(-22.887 -190.728)" fill="#f2ae2e"/>
    <path id="Path_4143" data-name="Path 4143" d="M32.371,312.742h1.113a.371.371,0,1,0,0-.742H32.371a.371.371,0,0,0,0,.742Z" transform="translate(-22.887 -167.841)" fill="#f2ae2e"/>
  </g>
</svg>
