<svg xmlns="http://www.w3.org/2000/svg" width="15.623" height="14.928" viewBox="0 0 15.623 14.928">
  <g id="gift-box_1_" data-name="gift-box (1)" transform="translate(-90.269 -195.287)">
    <path id="Path_4131" data-name="Path 4131" d="M105.421,198.3H102.49a2.569,2.569,0,0,0,.039-.632,2.541,2.541,0,0,0-4.448-1.513,2.541,2.541,0,0,0-4.448,1.513,2.568,2.568,0,0,0,.039.632H90.74a.471.471,0,0,0-.471.471v2.468a.471.471,0,0,0,.471.471h.62v8.033a.471.471,0,0,0,.471.471h12.5a.471.471,0,0,0,.471-.471V201.71h.62a.471.471,0,0,0,.471-.471v-2.468A.471.471,0,0,0,105.421,198.3Zm-10.374,2.468v-1.525h6.067v1.525Zm-.474-3.041a1.614,1.614,0,0,1,1.512-1.494,1.59,1.59,0,0,1,1.294.553.927.927,0,0,0,.7.323h0a.927.927,0,0,0,.7-.323,1.591,1.591,0,0,1,1.294-.553,1.6,1.6,0,0,1,1.444,2.068H94.64A1.619,1.619,0,0,1,94.573,197.726Zm-3.361,1.516H94.1v1.525H91.212ZM92.3,201.71h3.4v7.562H92.3Zm4.338,7.562V201.71H99.52v7.562Zm7.217,0h-3.4V201.71h3.4Zm1.091-8.5h-2.892v-1.525h2.892Z" transform="translate(0 0)" fill="#393741"/>
  </g>
</svg>
