<svg xmlns="http://www.w3.org/2000/svg" xmlns:xlink="http://www.w3.org/1999/xlink" width="40.047" height="40.047" viewBox="0 0 40.047 40.047">
  <defs>
    <filter id="Path_344" x="10.421" y="8.44" width="29.626" height="28.525" filterUnits="userSpaceOnUse">
      <feOffset dy="3" input="SourceAlpha"/>
      <feGaussianBlur stdDeviation="3" result="blur"/>
      <feFlood flood-opacity="0.161"/>
      <feComposite operator="in" in2="blur"/>
      <feComposite in="SourceGraphic"/>
    </filter>
    <filter id="Path_345" x="1.923" y="0" width="34.376" height="26.634" filterUnits="userSpaceOnUse">
      <feOffset dy="3" input="SourceAlpha"/>
      <feGaussianBlur stdDeviation="3" result="blur-2"/>
      <feFlood flood-opacity="0.161"/>
      <feComposite operator="in" in2="blur-2"/>
      <feComposite in="SourceGraphic"/>
    </filter>
    <filter id="Path_346" x="1.923" y="13.413" width="33.671" height="26.634" filterUnits="userSpaceOnUse">
      <feOffset dy="3" input="SourceAlpha"/>
      <feGaussianBlur stdDeviation="3" result="blur-3"/>
      <feFlood flood-opacity="0.161"/>
      <feComposite operator="in" in2="blur-3"/>
      <feComposite in="SourceGraphic"/>
    </filter>
    <filter id="Path_347" x="0" y="6.04" width="23.261" height="27.967" filterUnits="userSpaceOnUse">
      <feOffset dy="3" input="SourceAlpha"/>
      <feGaussianBlur stdDeviation="3" result="blur-4"/>
      <feFlood flood-opacity="0.161"/>
      <feComposite operator="in" in2="blur-4"/>
      <feComposite in="SourceGraphic"/>
    </filter>
  </defs>
  <g id="google" transform="translate(9 6)">
    <g transform="matrix(1, 0, 0, 1, -9, -6)" filter="url(#Path_344)">
      <path id="Path_344-2" data-name="Path 344" d="M253.626,198.583a11,11,0,0,0-.194-2.059A.646.646,0,0,0,252.8,196H242.646a.646.646,0,0,0-.646.646v3.875a.646.646,0,0,0,.646.646h5.209a5.784,5.784,0,0,1-1.3,1.707l3.651,3.651A10.94,10.94,0,0,0,253.626,198.583Z" transform="translate(-222.58 -181.56)" fill="#f2f2f2"/>
    </g>
    <g transform="matrix(1, 0, 0, 1, -9, -6)" filter="url(#Path_345)">
      <path id="Path_345-2" data-name="Path 345" d="M53.763,5.167a5.755,5.755,0,0,1,3.486,1.164.645.645,0,0,0,.845-.06L60.85,3.515a.646.646,0,0,0-.042-.952A10.969,10.969,0,0,0,44.663,4.842l3.791,3.791A5.815,5.815,0,0,1,53.763,5.167Z" transform="translate(-33.74 6)" fill="#f2f2f2"/>
    </g>
    <g transform="matrix(1, 0, 0, 1, -9, -6)" filter="url(#Path_346)">
      <path id="Path_346-2" data-name="Path 346" d="M53.763,320.134a10.908,10.908,0,0,0,6.571-2.2l-3.719-3.719a5.787,5.787,0,0,1-8.161-2.71l-3.791,3.791A10.978,10.978,0,0,0,53.763,320.134Z" transform="translate(-33.74 -292.09)" fill="#f2f2f2"/>
    </g>
    <g transform="matrix(1, 0, 0, 1, -9, -6)" filter="url(#Path_347)">
      <path id="Path_347-2" data-name="Path 347" d="M5.261,146.185a4.649,4.649,0,0,1,0-1.861l-4.053-4.053a10.88,10.88,0,0,0,0,9.967Z" transform="translate(9 -128.23)" fill="#f2f2f2"/>
    </g>
  </g>
</svg>
