<svg xmlns="http://www.w3.org/2000/svg" width="29.656" height="22.565" viewBox="0 0 29.656 22.565">
  <g id="graduation-cap" transform="translate(0 -41.75)">
    <g id="Group_320" data-name="Group 320" transform="translate(0 41.75)">
      <path id="Path_161" data-name="Path 161" d="M28.671,47.907,16.849,42.132a4.842,4.842,0,0,0-3.771,0L.985,47.907A1.457,1.457,0,0,0,0,49.2c0,.306.136.849.985,1.291l.985.476V56.4A1.665,1.665,0,0,0,.917,57.928a1.686,1.686,0,0,0,1.019,1.529L.408,64.315h4.28L3.159,59.457A1.646,1.646,0,0,0,3.125,56.4V51.542l1.8.883v7.066a.548.548,0,0,0,.1.306,12.337,12.337,0,0,0,9.784,4.518,12.267,12.267,0,0,0,9.75-4.518.548.548,0,0,0,.1-.306V52.459l4.009-1.97a1.457,1.457,0,0,0,.985-1.291A1.519,1.519,0,0,0,28.671,47.907Zm-5.1,11.414a11.36,11.36,0,0,1-8.764,3.941,11.36,11.36,0,0,1-8.764-3.941V52.9l7.032,3.363a4.581,4.581,0,0,0,1.868.374,4.136,4.136,0,0,0,1.9-.408l6.726-3.3Zm4.62-9.784-4.076,2a.39.39,0,0,0-.374.2l-7.372,3.567a3.772,3.772,0,0,1-2.854,0L4.45,50.964l10.429-1.223a.529.529,0,1,0-.1-1.053L2.684,50.115l-1.223-.578a.685.685,0,0,1-.374-.306c0-.034.068-.17.374-.306l12.094-5.809a3.509,3.509,0,0,1,1.393-.272,3.443,3.443,0,0,1,1.427.272L28.2,48.892c.306.136.374.272.374.34A.934.934,0,0,1,28.2,49.538Z" transform="translate(0 -41.75)" fill="#393741"/>
    </g>
  </g>
</svg>
