<svg xmlns="http://www.w3.org/2000/svg" width="70.271" height="38.544" viewBox="0 0 70.271 38.544">
  <g id="Group_15" data-name="Group 15" transform="translate(0)">
    <g id="Ellipse_4" data-name="Ellipse 4" transform="translate(21.199 15.099) rotate(158)" fill="none" stroke="#515a6b" stroke-width="1">
      <ellipse cx="8.142" cy="8.142" rx="8.142" ry="8.142" stroke="none"/>
      <ellipse cx="8.142" cy="8.142" rx="7.642" ry="7.642" fill="none"/>
    </g>
    <g id="Ellipse_5" data-name="Ellipse 5" transform="translate(46.983 35.494) rotate(158)" fill="none" stroke="#515a6b" stroke-width="1">
      <ellipse cx="4.071" cy="4.071" rx="4.071" ry="4.071" stroke="none"/>
      <ellipse cx="4.071" cy="4.071" rx="3.571" ry="3.571" fill="none"/>
    </g>
    <g id="Group_10" data-name="Group 10" transform="translate(71.269 32.111) rotate(158)">
      <g id="Group_12" data-name="Group 12" transform="translate(0 4.401)">
        <line id="Line_5" data-name="Line 5" x1="2.201" fill="none" stroke="#515a6b" stroke-linecap="round" stroke-width="1"/>
        <line id="Line_6" data-name="Line 6" x1="2.201" transform="translate(6.602 0)" fill="none" stroke="#515a6b" stroke-linecap="round" stroke-width="1"/>
      </g>
      <g id="Group_11" data-name="Group 11" transform="translate(4.401 8.803) rotate(-90)">
        <line id="Line_7" data-name="Line 7" x1="2.201" transform="translate(0 0)" fill="none" stroke="#515a6b" stroke-linecap="round" stroke-width="1"/>
        <line id="Line_8" data-name="Line 8" x1="2.201" transform="translate(6.602 0)" fill="none" stroke="#515a6b" stroke-linecap="round" stroke-width="1"/>
      </g>
    </g>
    <g id="heart_2_" data-name="heart (2)" transform="translate(35.022 15.607) rotate(-43)">
      <g id="Group_13" data-name="Group 13" transform="translate(0)">
        <path id="Path_21" data-name="Path 21" d="M10.665,0h0A4.183,4.183,0,0,0,7.443,1.489,4.127,4.127,0,0,0,4.221,0,4.221,4.221,0,0,0,0,4.221c0,3.995,6.972,7.9,7.255,8.046a.339.339,0,0,0,.377,0c.283-.151,7.255-3.995,7.255-8.046A4.221,4.221,0,0,0,10.665,0ZM7.443,11.514C6.35,10.873.754,7.462.754,4.221A3.467,3.467,0,0,1,4.221.754a3.392,3.392,0,0,1,2.9,1.564.4.4,0,0,0,.641,0,3.467,3.467,0,0,1,6.369,1.9C14.133,7.5,8.536,10.892,7.443,11.514Z" fill="#515a6b"/>
      </g>
    </g>
  </g>
</svg>
