<svg xmlns="http://www.w3.org/2000/svg" width="18.982" height="18.982" viewBox="0 0 18.982 18.982">
  <g id="growing-up" transform="translate(-59.42 -19.568)">
    <path id="Path_185" data-name="Path 185" d="M182.856,357.812a9.491,9.491,0,1,0,9.491,9.491A9.5,9.5,0,0,0,182.856,357.812Zm0,17.132A7.641,7.641,0,1,1,190.5,367.3,7.65,7.65,0,0,1,182.856,374.944Z" transform="translate(-113.945 -338.244)" fill="#393741"/>
    <path id="Path_186" data-name="Path 186" d="M229.451,397.551a.925.925,0,0,0-.925.925V401.7l-1.668,1.3A.925.925,0,1,0,228,404.458l2.024-1.579a.925.925,0,0,0,.356-.73v-3.674A.925.925,0,0,0,229.451,397.551Z" transform="translate(-160.54 -373.091)" fill="#393741"/>
  </g>
</svg>
