<svg id="Group_774" data-name="Group 774" xmlns="http://www.w3.org/2000/svg" width="123.448" height="108.32" viewBox="0 0 123.448 108.32">
  <g id="Group_773" data-name="Group 773" transform="translate(0 0)">
    <g id="Group_730" data-name="Group 730" transform="translate(0 19.703)">
      <path id="Path_836" data-name="Path 836" d="M113.309,215.783c5.2-4.351,9.825-3.845,13.073-2.061a12.429,12.429,0,0,1,5.872,13.881c-3.859,16.016-28.962,20.108-28.962,20.108l-.068-.068,10.053-31.976C113.287,215.706,113.3,215.743,113.309,215.783Z" transform="translate(-89.973 -206.595)" fill="#db263b"/>
      <path id="Path_837" data-name="Path 837" d="M64.286,189.224c3.66.408,7.508,2.54,9.272,9L63.505,230.2c-1.184-1.184-17.859-18.225-12.01-33A12.429,12.429,0,0,1,64.286,189.224Z" transform="translate(-50.255 -189.151)" fill="#c11032"/>
    </g>
    <g id="Group_731" data-name="Group 731" transform="translate(69.607 62.185)">
      <path id="Path_838" data-name="Path 838" d="M342.018,377.6c-3.637-3.043-6.871-2.689-9.143-1.442a8.693,8.693,0,0,0-4.107,9.708c2.7,11.2,20.255,14.063,20.255,14.063l.048-.047-7.031-22.363C342.034,377.547,342.026,377.574,342.018,377.6Z" transform="translate(-328.515 -371.175)" fill="#db263b"/>
      <path id="Path_839" data-name="Path 839" d="M389.073,359.027c-2.56.285-5.251,1.776-6.485,6.294l7.031,22.363c.828-.828,12.49-12.746,8.4-23.082A8.693,8.693,0,0,0,389.073,359.027Z" transform="translate(-369.061 -358.977)" fill="#c11032"/>
    </g>
    <g id="Group_732" data-name="Group 732" transform="translate(46.661 27.5)">
      <path id="Path_840" data-name="Path 840" d="M288.524,242.171c4.268-3.57,8.062-3.155,10.727-1.691a10.2,10.2,0,0,1,4.818,11.39c-3.166,13.142-23.765,16.5-23.765,16.5l-.056-.056,8.249-26.238C288.506,242.108,288.515,242.138,288.524,242.171Z" transform="translate(-269.376 -234.631)" fill="#db263b"/>
      <path id="Path_841" data-name="Path 841" d="M248.3,220.378c3,.335,6.161,2.084,7.608,7.385L247.658,254c-.971-.971-14.654-14.955-9.855-27.081A10.2,10.2,0,0,1,248.3,220.378Z" transform="translate(-236.786 -220.318)" fill="#c11032"/>
    </g>
    <g id="Group_733" data-name="Group 733" transform="translate(87.265 25.177)">
      <path id="Path_842" data-name="Path 842" d="M449.328,232.248c4.143-3.466,7.827-3.063,10.414-1.642a9.9,9.9,0,0,1,4.677,11.058c-3.074,12.758-23.071,16.018-23.071,16.018l-.054-.054,8.008-25.472C449.311,232.187,449.32,232.216,449.328,232.248Z" transform="translate(-430.739 -224.929)" fill="#db263b"/>
      <path id="Path_843" data-name="Path 843" d="M410.277,211.091c2.916.325,5.981,2.023,7.386,7.169l-8.008,25.472c-.943-.943-14.226-14.518-9.567-26.291A9.9,9.9,0,0,1,410.277,211.091Z" transform="translate(-399.1 -211.033)" fill="#c11032"/>
    </g>
    <g id="Group_734" data-name="Group 734" transform="translate(16.389 2.956)">
      <path id="Path_844" data-name="Path 844" d="M140.937,138.455c2.656-1.707,4.763-1.2,6.16-.191a5.788,5.788,0,0,1,1.9,6.755c-2.715,7.175-14.551,7.6-14.551,7.6l-.028-.035,6.505-14.188C140.931,138.419,140.934,138.437,140.937,138.455Z" transform="translate(-129.757 -133.55)" fill="#db263b"/>
      <path id="Path_845" data-name="Path 845" d="M123.183,122.354c1.668.4,3.321,1.61,3.76,4.7l-6.505,14.188c-.478-.616-7.19-9.46-3.628-15.946A5.787,5.787,0,0,1,123.183,122.354Z" transform="translate(-115.772 -122.202)" fill="#c11032"/>
    </g>
    <g id="Group_735" data-name="Group 735" transform="translate(100.672 4.382)">
      <path id="Path_846" data-name="Path 846" d="M467.567,137.507a3.028,3.028,0,0,1,3.639-.113,3.42,3.42,0,0,1,1.125,3.991c-1.6,4.239-8.6,4.493-8.6,4.493l-.016-.021,3.844-8.383C467.563,137.486,467.565,137.5,467.567,137.507Z" transform="translate(-460.961 -134.609)" fill="#db263b"/>
      <path id="Path_847" data-name="Path 847" d="M457.077,127.993a2.937,2.937,0,0,1,2.222,2.776l-3.844,8.383c-.282-.364-4.248-5.589-2.144-9.422A3.42,3.42,0,0,1,457.077,127.993Z" transform="translate(-452.698 -127.903)" fill="#c11032"/>
    </g>
    <g id="Group_736" data-name="Group 736" transform="translate(107.463 16.486)">
      <path id="Path_848" data-name="Path 848" d="M503,178.11a3.028,3.028,0,0,1,3.173-1.787,3.42,3.42,0,0,1,2.847,3.015c.543,4.5-5.536,7.966-5.536,7.966l-.024-.011-.479-9.21Z" transform="translate(-497.194 -176.291)" fill="#db263b"/>
      <path id="Path_849" data-name="Path 849" d="M482.377,177.469a2.937,2.937,0,0,1,3.255,1.43l.479,9.21c-.419-.192-6.355-2.984-6.266-7.355A3.419,3.419,0,0,1,482.377,177.469Z" transform="translate(-479.844 -177.105)" fill="#c11032"/>
    </g>
    <g id="Group_737" data-name="Group 737" transform="translate(37.757 10.017)">
      <path id="Path_850" data-name="Path 850" d="M234.534,153.586c1.517-2.236,3.344-2.548,4.783-2.22a4.952,4.952,0,0,1,3.769,4.676c.274,6.559-8.9,10.873-8.9,10.873l-.034-.019.353-13.351Z" transform="translate(-225.91 -151.049)" fill="#db263b"/>
      <path id="Path_851" data-name="Path 851" d="M205.253,150.491c1.447-.244,3.154.152,4.537,2.433l-.353,13.351c-.583-.324-8.836-5.029-8.213-11.33A4.953,4.953,0,0,1,205.253,150.491Z" transform="translate(-201.191 -150.428)" fill="#c11032"/>
    </g>
    <g id="Group_738" data-name="Group 738" transform="translate(61.776 14.864)">
      <path id="Path_852" data-name="Path 852" d="M311.346,181.13a3.16,3.16,0,0,1,3.8.149,3.569,3.569,0,0,1,.879,4.238c-1.981,4.3-9.281,4.047-9.281,4.047l-.016-.023,4.617-8.446C311.344,181.107,311.345,181.118,311.346,181.13Z" transform="translate(-304.345 -177.885)" fill="#db263b"/>
      <path id="Path_853" data-name="Path 853" d="M302.1,169.963a3.065,3.065,0,0,1,2.11,3.053l-4.617,8.446c-.267-.4-4.013-6.131-1.54-9.967A3.569,3.569,0,0,1,302.1,169.963Z" transform="translate(-297.209 -169.805)" fill="#c11032"/>
    </g>
    <g id="Group_739" data-name="Group 739" transform="translate(4.399 9.814)">
      <path id="Path_854" data-name="Path 854" d="M71.46,159.8a2.428,2.428,0,0,0-2.888.428,2.742,2.742,0,0,0-.321,3.31c1.868,3.118,7.423,2.325,7.423,2.325l.01-.019-4.224-6.07C71.459,159.778,71.459,159.787,71.46,159.8Z" transform="translate(-67.842 -157.044)" fill="#db263b"/>
      <path id="Path_855" data-name="Path 855" d="M83.653,149.838a2.355,2.355,0,0,0-1.359,2.506l4.224,6.07c.171-.327,2.559-5.014.354-7.74A2.742,2.742,0,0,0,83.653,149.838Z" transform="translate(-78.676 -149.619)" fill="#c11032"/>
    </g>
    <g id="Group_740" data-name="Group 740" transform="translate(34.962 2.327)">
      <path id="Path_856" data-name="Path 856" d="M193.245,122.806a1.759,1.759,0,0,0-2.042-.549,1.986,1.986,0,0,0-1.168,2.107c.342,2.61,4.262,3.685,4.262,3.685l.012-.01-1.056-5.251Z" transform="translate(-190.017 -121.516)" fill="#db263b"/>
      <path id="Path_857" data-name="Path 857" d="M204.576,119.69a1.705,1.705,0,0,0-1.626,1.273l1.056,5.251c.208-.168,3.146-2.594,2.467-5.041A1.986,1.986,0,0,0,204.576,119.69Z" transform="translate(-199.715 -119.69)" fill="#c11032"/>
    </g>
    <g id="Group_741" data-name="Group 741" transform="translate(58.252 75.63)">
      <path id="Path_858" data-name="Path 858" d="M290.4,414.723a1.129,1.129,0,0,1,1.311-.352,1.275,1.275,0,0,1,.75,1.352c-.22,1.676-2.736,2.366-2.736,2.366l-.008-.006.678-3.372Z" transform="translate(-288.064 -413.894)" fill="#db263b"/>
      <path id="Path_859" data-name="Path 859" d="M284.4,412.722a1.1,1.1,0,0,1,1.044.817l-.678,3.372c-.134-.108-2.02-1.666-1.584-3.237A1.275,1.275,0,0,1,284.4,412.722Z" transform="translate(-283.12 -412.722)" fill="#c11032"/>
    </g>
    <g id="Group_742" data-name="Group 742" transform="translate(62.117 68.391)">
      <path id="Path_860" data-name="Path 860" d="M309.877,386.9a1.755,1.755,0,0,1,2.038-.548,1.982,1.982,0,0,1,1.165,2.1c-.341,2.6-4.253,3.677-4.253,3.677l-.012-.01,1.054-5.24Z" transform="translate(-306.253 -385.607)" fill="#db263b"/>
      <path id="Path_861" data-name="Path 861" d="M300.564,383.785a1.7,1.7,0,0,1,1.622,1.27l-1.054,5.24c-.208-.168-3.14-2.588-2.462-5.03A1.982,1.982,0,0,1,300.564,383.785Z" transform="translate(-298.569 -383.785)" fill="#c11032"/>
    </g>
    <g id="Group_743" data-name="Group 743" transform="translate(58.626 99.036)">
      <path id="Path_862" data-name="Path 862" d="M304.69,507.738a2.582,2.582,0,0,1,2.781-1.38,2.916,2.916,0,0,1,2.289,2.694c.261,3.855-5.069,6.534-5.069,6.534l-.02-.01,0-7.862Z" transform="translate(-299.654 -506.303)" fill="#db263b"/>
      <path id="Path_863" data-name="Path 863" d="M286.929,506.338a2.5,2.5,0,0,1,2.707,1.363l0,7.862c-.348-.182-5.277-2.824-5.006-6.542A2.915,2.915,0,0,1,286.929,506.338Z" transform="translate(-284.616 -506.289)" fill="#c11032"/>
    </g>
    <g id="Group_744" data-name="Group 744" transform="translate(100.287 67.651)">
      <path id="Path_864" data-name="Path 864" d="M458.433,382.829a1.129,1.129,0,0,1,1.311-.352,1.275,1.275,0,0,1,.75,1.353c-.22,1.676-2.736,2.366-2.736,2.366l-.008-.006.678-3.372Z" transform="translate(-456.101 -382)" fill="#db263b"/>
      <path id="Path_865" data-name="Path 865" d="M452.441,380.827a1.1,1.1,0,0,1,1.044.817l-.678,3.372c-.134-.108-2.02-1.665-1.584-3.236A1.275,1.275,0,0,1,452.441,380.827Z" transform="translate(-451.157 -380.827)" fill="#db2d54"/>
    </g>
    <g id="Group_745" data-name="Group 745" transform="translate(94.145 58.133)">
      <path id="Path_866" data-name="Path 866" d="M434.86,343.583a1.129,1.129,0,0,1,1.091-.808,1.275,1.275,0,0,1,1.193.984c.409,1.64-1.681,3.2-1.681,3.2l-.009,0-.6-3.386Z" transform="translate(-432.789 -342.775)" fill="#db263b"/>
      <path id="Path_867" data-name="Path 867" d="M427.4,344.233a1.1,1.1,0,0,1,1.271.379l.6,3.386c-.164-.052-2.49-.81-2.659-2.432A1.276,1.276,0,0,1,427.4,344.233Z" transform="translate(-426.604 -343.812)" fill="#c11032"/>
    </g>
    <g id="Group_746" data-name="Group 746" transform="translate(64.676 59.16)">
      <path id="Path_868" data-name="Path 868" d="M320.551,349.382a2.079,2.079,0,0,1,1.072-2.259,2.348,2.348,0,0,1,2.791.564c2.087,2.309.049,6.661.049,6.661l-.018,0-3.916-4.977Z" transform="translate(-317.595 -346.883)" fill="#db263b"/>
      <path id="Path_869" data-name="Path 869" d="M309.343,356.8a2.017,2.017,0,0,1,2.392-.487l3.916,4.977c-.311.058-4.747.843-6.428-1.645A2.349,2.349,0,0,1,309.343,356.8Z" transform="translate(-308.801 -353.821)" fill="#c11032"/>
    </g>
    <g id="Group_747" data-name="Group 747" transform="translate(67.391 85.129)">
      <path id="Path_870" data-name="Path 870" d="M326.93,452.695a1.129,1.129,0,0,1,1.311-.352,1.275,1.275,0,0,1,.75,1.353c-.22,1.676-2.736,2.366-2.736,2.366l-.008-.006.678-3.372Z" transform="translate(-324.598 -451.866)" fill="#db263b"/>
      <path id="Path_871" data-name="Path 871" d="M320.937,450.693a1.1,1.1,0,0,1,1.044.818l-.678,3.372c-.134-.108-2.02-1.665-1.584-3.236A1.276,1.276,0,0,1,320.937,450.693Z" transform="translate(-319.653 -450.693)" fill="#c11032"/>
    </g>
    <g id="Group_748" data-name="Group 748" transform="translate(81.78 91.889)">
      <path id="Path_872" data-name="Path 872" d="M381.994,481.986a1.129,1.129,0,0,1,1.354.1,1.275,1.275,0,0,1,.262,1.524c-.76,1.51-3.364,1.331-3.364,1.331l-.005-.008,1.752-2.959Z" transform="translate(-379.474 -480.788)" fill="#db263b"/>
      <path id="Path_873" data-name="Path 873" d="M378.978,477.787a1.1,1.1,0,0,1,.716,1.116l-1.752,2.959c-.091-.146-1.358-2.239-.428-3.578A1.275,1.275,0,0,1,378.978,477.787Z" transform="translate(-377.175 -477.717)" fill="#c11032"/>
    </g>
    <g id="Group_749" data-name="Group 749" transform="translate(109.613 54.614)">
      <path id="Path_874" data-name="Path 874" d="M495.715,330.709a1.129,1.129,0,0,1,1.312-.352,1.275,1.275,0,0,1,.75,1.353c-.22,1.676-2.736,2.366-2.736,2.366l-.008-.006.678-3.372Z" transform="translate(-493.383 -329.88)" fill="#db263b"/>
      <path id="Path_875" data-name="Path 875" d="M489.722,328.708a1.1,1.1,0,0,1,1.044.818l-.678,3.372c-.134-.108-2.02-1.665-1.584-3.237A1.275,1.275,0,0,1,489.722,328.708Z" transform="translate(-488.439 -328.708)" fill="#c11032"/>
    </g>
    <g id="Group_750" data-name="Group 750" transform="translate(43.246 28.398)">
      <path id="Path_876" data-name="Path 876" d="M230.411,225.911a1.129,1.129,0,0,1,1.312-.352,1.275,1.275,0,0,1,.75,1.352c-.22,1.676-2.736,2.366-2.736,2.366l-.008-.006.678-3.372Z" transform="translate(-228.079 -225.082)" fill="#db263b"/>
      <path id="Path_877" data-name="Path 877" d="M224.418,223.91a1.1,1.1,0,0,1,1.044.817l-.678,3.372c-.134-.108-2.02-1.665-1.584-3.237A1.275,1.275,0,0,1,224.418,223.91Z" transform="translate(-223.135 -223.91)" fill="#c11032"/>
    </g>
    <g id="Group_751" data-name="Group 751" transform="translate(7.711 60.259)">
      <path id="Path_878" data-name="Path 878" d="M87.379,352.653a1.129,1.129,0,0,1,.559-1.237,1.275,1.275,0,0,1,1.521.278c1.156,1.233.093,3.616.093,3.616l-.01,0-2.176-2.663Z" transform="translate(-85.794 -351.275)" fill="#db263b"/>
      <path id="Path_879" data-name="Path 879" d="M81.36,356.8a1.1,1.1,0,0,1,1.294-.288l2.176,2.663c-.168.035-2.569.505-3.507-.829A1.275,1.275,0,0,1,81.36,356.8Z" transform="translate(-81.08 -355.135)" fill="#c11032"/>
    </g>
    <g id="Group_752" data-name="Group 752" transform="translate(32.759 19.895)">
      <path id="Path_880" data-name="Path 880" d="M188.489,191.921a1.129,1.129,0,0,1,1.312-.352,1.275,1.275,0,0,1,.75,1.353c-.22,1.676-2.736,2.366-2.736,2.366l-.008-.006.678-3.372Z" transform="translate(-186.157 -191.092)" fill="#db263b"/>
      <path id="Path_881" data-name="Path 881" d="M182.5,189.919a1.1,1.1,0,0,1,1.044.817l-.678,3.372c-.134-.108-2.02-1.665-1.584-3.236A1.275,1.275,0,0,1,182.5,189.919Z" transform="translate(-181.213 -189.919)" fill="#c11032"/>
    </g>
    <g id="Group_753" data-name="Group 753" transform="translate(44.459 5.589)">
      <path id="Path_882" data-name="Path 882" d="M235.258,134.732a1.129,1.129,0,0,1,1.311-.352,1.276,1.276,0,0,1,.75,1.353c-.22,1.676-2.736,2.366-2.736,2.366l-.007-.006.678-3.372Z" transform="translate(-232.926 -133.903)" fill="#db263b"/>
      <path id="Path_883" data-name="Path 883" d="M229.265,132.73a1.1,1.1,0,0,1,1.044.818l-.678,3.372c-.134-.108-2.02-1.665-1.584-3.236A1.276,1.276,0,0,1,229.265,132.73Z" transform="translate(-227.981 -132.73)" fill="#c11032"/>
    </g>
    <g id="Group_754" data-name="Group 754" transform="translate(27.724 0.672)">
      <path id="Path_884" data-name="Path 884" d="M166.189,117.069a1.129,1.129,0,0,1,1.357.043,1.275,1.275,0,0,1,.326,1.512c-.7,1.54-3.3,1.472-3.3,1.472l-.006-.008,1.626-3.031Z" transform="translate(-163.692 -115.918)" fill="#db263b"/>
      <path id="Path_885" data-name="Path 885" d="M162.817,113.128a1.1,1.1,0,0,1,.762,1.085l-1.626,3.031c-.1-.142-1.451-2.179-.579-3.557A1.276,1.276,0,0,1,162.817,113.128Z" transform="translate(-161.083 -113.075)" fill="#c11032"/>
    </g>
    <g id="Group_755" data-name="Group 755" transform="translate(70.974 26.342)">
      <path id="Path_886" data-name="Path 886" d="M341.252,217.691a1.129,1.129,0,0,1,1.312-.352,1.276,1.276,0,0,1,.75,1.353c-.22,1.676-2.736,2.366-2.736,2.366l-.008-.006.678-3.372Z" transform="translate(-338.92 -216.862)" fill="#db263b"/>
      <path id="Path_887" data-name="Path 887" d="M335.259,215.689a1.1,1.1,0,0,1,1.044.818l-.678,3.372c-.134-.108-2.02-1.665-1.584-3.236A1.275,1.275,0,0,1,335.259,215.689Z" transform="translate(-333.976 -215.689)" fill="#c11032"/>
    </g>
    <g id="Group_756" data-name="Group 756" transform="translate(55.533 20.57)">
      <path id="Path_888" data-name="Path 888" d="M281.174,193.769a1.312,1.312,0,0,1,1.094-1.137,1.483,1.483,0,0,1,1.558.9c.786,1.8-1.306,4-1.306,4h-.012l-1.347-3.765Z" transform="translate(-278.934 -192.616)" fill="#db263b"/>
      <path id="Path_889" data-name="Path 889" d="M272.951,195.913a1.273,1.273,0,0,1,1.53.188l1.347,3.765c-.2-.028-3.011-.447-3.519-2.273A1.483,1.483,0,0,1,272.951,195.913Z" transform="translate(-272.252 -194.957)" fill="#c11032"/>
    </g>
    <g id="Group_757" data-name="Group 757" transform="translate(66.147 9.715)">
      <path id="Path_890" data-name="Path 890" d="M321.958,151.223a1.129,1.129,0,0,1,1.312-.352,1.276,1.276,0,0,1,.75,1.353c-.22,1.676-2.736,2.366-2.736,2.366l-.008-.006.678-3.372Z" transform="translate(-319.626 -150.394)" fill="#db263b"/>
      <path id="Path_891" data-name="Path 891" d="M315.965,149.221a1.1,1.1,0,0,1,1.044.818l-.678,3.372c-.134-.108-2.02-1.665-1.584-3.236A1.275,1.275,0,0,1,315.965,149.221Z" transform="translate(-314.682 -149.221)" fill="#c11032"/>
    </g>
    <g id="Group_758" data-name="Group 758" transform="translate(34.056 88.138)">
      <path id="Path_892" data-name="Path 892" d="M193.67,464.726a1.129,1.129,0,0,1,1.312-.352,1.275,1.275,0,0,1,.75,1.353c-.22,1.676-2.736,2.366-2.736,2.366l-.008-.006.678-3.372Z" transform="translate(-191.338 -463.897)" fill="#db263b"/>
      <path id="Path_893" data-name="Path 893" d="M187.677,462.724a1.1,1.1,0,0,1,1.044.818l-.678,3.372c-.134-.108-2.02-1.665-1.584-3.237A1.275,1.275,0,0,1,187.677,462.724Z" transform="translate(-186.394 -462.724)" fill="#c11032"/>
    </g>
    <g id="Group_759" data-name="Group 759" transform="translate(81.653 46.756)">
      <path id="Path_894" data-name="Path 894" d="M379.9,300.414a1.759,1.759,0,0,0-2.042-.549,1.986,1.986,0,0,0-1.168,2.107c.342,2.61,4.262,3.686,4.262,3.686l.012-.01L379.9,300.4Z" transform="translate(-376.667 -299.122)" fill="#db263b"/>
      <path id="Path_895" data-name="Path 895" d="M391.227,297.3a1.706,1.706,0,0,0-1.626,1.273l1.056,5.251c.208-.168,3.146-2.594,2.467-5.041A1.987,1.987,0,0,0,391.227,297.3Z" transform="translate(-386.366 -297.296)" fill="#c11032"/>
    </g>
    <g id="Group_760" data-name="Group 760" transform="translate(86.735 54.029)">
      <path id="Path_896" data-name="Path 896" d="M400.21,329.487a1.759,1.759,0,0,0-2.042-.549A1.986,1.986,0,0,0,397,331.044c.342,2.61,4.262,3.686,4.262,3.686l.012-.009-1.056-5.251Z" transform="translate(-396.982 -328.195)" fill="#db263b"/>
      <path id="Path_897" data-name="Path 897" d="M411.542,326.369a1.706,1.706,0,0,0-1.626,1.273l1.056,5.251c.208-.168,3.146-2.594,2.467-5.041A1.987,1.987,0,0,0,411.542,326.369Z" transform="translate(-406.681 -326.369)" fill="#c11032"/>
    </g>
    <g id="Group_761" data-name="Group 761" transform="translate(100.408 57.715)">
      <path id="Path_898" data-name="Path 898" d="M457.158,343.66a2.476,2.476,0,0,0-1.71-2.438,2.8,2.8,0,0,0-3.164,1.22c-1.988,3.128,1.273,7.83,1.273,7.83h.022l3.6-6.625Z" transform="translate(-451.641 -341.104)" fill="#db263b"/>
      <path id="Path_899" data-name="Path 899" d="M465.9,350.066a2.4,2.4,0,0,0-2.906-.094l-3.6,6.625c.376.007,5.741.041,7.218-3.215A2.8,2.8,0,0,0,465.9,350.066Z" transform="translate(-457.449 -347.429)" fill="#c11032"/>
    </g>
    <g id="Group_762" data-name="Group 762" transform="translate(76.944 54.601)">
      <path id="Path_900" data-name="Path 900" d="M363.359,331.215a2.476,2.476,0,0,0-1.71-2.438,2.8,2.8,0,0,0-3.164,1.22c-1.988,3.128,1.273,7.83,1.273,7.83h.022l3.6-6.625Z" transform="translate(-357.842 -328.659)" fill="#db263b"/>
      <path id="Path_901" data-name="Path 901" d="M372.1,337.621a2.4,2.4,0,0,0-2.906-.094l-3.6,6.625c.377.007,5.741.041,7.218-3.215A2.8,2.8,0,0,0,372.1,337.621Z" transform="translate(-363.65 -334.983)" fill="#c11032"/>
    </g>
    <g id="Group_763" data-name="Group 763" transform="translate(116.587 25.177)">
      <path id="Path_902" data-name="Path 902" d="M519.548,214.151a1.759,1.759,0,0,0-2.042-.549,1.986,1.986,0,0,0-1.168,2.107c.342,2.61,4.262,3.686,4.262,3.686l.012-.01-1.056-5.251Z" transform="translate(-516.32 -212.86)" fill="#db263b"/>
      <path id="Path_903" data-name="Path 903" d="M530.879,211.034a1.705,1.705,0,0,0-1.626,1.273l1.056,5.251c.208-.168,3.146-2.594,2.467-5.041A1.986,1.986,0,0,0,530.879,211.034Z" transform="translate(-526.018 -211.034)" fill="#c11032"/>
    </g>
    <g id="Group_764" data-name="Group 764" transform="translate(77.005 25.979)">
      <path id="Path_904" data-name="Path 904" d="M361.976,223.015a2.449,2.449,0,0,0-2.943.116,2.767,2.767,0,0,0-.681,3.285c1.535,3.33,7.193,3.137,7.193,3.137l.012-.018-3.578-6.546C361.978,223,361.977,223.006,361.976,223.015Z" transform="translate(-358.085 -220.501)" fill="#db263b"/>
      <path id="Path_905" data-name="Path 905" d="M375.284,214.361a2.376,2.376,0,0,0-1.635,2.366l3.578,6.546c.207-.31,3.11-4.751,1.194-7.725A2.766,2.766,0,0,0,375.284,214.361Z" transform="translate(-369.756 -214.239)" fill="#c11032"/>
    </g>
    <g id="Group_765" data-name="Group 765" transform="translate(50.57 63.437)">
      <path id="Path_906" data-name="Path 906" d="M257.186,365.8a2.449,2.449,0,0,0-2.676-1.23,2.766,2.766,0,0,0-2.1,2.62c-.139,3.664,4.992,6.055,4.992,6.055l.019-.01-.225-7.457Z" transform="translate(-252.412 -364.374)" fill="#db263b"/>
      <path id="Path_907" data-name="Path 907" d="M274.082,364.013a2.376,2.376,0,0,0-2.529,1.369l.225,7.457c.325-.182,4.925-2.827,4.564-6.346A2.767,2.767,0,0,0,274.082,364.013Z" transform="translate(-266.765 -363.979)" fill="#c11032"/>
    </g>
    <g id="Group_766" data-name="Group 766" transform="translate(16.256 62.75)">
      <path id="Path_908" data-name="Path 908" d="M120.015,363.054a2.449,2.449,0,0,0-2.676-1.23,2.766,2.766,0,0,0-2.1,2.62c-.139,3.664,4.992,6.055,4.992,6.055l.019-.011-.225-7.457Z" transform="translate(-115.241 -361.629)" fill="#db263b"/>
      <path id="Path_909" data-name="Path 909" d="M136.911,361.268a2.376,2.376,0,0,0-2.529,1.369l.225,7.457c.325-.182,4.925-2.827,4.564-6.346A2.767,2.767,0,0,0,136.911,361.268Z" transform="translate(-129.594 -361.234)" fill="#c11032"/>
    </g>
    <g id="Group_767" data-name="Group 767" transform="translate(99.479 18.182)">
      <path id="Path_910" data-name="Path 910" d="M450.109,187.992a1.373,1.373,0,0,0-1.65.065,1.55,1.55,0,0,0-.382,1.841c.861,1.867,4.033,1.759,4.033,1.759l.007-.01-2.006-3.67Z" transform="translate(-447.927 -186.582)" fill="#db263b"/>
      <path id="Path_911" data-name="Path 911" d="M457.571,183.14a1.332,1.332,0,0,0-.917,1.326l2.006,3.67c.116-.174,1.744-2.664.669-4.331A1.551,1.551,0,0,0,457.571,183.14Z" transform="translate(-454.471 -183.071)" fill="#c11032"/>
    </g>
    <g id="Group_768" data-name="Group 768" transform="translate(28.541 52.151)">
      <path id="Path_912" data-name="Path 912" d="M201.563,323.527c.811-3.243,2.8-4.384,4.613-4.615a6.128,6.128,0,0,1,6.369,3.83c3.109,7.5-5.71,16.419-5.71,16.419l-.047-.007-5.271-15.664Z" transform="translate(-192.219 -318.865)" fill="#db263b"/>
      <path id="Path_913" data-name="Path 913" d="M167.339,331.745c1.578-.9,3.73-1.166,6.308.9l5.271,15.664c-.815-.129-12.407-2.083-14.364-9.671A6.128,6.128,0,0,1,167.339,331.745Z" transform="translate(-164.349 -328.016)" fill="#c11032"/>
    </g>
    <g id="Group_769" data-name="Group 769" transform="translate(22.653 71.606)">
      <path id="Path_914" data-name="Path 914" d="M174.282,399.637c1.188-2.5,2.989-3.1,4.5-2.989a5.071,5.071,0,0,1,4.54,4.149c1.295,6.6-7.318,12.385-7.318,12.385l-.037-.013L174.25,399.6Z" transform="translate(-165.886 -396.636)" fill="#db263b"/>
      <path id="Path_915" data-name="Path 915" d="M144.208,400.777c1.427-.472,3.217-.336,4.97,1.76l1.713,13.569c-.64-.238-9.724-3.72-10.07-10.195A5.071,5.071,0,0,1,144.208,400.777Z" transform="translate(-140.814 -399.573)" fill="#c11032"/>
    </g>
    <g id="Group_770" data-name="Group 770" transform="translate(67.537 90.432)">
      <path id="Path_916" data-name="Path 916" d="M342.8,473.915a3.027,3.027,0,0,1,3.032-2.015,3.419,3.419,0,0,1,3.061,2.8c.873,4.447-4.934,8.35-4.934,8.35l-.025-.009-1.155-9.148Z" transform="translate(-337.141 -471.892)" fill="#db263b"/>
      <path id="Path_917" data-name="Path 917" d="M322.527,474.684a2.936,2.936,0,0,1,3.351,1.186l1.155,9.148c-.432-.16-6.555-2.508-6.789-6.873A3.419,3.419,0,0,1,322.527,474.684Z" transform="translate(-320.238 -473.872)" fill="#c11032"/>
    </g>
    <g id="Group_771" data-name="Group 771" transform="translate(39.957 76.933)">
      <path id="Path_918" data-name="Path 918" d="M224.812,424.706c-.367-4.1-2.57-5.865-4.729-6.492a7.544,7.544,0,0,0-8.475,3.442c-5.212,8.532,3.812,21.056,3.812,21.056h.058l9.4-18.042Z" transform="translate(-209.986 -417.931)" fill="#db263b"/>
      <path id="Path_919" data-name="Path 919" d="M249.178,441.26c-1.747-1.395-4.314-2.13-7.841-.112l-9.4,18.042c1.016,0,15.485-.166,19.312-9.021A7.544,7.544,0,0,0,249.178,441.26Z" transform="translate(-226.447 -434.408)" fill="#c11032"/>
    </g>
    <g id="Group_772" data-name="Group 772" transform="translate(71.496)">
      <path id="Path_920" data-name="Path 920" d="M349.059,123.613c-3.091-3.112-6.1-3.062-8.3-2.106a8.041,8.041,0,0,0-4.609,8.592c1.532,10.547,17.46,14.678,17.46,14.678l.048-.04-4.572-21.2C349.078,123.565,349.068,123.588,349.059,123.613Z" transform="translate(-336.063 -118.294)" fill="#db263b"/>
      <path id="Path_921" data-name="Path 921" d="M394.636,110.388c-2.382.045-4.988,1.189-6.509,5.245l4.572,21.2c.833-.692,12.59-10.677,9.7-20.545A8.041,8.041,0,0,0,394.636,110.388Z" transform="translate(-375.103 -110.387)" fill="#c11032"/>
    </g>
  </g>
</svg>
