<svg xmlns="http://www.w3.org/2000/svg" width="24.243" height="22.349" viewBox="0 0 24.243 22.349">
  <g id="XMLID_2374_" transform="translate(0 -20)">
    <g id="XMLID_707_" transform="translate(0 20)">
      <g id="XMLID_708_">
        <path id="XMLID_713_" d="M22.823,24.167H22.16V23.5a1.422,1.422,0,0,0-1.42-1.42H19.6v-.568a1.515,1.515,0,0,0-3.03,0v.568H12.6v-.568a1.515,1.515,0,0,0-3.03,0v.568H5.587v-.568a1.515,1.515,0,0,0-3.03,0v.568H1.42A1.422,1.422,0,0,0,0,23.5V38.845a1.422,1.422,0,0,0,1.42,1.42h.663v.663a1.422,1.422,0,0,0,1.42,1.42H22.823a1.422,1.422,0,0,0,1.42-1.42V25.587A1.422,1.422,0,0,0,22.823,24.167Zm-5.3-2.652a.568.568,0,0,1,1.136,0V23.6a.568.568,0,1,1-1.136,0Zm-7.008,0a.568.568,0,0,1,1.136,0V23.6a.568.568,0,1,1-1.136,0Zm-7.008,0a.568.568,0,0,1,1.136,0V23.6a.568.568,0,1,1-1.136,0ZM1.42,23.03H2.557V23.6a1.515,1.515,0,0,0,3.03,0V23.03H9.565V23.6a1.515,1.515,0,0,0,3.03,0V23.03h3.977V23.6a1.515,1.515,0,1,0,3.03,0V23.03h1.136a.474.474,0,0,1,.473.473v4.261H.947V23.5A.474.474,0,0,1,1.42,23.03ZM23.3,40.929a.474.474,0,0,1-.473.473H3.5a.474.474,0,0,1-.473-.473v-.663H8.949a.473.473,0,1,0,0-.947H1.42a.474.474,0,0,1-.473-.473V28.712H21.213V38.845a.474.474,0,0,1-.473.473H13.211a.473.473,0,0,0,0,.947h7.529a1.422,1.422,0,0,0,1.42-1.42V25.114h.663a.474.474,0,0,1,.473.473Z" transform="translate(0 -20)" fill="#393741"/>
        <path id="XMLID_710_" d="M161.7,248.565a.474.474,0,0,0,.687-.5l-.337-1.962,1.426-1.39a.474.474,0,0,0-.262-.808l-1.97-.286-.881-1.785a.474.474,0,0,0-.849,0l-.881,1.785-1.97.286a.474.474,0,0,0-.262.808l1.426,1.39-.337,1.962a.474.474,0,0,0,.687.5l1.762-.926Zm-3.116-1.285.216-1.262a.473.473,0,0,0-.136-.419l-.917-.894,1.267-.184a.474.474,0,0,0,.357-.259l.567-1.148.567,1.148a.474.474,0,0,0,.356.259l1.267.184-.917.894a.473.473,0,0,0-.136.419l.216,1.262-1.133-.6a.473.473,0,0,0-.441,0Z" transform="translate(-148.858 -231.08)" fill="#393741"/>
        <path id="XMLID_709_" d="M224.473,428a.474.474,0,1,0,.335.139A.477.477,0,0,0,224.473,428Z" transform="translate(-213.394 -408.681)" fill="#393741"/>
      </g>
    </g>
  </g>
</svg>
