<svg xmlns="http://www.w3.org/2000/svg" width="20.496" height="20" viewBox="0 0 20.496 20">
  <g id="Layer_2" data-name="Layer 2" transform="translate(0.029 -0.043)">
    <g id="Layer_1" data-name="Layer 1" transform="translate(-0.029 0.043)">
      <path id="Path_137" data-name="Path 137" d="M1.944,7.807c-.413.312-.737.552-1.055.8-.27.212-.556.319-.8,0S.008,8.048.28,7.83q4.38-3.5,8.758-7C9.3.624,9.562.419,9.819.2a.55.55,0,0,1,.78.005q4.782,3.838,9.57,7.658c.271.217.422.475.166.779s-.536.191-.8-.025c-.3-.245-.605-.481-.991-.785v9.371a2.627,2.627,0,0,1-2.829,2.832q-1.637.01-3.273,0c-.577,0-.728-.154-.73-.722,0-1.541.009-3.082-.005-4.623a1.468,1.468,0,0,0-1.779-1.52,1.507,1.507,0,0,0-1.147,1.552c-.009,1.469,0,2.938,0,4.406,0,.816-.092.91-.89.911-1.033,0-2.065,0-3.1,0a2.641,2.641,0,0,1-2.843-2.825V8.406ZM7.8,19.016V14.7a2.413,2.413,0,0,1,.727-1.81,2.312,2.312,0,0,1,2.611-.556,2.358,2.358,0,0,1,1.544,2.276c.035,1.308.009,2.617.011,3.925,0,.154.013.309.02.453a.893.893,0,0,0,.17.045c1,0,2.006.016,3.009,0a1.619,1.619,0,0,0,1.682-1.715q.008-4.972-.011-9.943a.839.839,0,0,0-.273-.571c-2.249-1.819-4.515-3.615-6.768-5.43-.234-.188-.372-.155-.589.018q-3.341,2.7-6.7,5.375a.734.734,0,0,0-.319.652c.013,1.642.006,3.285.006,4.927q0,2.507.006,5.014A1.549,1.549,0,0,0,4.246,19C5.4,19.06,6.567,19.016,7.8,19.016Z" transform="translate(0.029 -0.043)" fill="#393741"/>
    </g>
  </g>
</svg>
