<svg xmlns="http://www.w3.org/2000/svg" width="19.233" height="31.471" viewBox="0 0 19.233 31.471">
  <g id="Layer_2" data-name="Layer 2" transform="translate(0.002 -0.003)">
    <g id="Layer_1" data-name="Layer 1" transform="translate(-0.002 0.003)">
      <path id="Path_390" data-name="Path 390" d="M14.721,27.954h2.073c.341,0,.467-.159.467-.491q-.01-2.95,0-5.9a.534.534,0,0,0-.37-.545l-4.7-1.948c-1.543,3.385-5.137,2.623-6.086-.016q-2.379.993-4.754,1.977c-.319.128-.328.373-.328.651,0,1.886,0,3.772-.01,5.658,0,.43.121.638.587.62.606-.026,1.213,0,1.837,0a4,4,0,0,0,.113-1.4c.018-.319.108-.6.478-.622.416-.021.531.271.531.638V30.8c0,.351-.094.676-.5.67s-.488-.336-.488-.684v-1.8c-.773,0-1.5-.011-2.232,0-.29,0-.3.252-.3.47,0,.451,0,.9-.014,1.355,0,.351-.131.658-.529.662s-.474-.311-.474-.623V20.964c0-.478.328-.617.678-.762l4.783-1.991a1.16,1.16,0,0,0,.241-1.967,6.113,6.113,0,0,1-2.481-3.587.784.784,0,0,0-.638-.6A3.4,3.4,0,0,1,.031,8.632,17.428,17.428,0,0,1,.378,3.407a17.626,17.626,0,0,1,.837-2.224A2.549,2.549,0,0,1,3.825.019,12.789,12.789,0,0,1,6.966.837a25.513,25.513,0,0,0,5.58,1.547,12.285,12.285,0,0,0,5.638-.638c.287-.1.6-.319.893-.03s.112.638-.035.957a8.94,8.94,0,0,1-3.27,3.709,1.109,1.109,0,0,0,.059,2,1.7,1.7,0,0,1,.909,1.578,1.543,1.543,0,0,1-.984,1.513.975.975,0,0,0-.668.866,5.959,5.959,0,0,1-2.419,3.8,1.183,1.183,0,0,0,.212,2.1c1.562.663,3.127,1.325,4.7,1.958a.947.947,0,0,1,.686,1.009c-.022,3.135-.011,6.271-.011,9.407,0,.379.013.827-.494.843-.531.018-.5-.442-.5-.816V29.048a16.306,16.306,0,0,0-2.537-.091v1.822c0,.357-.11.666-.5.687s-.537-.308-.54-.647c-.014-1.408-.011-2.816,0-4.224,0-.348.123-.663.534-.652s.51.319.509.673C14.718,27.032,14.721,27.45,14.721,27.954ZM4.06,5.527c0,2.006-.013,3.863,0,5.719a5.069,5.069,0,0,0,4.8,5,5.013,5.013,0,0,0,5.261-4.405A30.016,30.016,0,0,0,14.141,7.4c0-.04-.062-.078-.118-.142C10.507,8.2,7.291,7.177,4.06,5.527ZM17.57,3.118c-.284-.159-.478-.029-.676.014a16.156,16.156,0,0,1-4.273.341,19.727,19.727,0,0,1-5.9-1.555A8.942,8.942,0,0,0,3.347,1.1c-.478.016-1.046.054-1.212.577a16.949,16.949,0,0,0-.939,2.6A24.517,24.517,0,0,0,1.054,8.97a2.255,2.255,0,0,0,1.9,2.065,1.748,1.748,0,0,0,.089-.845V5.247c0-.381-.147-.842.292-1.084.41-.225.694.15.995.328a12.374,12.374,0,0,0,8.023,2A6.93,6.93,0,0,0,17.57,3.118ZM7.149,16.989c-.105,1.2-.2,2.318.941,3.029a1.828,1.828,0,0,0,2.157-.061c1.052-.735.992-1.808.871-2.991a6.934,6.934,0,0,1-3.968.018Z" transform="translate(0.002 -0.003)" fill="#393741"/>
      <path id="Path_391" data-name="Path 391" d="M25.445,34.65c3.232,1.65,6.448,2.674,9.97,1.728.056.064.116.1.118.142a28.97,28.97,0,0,1-.018,4.448,5.013,5.013,0,0,1-5.261,4.405,5.069,5.069,0,0,1-4.805-5C25.432,38.513,25.445,36.656,25.445,34.65Zm5.006,8.187a2.752,2.752,0,0,0,2.355-1.014c.222-.271.349-.592.054-.85s-.564-.072-.826.174a1.97,1.97,0,0,1-3.066-.027c-.268-.252-.531-.392-.824-.12-.266.249-.151.537.049.784a2.674,2.674,0,0,0,2.258,1.052Zm3.6-4.129a1.568,1.568,0,0,0-1.521-1.435,1.585,1.585,0,0,0-1.51,1.451.5.5,0,0,0,.375.539.472.472,0,0,0,.607-.362c.092-.287.179-.58.55-.571s.45.3.533.593a.451.451,0,0,0,.612.338.508.508,0,0,0,.354-.56Zm-7.062-.037c-.013.292.065.536.389.6a.466.466,0,0,0,.553-.354c.1-.277.159-.584.534-.595s.454.281.55.568a.463.463,0,0,0,.609.364c.314-.1.37-.343.351-.638a1.545,1.545,0,0,0-1.523-1.358,1.517,1.517,0,0,0-1.464,1.409Z" transform="translate(-21.383 -29.126)" fill="#fff"/>
      <path id="Path_392" data-name="Path 392" d="M22.919,8.895A6.948,6.948,0,0,1,17.7,12.273a12.407,12.407,0,0,1-8.023-2c-.3-.179-.585-.553-.995-.328-.438.242-.289.7-.292,1.084-.01,1.647,0,3.292,0,4.943a1.729,1.729,0,0,1-.089.845,2.255,2.255,0,0,1-1.9-2.065,24.517,24.517,0,0,1,.142-4.687,16.326,16.326,0,0,1,.934-2.608c.166-.523.733-.56,1.212-.577a9.044,9.044,0,0,1,3.38.815,19.64,19.64,0,0,0,5.9,1.555,16.156,16.156,0,0,0,4.273-.338A.783.783,0,0,1,22.919,8.895Z" transform="translate(-5.347 -5.78)" fill="#fff"/>
      <path id="Path_393" data-name="Path 393" d="M44.538,106.434a6.934,6.934,0,0,0,3.968-.014c.121,1.183.182,2.256-.871,2.991a1.836,1.836,0,0,1-2.157.061C44.337,108.753,44.433,107.629,44.538,106.434Z" transform="translate(-37.387 -89.453)" fill="#fff"/>
      <path id="Path_394" data-name="Path 394" d="M43.879,75.515a2.674,2.674,0,0,1-2.258-1.052c-.2-.247-.319-.536-.049-.784.293-.273.556-.132.824.12a1.966,1.966,0,0,0,3.066.027c.261-.246.528-.434.826-.174s.159.579-.054.85A2.775,2.775,0,0,1,43.879,75.515Z" transform="translate(-34.812 -61.803)" fill="#393741"/>
      <path id="Path_395" data-name="Path 395" d="M63.5,52.478a.5.5,0,0,1-.354.55.451.451,0,0,1-.612-.338c-.083-.289-.159-.584-.533-.593s-.459.282-.55.571a.472.472,0,0,1-.607.362.505.505,0,0,1-.375-.539,1.517,1.517,0,0,1,3.031-.013Z" transform="translate(-50.826 -42.903)" fill="#393741"/>
      <path id="Path_396" data-name="Path 396" d="M35.183,52.415a1.5,1.5,0,0,1,1.464-1.406,1.534,1.534,0,0,1,1.523,1.358c.019.292-.046.544-.351.638a.471.471,0,0,1-.609-.367c-.092-.282-.159-.579-.55-.568s-.435.319-.534.595a.466.466,0,0,1-.553.348C35.249,52.95,35.17,52.707,35.183,52.415Z" transform="translate(-29.572 -42.876)" fill="#393741"/>
    </g>
  </g>
</svg>
