<svg xmlns="http://www.w3.org/2000/svg" width="17.767" height="17.767" viewBox="0 0 17.767 17.767">
  <g id="itunes" opacity="0.84">
    <path id="Path_4464" data-name="Path 4464" d="M136.3,324.808a.852.852,0,0,0,1.26-.644v-1.016l-1.13.452A.688.688,0,0,0,136.3,324.808Zm0,0" transform="translate(-131.274 -311.934)" fill="#515a6b"/>
    <path id="Path_4465" data-name="Path 4465" d="M286.3,294.808a.851.851,0,0,0,1.26-.644v-1.016l-1.13.452A.688.688,0,0,0,286.3,294.808Zm0,0" transform="translate(-276.069 -282.975)" fill="#515a6b"/>
    <path id="Path_4466" data-name="Path 4466" d="M8.884,0a8.884,8.884,0,1,0,8.884,8.884A8.918,8.918,0,0,0,8.884,0Zm3.644,11.189a1.87,1.87,0,0,1-1.915,1.8A1.729,1.729,0,0,1,9.97,9.658l1.516-.606V6.916l-4.164.833V12.23a1.87,1.87,0,0,1-1.915,1.8A1.729,1.729,0,0,1,4.765,10.7l1.516-.606V5.24A.521.521,0,0,1,6.7,4.73L11.9,3.689a.531.531,0,0,1,.432.108.521.521,0,0,1,.191.4Zm0,0" fill="#515a6b"/>
    <path id="Path_4467" data-name="Path 4467" d="M211,141.15l4.164-.833V139.3l-4.164.833Zm0,0" transform="translate(-203.678 -134.463)" fill="#515a6b"/>
  </g>
</svg>
