<svg id="logo" xmlns="http://www.w3.org/2000/svg" xmlns:xlink="http://www.w3.org/1999/xlink" width="22.447" height="24.875" viewBox="0 0 22.447 24.875">
  <defs>
    <linearGradient id="linear-gradient" y1="0.5" x2="1" y2="0.5" gradientUnits="objectBoundingBox">
      <stop offset="0" stop-color="#b78a38"/>
      <stop offset="0.51" stop-color="#fce984"/>
      <stop offset="1" stop-color="#b78a38"/>
    </linearGradient>
    <linearGradient id="linear-gradient-2" x1="0" y1="0.5" x2="1" y2="0.5" xlink:href="#linear-gradient"/>
  </defs>
  <g id="Layer_1" data-name="Layer 1">
    <path id="Path_121" data-name="Path 121" d="M2.32,185.089a1.222,1.222,0,0,1-1.036.494A1.206,1.206,0,0,1,.3,185.15a1.337,1.337,0,0,1-.3-.882,1.254,1.254,0,0,1,1.282-1.282,1.187,1.187,0,0,1,1.042.517l-.187.151a1,1,0,0,0-.851-.426,1.027,1.027,0,0,0-.518.138.977.977,0,0,0-.382.382,1.1,1.1,0,0,0-.135.542A1.022,1.022,0,0,0,1.3,185.347a1.046,1.046,0,0,0,.835-.4Z" transform="translate(0.004 -164.5)" fill="#b78a38"/>
    <path id="Path_122" data-name="Path 122" d="M28.376,191.4h-.225v-.312a.866.866,0,0,1-.707.363.838.838,0,0,1-.642-.287.971.971,0,0,1-.255-.682.956.956,0,0,1,.264-.677.85.85,0,0,1,.642-.281.808.808,0,0,1,.7.384v-.335h.225Zm-.21-.909a.752.752,0,0,0-.2-.529.678.678,0,0,0-1.1.154.768.768,0,0,0,0,.739.707.707,0,0,0,.256.274.642.642,0,0,0,.343.1.69.69,0,0,0,.352-.1.666.666,0,0,0,.255-.264.779.779,0,0,0,.094-.371Z" transform="translate(-23.864 -170.374)" fill="#b78a38"/>
    <path id="Path_123" data-name="Path 123" d="M50.767,185.535h-.224v-.312a.868.868,0,0,1-.707.363.838.838,0,0,1-.642-.287.971.971,0,0,1-.256-.682.956.956,0,0,1,.264-.677.85.85,0,0,1,.642-.281.808.808,0,0,1,.7.384V183h.224Zm-.21-.909a.756.756,0,0,0-.2-.526.651.651,0,0,0-.5-.214.642.642,0,0,0-.606.368.768.768,0,0,0,0,.739.707.707,0,0,0,.256.274.642.642,0,0,0,.343.1.69.69,0,0,0,.352-.1.666.666,0,0,0,.255-.264.779.779,0,0,0,.1-.374Z" transform="translate(-43.993 -164.513)" fill="#b78a38"/>
    <path id="Path_124" data-name="Path 124" d="M73.088,190.433H71.51a.781.781,0,0,0,.184.512.606.606,0,0,0,.477.215.68.68,0,0,0,.476-.178,1.092,1.092,0,0,0,.192-.261l.191.1a.938.938,0,0,1-.493.488.909.909,0,0,1-.346.063.865.865,0,0,1-.655-.273.957.957,0,0,1-.26-.686,1.01,1.01,0,0,1,.2-.621.828.828,0,0,1,.7-.346.853.853,0,0,1,.72.359A1.034,1.034,0,0,1,73.088,190.433Zm-.247-.2a.674.674,0,0,0-.36-.48.686.686,0,0,0-.3-.069.63.63,0,0,0-.444.173.793.793,0,0,0-.2.376Z" transform="translate(-64.075 -170.309)" fill="#b78a38"/>
    <path id="Path_125" data-name="Path 125" d="M94.427,191.4H94.2v-.312a.867.867,0,0,1-.707.363.835.835,0,0,1-.641-.287.972.972,0,0,1-.257-.682.956.956,0,0,1,.264-.677.852.852,0,0,1,.643-.281.808.808,0,0,1,.7.384v-.335h.224Zm-.21-.909a.756.756,0,0,0-.2-.529.679.679,0,0,0-1.1.154.768.768,0,0,0,0,.739.707.707,0,0,0,.256.274.647.647,0,0,0,.344.1.683.683,0,0,0,.351-.1.662.662,0,0,0,.256-.264.778.778,0,0,0,.089-.371Z" transform="translate(-83.243 -170.374)" fill="#b78a38"/>
    <path id="Path_126" data-name="Path 126" d="M116.979,190.9a1.686,1.686,0,0,1-.057.491.667.667,0,0,1-.282.379.782.782,0,0,1-.428.11.677.677,0,0,1-.684-.413,1.5,1.5,0,0,1-.086-.584V190h.229v.854a1.842,1.842,0,0,0,.032.431.473.473,0,0,0,.193.272.594.594,0,0,0,.623,0,.472.472,0,0,0,.193-.259,1.869,1.869,0,0,0,.033-.45V190h.232Z" transform="translate(-103.778 -170.806)" fill="#b78a38"/>
    <path id="Path_127" data-name="Path 127" d="M4.326,213.86a.792.792,0,0,1-.114.412.734.734,0,0,1-.311.289,1.153,1.153,0,0,1-.517.095H2.62v-2.728h.428a2.253,2.253,0,0,1,.546.048.736.736,0,0,1,.384.235.64.64,0,0,1-.13.94A.741.741,0,0,1,4.326,213.86Zm-.707-1.16q0-.279-.351-.279H3.139V213h.113c.246,0,.371-.1.371-.3Zm.191,1.143q0-.38-.568-.381h-.1v.7h.125a1.061,1.061,0,0,0,.361-.045.27.27,0,0,0,.189-.275Z" transform="translate(-2.355 -190.519)" fill="#b78a38"/>
    <path id="Path_128" data-name="Path 128" d="M25.016,219.563a1.065,1.065,0,0,1-.141.533,1.01,1.01,0,0,1-.386.389,1.077,1.077,0,0,1-.54.139,1.01,1.01,0,0,1-.744-.3,1.074,1.074,0,0,1,.042-1.539,1.01,1.01,0,0,1,.7-.274,1.081,1.081,0,0,1,.536.141,1.018,1.018,0,0,1,.392.388,1.044,1.044,0,0,1,.141.524Zm-.513,0a.6.6,0,0,0-.151-.416.563.563,0,0,0-.8.005.593.593,0,0,0-.142.417.6.6,0,0,0,.146.416.505.505,0,0,0,.4.172.511.511,0,0,0,.4-.172.6.6,0,0,0,.141-.416Z" transform="translate(-20.587 -196.436)" fill="#b78a38"/>
    <path id="Path_129" data-name="Path 129" d="M49.625,219.852a2.1,2.1,0,0,1-.084.723.8.8,0,0,1-.808.491.774.774,0,0,1-.825-.562,2.533,2.533,0,0,1-.06-.668V219h.518v.971a1.953,1.953,0,0,0,.016.3.387.387,0,0,0,.147.258.351.351,0,0,0,.21.061.335.335,0,0,0,.343-.236,1.361,1.361,0,0,0,.031-.373V219h.505Z" transform="translate(-43.012 -196.877)" fill="#b78a38"/>
    <path id="Path_130" data-name="Path 130" d="M69.584,212.818h-.3v1.58h-.505v-1.58H68.52v-.434h.26v-.744h.505v.744h.3Z" transform="translate(-61.598 -190.26)" fill="#b78a38"/>
    <path id="Path_131" data-name="Path 131" d="M81.183,211.084a.312.312,0,0,1-.092.232.3.3,0,0,1-.226.1.312.312,0,0,1-.231-.1.327.327,0,0,1-.094-.236.321.321,0,0,1,.552-.221A.317.317,0,0,1,81.183,211.084Zm-.067,2.516h-.505v-2.011h.505Z" transform="translate(-72.403 -189.466)" fill="#b78a38"/>
    <path id="Path_132" data-name="Path 132" d="M91.924,221.274h-.505v-.951a.888.888,0,0,1-1.313-.058,1.1,1.1,0,0,1-.27-.733,1.118,1.118,0,0,1,.253-.739.89.89,0,0,1,1.329-.051v-.22h.505Zm-.482-1.75a.6.6,0,0,0-.153-.42.512.512,0,0,0-.4-.168.505.505,0,0,0-.4.174.662.662,0,0,0,0,.833.505.505,0,0,0,.4.18.515.515,0,0,0,.4-.176A.625.625,0,0,0,91.442,219.525Z" transform="translate(-80.76 -196.399)" fill="#b78a38"/>
    <path id="Path_133" data-name="Path 133" d="M117.265,219.852a2.1,2.1,0,0,1-.084.723.8.8,0,0,1-.808.491.774.774,0,0,1-.825-.562,2.533,2.533,0,0,1-.06-.668V219H116v.971a1.95,1.95,0,0,0,.016.3.387.387,0,0,0,.147.258.351.351,0,0,0,.21.061.335.335,0,0,0,.343-.236,1.361,1.361,0,0,0,.031-.373V219h.505Z" transform="translate(-103.819 -196.877)" fill="#b78a38"/>
    <path id="Path_134" data-name="Path 134" d="M139.31,219.653v.1h-1.625a.527.527,0,0,0,.193.344.6.6,0,0,0,.385.123.677.677,0,0,0,.487-.2l.425.2a1.043,1.043,0,0,1-.909.442,1.061,1.061,0,0,1-.768-.293,1.01,1.01,0,0,1-.3-.757,1.059,1.059,0,0,1,.294-.764.989.989,0,0,1,.75-.3,1.037,1.037,0,0,1,.775.3A1.076,1.076,0,0,1,139.31,219.653Zm-.511-.3a.493.493,0,0,0-.2-.276.587.587,0,0,0-.335-.1.606.606,0,0,0-.37.117.651.651,0,0,0-.185.259Z" transform="translate(-123.334 -196.474)" fill="#b78a38"/>
    <path id="Path_135" data-name="Path 135" d="M112.543,100.294a3.245,3.245,0,0,0-1.9-2.133.529.529,0,0,1-.111-.09c.213-.136.414-.249.6-.385a2.877,2.877,0,0,0,1.121-1.677,4.009,4.009,0,0,0-2.091-4.568,6.2,6.2,0,0,0-2.721-.564c-2.222-.008-4.438,0-6.657,0h-.3v4.181h2.659v-1.6a.535.535,0,0,1,.119-.038c1.452,0,2.9-.018,4.355.012a2.029,2.029,0,0,1,1.7.859,1.509,1.509,0,0,1-.756,2.408c-.284.094-.584.134-.925.211,0,.574-.007,1.149,0,1.722.01.7-.158.635.654.855a2.65,2.65,0,0,1,1.39.847,1.529,1.529,0,0,1-.341,2.362,4.256,4.256,0,0,1-1.313.448,9.364,9.364,0,0,1-1.313.091v2.573a9.489,9.489,0,0,0,3.311-.369A3.887,3.887,0,0,0,112.543,100.294Z" transform="translate(-90.338 -81.694)" fill="url(#linear-gradient)"/>
    <path id="Path_136" data-name="Path 136" d="M29.875,12.973l-.123.244a6.094,6.094,0,0,1-2.169,2.4,5.936,5.936,0,0,1-9.075-5.051,5.859,5.859,0,0,1,1.717-4.209A5.777,5.777,0,0,1,23.395,4.7l-1.83,2.2L22.8,6.412l.42,1.22,1.192-3.017h.126L25.73,7.508l.334-1,1.515.585L25.558,4.713a5.509,5.509,0,0,1,2.026.8A6.014,6.014,0,0,1,29.753,7.9l.124.241h2.3l-.256-.615A8.127,8.127,0,0,0,29.006,3.9a8.017,8.017,0,0,0-.724-.441c.846-.65.937-3.12.134-3.42-.771-.287-2.638,1.031-3.233,1.475a.651.651,0,0,0-.529-.273h-.093a.83.83,0,0,0-.654.317c-.521-.391-2.5-1.818-3.3-1.515s-.715,2.663.082,3.373a8.212,8.212,0,0,0-1.944,1.455,7.788,7.788,0,0,0-2.361,5.692,7.846,7.846,0,0,0,2.361,5.71,7.747,7.747,0,0,0,5.692,2.361,7.852,7.852,0,0,0,4.563-1.422,8.034,8.034,0,0,0,2.915-3.624l.256-.616ZM25.119,2.5l.038.04-.068-.006A.327.327,0,0,0,25.119,2.5Z" transform="translate(-14.734 0)" fill="url(#linear-gradient-2)"/>
  </g>
</svg>
