<svg xmlns="http://www.w3.org/2000/svg" width="34.04" height="31.33" viewBox="0 0 34.04 31.33">
  <g id="hearts_2_" data-name="hearts (2)" transform="translate(0.001 -0.371)">
    <path id="Path_419" data-name="Path 419" d="M28.495,32.964a6.231,6.231,0,0,0-3.933.655,8.881,8.881,0,0,0-.015-1.293,6.721,6.721,0,0,0-7.273-6.1,6.851,6.851,0,0,0-5.282,3.794A6.844,6.844,0,0,0,6.128,27.2a6.708,6.708,0,0,0-6.1,7.269c.7,8.023,12.811,14.217,13.324,14.476a.559.559,0,0,0,.591-.056l.2-.151A40.99,40.99,0,0,0,18.822,53.9a.56.56,0,0,0,.581.1c.536-.214,13.139-5.332,14.536-13.259a6.733,6.733,0,0,0-5.444-7.778ZM1.137,34.373a5.588,5.588,0,0,1,5.086-6.057q.207-.018.412-.018a6.019,6.019,0,0,1,4.966,3.15.544.544,0,0,0,.535.28.56.56,0,0,0,.478-.369,5.92,5.92,0,0,1,4.755-4.022,5.609,5.609,0,0,1,6.063,5.085,7.937,7.937,0,0,1-.079,1.966c-.095.074-.183.154-.274.232-.056.049-.115.095-.168.145-.175.158-.345.323-.5.495a6.839,6.839,0,0,0-4.932-4.236A6.726,6.726,0,0,0,9.7,36.466c-.045.254-.076.509-.1.765-.007.087-.007.175-.012.263-.01.168-.019.335-.019.508,0,.1.007.209.011.314,0,.153.009.306.021.459.009.112.023.224.036.335.016.146.031.291.056.438.017.115.04.231.06.346.026.142.051.284.083.426.025.117.056.234.083.35.035.139.069.28.108.416.033.118.069.235.105.352.042.137.085.272.131.407.04.117.081.234.123.35.049.134.1.269.152.4.045.115.092.23.139.345.056.132.112.263.168.392.051.112.1.226.154.339.061.13.123.259.186.388.056.112.108.22.164.328.066.129.133.256.2.383l.168.316c.072.128.144.254.217.381.056.1.112.2.173.3.077.129.155.255.233.381.056.092.112.185.168.275.085.133.168.263.255.391.052.079.1.159.155.236.1.147.2.289.3.431.04.056.079.116.119.172l.019.029C11.086,46.438,1.712,40.913,1.14,34.373Zm31.7,6.178C31.663,47.2,21.285,51.974,19.31,52.827a41.391,41.391,0,0,1-4.588-5.163.52.52,0,0,0-.035-.053c-2.145-2.893-4.56-7.14-3.887-10.949a5.6,5.6,0,0,1,6.479-4.536,5.909,5.909,0,0,1,4.384,4.42.559.559,0,0,0,1,.176,6.356,6.356,0,0,1,.691-.839,6.814,6.814,0,0,1,.839-.727,5.354,5.354,0,0,1,4.1-1.085,5.612,5.612,0,0,1,4.539,6.482Zm0,0" transform="translate(0 -24.02)" fill="#393741"/>
    <path id="Path_420" data-name="Path 420" d="M67.451,312.565a.591.591,0,0,0-.185-.117.555.555,0,0,0-.425,0,.5.5,0,0,0-.3.3.554.554,0,0,0,.727.727.66.66,0,0,0,.185-.117.555.555,0,0,0,.117-.61A.581.581,0,0,0,67.451,312.565Zm0,0" transform="translate(-61.846 -290.213)" fill="#393741"/>
    <path id="Path_421" data-name="Path 421" d="M443.055,41.473a.554.554,0,0,0,.559-.559.589.589,0,0,0-.162-.4.563.563,0,0,0-.09-.067.316.316,0,0,0-.1-.051.343.343,0,0,0-.107-.034.48.48,0,0,0-.218,0,.368.368,0,0,0-.1.034.427.427,0,0,0-.1.051.979.979,0,0,0-.083.067.584.584,0,0,0-.162.4.553.553,0,0,0,.559.559Zm0,0" transform="translate(-411.552 -37.185)" fill="#393741"/>
    <path id="Path_422" data-name="Path 422" d="M410.658,89.328a.56.56,0,0,0,.957-.4.589.589,0,0,0-.162-.4c-.028-.022-.056-.045-.09-.067a.315.315,0,0,0-.1-.051.343.343,0,0,0-.107-.034.519.519,0,0,0-.319.034.577.577,0,0,0-.184.117.584.584,0,0,0-.162.4A.553.553,0,0,0,410.658,89.328Zm0,0" transform="translate(-381.789 -81.845)" fill="#393741"/>
    <path id="Path_423" data-name="Path 423" d="M131.451,432.548a.589.589,0,0,0-.185-.117.56.56,0,0,0-.61.117.643.643,0,0,0-.117.185.558.558,0,0,0-.045.213.469.469,0,0,0,.045.213.652.652,0,0,0,.117.185.567.567,0,0,0,.794,0,.665.665,0,0,0,.117-.185.529.529,0,0,0,0-.425A.649.649,0,0,0,131.451,432.548Zm0,0" transform="translate(-121.369 -401.804)" fill="#393741"/>
    <path id="Path_424" data-name="Path 424" d="M37.293,353.49h-.559v-.559a.559.559,0,0,0-1.119,0v.559h-.559a.559.559,0,1,0,0,1.119h.559v.559a.559.559,0,0,0,1.119,0v-.559h.559a.559.559,0,1,0,0-1.119Zm0,0" transform="translate(-32.085 -327.384)" fill="#393741"/>
    <path id="Path_425" data-name="Path 425" d="M363.055,2.609h.559v.559a.559.559,0,0,0,1.119,0V2.609h.559a.559.559,0,1,0,0-1.119h-.559V.931a.559.559,0,0,0-1.119,0V1.49h-.559a.559.559,0,0,0,0,1.119Zm0,0" transform="translate(-337.147)" fill="#393741"/>
  </g>
</svg>
