<svg xmlns="http://www.w3.org/2000/svg" width="30.711" height="23.341" viewBox="0 0 30.711 23.341">
  <path id="Path_158" data-name="Path 158" d="M29,68.938a5.816,5.816,0,0,0-4.139-1.715,5.943,5.943,0,0,0-.685.041,7.091,7.091,0,0,0-11.988-3.737l-.04.04-.04-.04A7.09,7.09,0,1,0,2.077,73.555l10.067,9.318,3.3-3.052,5.371,4.971,8.159-7.551L29,77.217a5.854,5.854,0,0,0,0-8.279ZM12.144,80.421l-8.807-8.15A5.291,5.291,0,0,1,10.832,64.8l1.312,1.312L13.456,64.8a5.29,5.29,0,0,1,8.972,2.948,5.846,5.846,0,0,0-1.615,1.1,5.854,5.854,0,0,0-8.184,8.372l1.488,1.378Zm15.592-4.488L20.813,82.34l-6.923-6.407a4.055,4.055,0,0,1,5.746-5.723l1.177,1.177L21.99,70.21a4.055,4.055,0,0,1,5.746,5.723Z" transform="translate(0 -61.451)" fill="#393741"/>
</svg>
