<svg id="Group_2109" data-name="Group 2109" xmlns="http://www.w3.org/2000/svg" width="796.2" height="265.5" viewBox="0 0 796.2 265.5">
  <rect id="Rectangle_601" data-name="Rectangle 601" width="336.8" height="112.2" transform="translate(0 153.1)" fill="#84b740"/>
  <rect id="Rectangle_602" data-name="Rectangle 602" width="336.8" height="112.3" fill="#259bd6"/>
  <path id="Path_4544" data-name="Path 4544" d="M673.6,242.5l-1.5.3c-5.2,1-7.1,1.4-10.9,1.4-8.8,0-19.2-4.5-19.2-25.7,0-10.9,1.8-25.4,18.2-25.4h.1a49.257,49.257,0,0,1,12,2.3l1.3.4v46.7Zm2.7-105.7-2.7.5v39.2l-2.4-.7-.7-.2c-2.7-.8-8.9-2.6-14.9-2.6-32.8,0-39.7,24.8-39.7,45.6,0,28.5,16,44.9,43.9,44.9,11.8,0,20.5-1.2,29.3-4.1,8.1-2.6,11-6.3,11-14.2V132.7c-7.8,1.4-15.9,2.8-23.8,4.1" fill="#27292d"/>
  <path id="Path_4545" data-name="Path 4545" d="M771.1,243.2l-1.4.4-5,1.3a52.12,52.12,0,0,1-12.1,1.9c-7.7,0-12.3-3.8-12.3-10.3,0-4.2,1.9-11.3,14.5-11.3h16.3Zm-11.5-70.7c-10.1,0-20.5,1.8-33.4,5.8l-8.4,2.5,2.8,19,8.2-2.7a96.417,96.417,0,0,1,27.3-4.6c3.6,0,14.6,0,14.6,11.9v5.2H755.4c-27.9,0-40.8,8.9-40.8,28,0,16.3,11.9,26.1,31.9,26.1a103.133,103.133,0,0,0,22.2-3l.4-.1.4.1,2.5.4c7.8,1.4,15.9,2.8,23.8,4.3V203c0-20.2-12.2-30.5-36.2-30.5" fill="#27292d"/>
  <path id="Path_4546" data-name="Path 4546" d="M576.8,243.2l-1.4.4-5,1.3a51.352,51.352,0,0,1-12.1,1.9c-7.7,0-12.3-3.8-12.3-10.3,0-4.2,1.9-11.3,14.4-11.3h16.3l.1,18Zm-11.4-70.7c-10.2,0-20.5,1.8-33.4,5.8l-8.4,2.5,2.8,19,8.2-2.7a96.417,96.417,0,0,1,27.3-4.6c3.6,0,14.6,0,14.6,11.9v5.2H561.2c-27.9,0-40.9,8.9-40.9,28,0,16.3,11.9,26.1,32,26.1a103.133,103.133,0,0,0,22.2-3l.4-.1.4.1,2.4.4c7.9,1.4,15.9,2.8,23.8,4.4V203.1c.1-20.4-12.1-30.6-36.1-30.6" fill="#27292d"/>
  <path id="Path_4547" data-name="Path 4547" d="M471.5,172.7a67.479,67.479,0,0,0-27.1,6l-1,.5-.9-.7c-5.4-3.9-13.3-5.9-24.3-5.9a99.411,99.411,0,0,0-28.7,4.3c-8.5,2.6-11.8,6.7-11.8,14.4v71.3h26.6V196.7l1.3-.4a33.851,33.851,0,0,1,11.7-2.1c7.7,0,11.6,4.1,11.6,12.1v56.4h26.2V205.2a19.355,19.355,0,0,0-.8-5.8l-.9-1.7,1.8-.8a31.533,31.533,0,0,1,13-2.7c5.3,0,11.6,2.1,11.6,12.1v56.4h26.1v-59c0-20.9-11.2-31-34.4-31" fill="#27292d"/>
  <path id="Path_4548" data-name="Path 4548" d="M751.5,73.2A90.739,90.739,0,0,1,736,71.8l-1.5-.3V33a18.831,18.831,0,0,0-.7-5.5l-.8-1.6,1.7-.7c.4-.2.8-.3,1.3-.5l.3-.2,1.8-.6a2.544,2.544,0,0,1,.7-.2c5.9-1.6,11.3-1.4,13.7-1.6h.1c16.3,0,18.2,14.5,18.2,25.4-.1,21.2-10.6,25.7-19.3,25.7M751.4,0h-.7c-15.3,0-31,4.2-36.6,12.4a25.016,25.016,0,0,0-4.8,14.9h0V67a11.735,11.735,0,0,1-.8,5l-.9,1.7H659.3V46.1h-.1C658.6,17,641.4,1,616.5,1H592.2c-1,7.1-1.8,12.1-2.8,19.2h24.2C626.3,20.2,633,31,633,47.6V75.4l-1.7-.9a18.355,18.355,0,0,0-5.7-.8H583.8c-.8,5.3-1.8,12.2-2.9,19.1H709.4c4.4-.9,9.5-1.7,13.9-2.4,6.5,3.2,18.6,4.9,26.9,4.9,27.9,0,46-18.7,46-47.5C796.1,19.3,778.6.6,751.4,0" fill="#27292d"/>
  <path id="Path_4549" data-name="Path 4549" d="M526.1,104.5h1.2c27.9,0,40.9-9.2,40.9-31.9,0-16.3-11.9-29.3-31.9-29.3H510.6c-7.7,0-12.3-4.4-12.3-11.8,0-5,1.9-11.2,14.5-11.2H569c1.2-7.3,1.8-11.9,2.9-19.2H513.5c-27.2,0-40.9,11.4-40.9,30.4,0,18.8,11.9,28.6,31.9,28.6h25.7c7.7,0,12.3,6.1,12.3,12.5,0,4.2-1.9,12.9-14.4,12.9h-4.3l-82.3-.2h-15c-12.7,0-21.6-7.2-21.6-23.9V49.9c0-17.4,6.9-28.2,21.6-28.2h24.4c1.1-7.4,1.8-12.1,2.8-19.1H420.4c-24.9,0-42.1,16.7-42.7,45.8h0v13c.6,29.1,17.8,43,42.7,43h24.3l44.6.1h36.8Z" fill="#27292d"/>
</svg>
