<svg xmlns="http://www.w3.org/2000/svg" width="30.176" height="39.14" viewBox="0 0 30.176 39.14">
  <g id="male-user" transform="translate(-47.445 2.513)">
    <g id="Group_282" data-name="Group 282" transform="translate(48.026 0)">
      <path id="Path_144" data-name="Path 144" d="M72.47,244.213a16.044,16.044,0,0,1-5.894-3.051l-.139.133a5.928,5.928,0,0,1-3.85,1.848H62.47a5.928,5.928,0,0,1-3.849-1.848l-.139-.133a16.044,16.044,0,0,1-5.894,3.051c-6.146,2.3-4.3,11.639-4.3,11.712.194,1.041.306,1.4.4,1.438,6.172,2.748,21.507,2.748,27.679,0,.1-.04.211-.4.4-1.438C76.771,255.852,78.641,246.546,72.47,244.213Z" transform="translate(-48.026 -223.297)" fill="none" stroke="#393741" stroke-width="1"/>
      <path id="Path_145" data-name="Path 145" d="M166.533,9l-.052-.056a4.286,4.286,0,0,1-.319-.3s.6-3.043.119-4.483c-.759-2.3-5.295-3.839-6.2-4.018,0,0-.553-.112-.589-.113a2.819,2.819,0,0,0-1.545.217c-.54.208-3.364,1.488-4.165,3.914-.484,1.439.12,4.483.12,4.483a4.291,4.291,0,0,1-.319.3L153.528,9a2.706,2.706,0,0,0,.08,1.962,4.487,4.487,0,0,0,.606,1.3c.734,3.444,3.285,6.385,5.884,6.385s5.016-2.941,5.749-6.385a4.484,4.484,0,0,0,.606-1.3C166.709,10.093,166.774,9.205,166.533,9Z" transform="translate(-145.576 -2)" fill="none" stroke="#393741" stroke-width="1"/>
    </g>
  </g>
</svg>
