<svg xmlns="http://www.w3.org/2000/svg" width="26.019" height="32.279" viewBox="0 0 26.019 32.279">
  <g id="Group_578" data-name="Group 578" transform="translate(-49.648 0)">
    <path id="Path_407" data-name="Path 407" d="M61.851,32.279a.473.473,0,0,1-.435-.287l-1.888-4.426a.473.473,0,0,1,.87-.371l1.888,4.426a.473.473,0,0,1-.435.658Zm-5.548,0a.473.473,0,0,1-.435-.287,18.876,18.876,0,0,1-1.545-7.548A17.671,17.671,0,0,1,55.363,19.2a15.669,15.669,0,0,0,.936-4.547,4.3,4.3,0,0,0-.129-1.053,5.87,5.87,0,0,1-3.038.429,4.16,4.16,0,0,1-2.46-1.277A3.842,3.842,0,0,1,49.648,10.1a3.754,3.754,0,0,1,1.186-2.78,4.076,4.076,0,0,1,2.839-1.051,6.072,6.072,0,0,1,2.538-4.741A9.167,9.167,0,0,1,61.526,0a11.819,11.819,0,0,1,2.8.323.473.473,0,0,1-.225.919,11.03,11.03,0,0,0-2.58-.3A8.223,8.223,0,0,0,56.762,2.3,5.188,5.188,0,0,0,54.6,6.773a7.665,7.665,0,0,0,1.364,4.159A15.319,15.319,0,0,1,56.7,12.3a8.412,8.412,0,0,0,1.4-.982A3.061,3.061,0,0,1,57.819,10a1.953,1.953,0,0,1,1.912-1.987,1.867,1.867,0,0,1,1.184.427A7.647,7.647,0,0,0,62.684,5.29a.473.473,0,0,1,.464-.38h0a6.285,6.285,0,0,0,1.9-.338,2.321,2.321,0,0,0,1.764-2.031A5.512,5.512,0,0,0,65.663,1.8.473.473,0,1,1,66.08.947c1.881.924,3.937,2.934,3.047,7.258A2.686,2.686,0,0,0,69.092,9.5a2.291,2.291,0,0,0,.609.933,1.849,1.849,0,0,1,.641,1.236A1.63,1.63,0,0,1,68.9,13.171a13.92,13.92,0,0,1-1.187,3.5q.2-.017.41-.017a4.749,4.749,0,0,1,2.07.469.473.473,0,0,1-.409.853,3.811,3.811,0,0,0-1.661-.376A3.862,3.862,0,0,0,64.276,21.3a5.013,5.013,0,0,1,.528.942l.384.9a.415.415,0,0,0,.4-.251.473.473,0,1,1,.866.38,1.361,1.361,0,0,1-.881.768l.761,1.784a3.006,3.006,0,0,0,2.817-.076,2.323,2.323,0,0,1,1.145-1.991l1.49-.911h0A.918.918,0,0,0,72.3,22c0-.281-.18-.518-.393-.518a.35.35,0,0,0-.256.128.473.473,0,0,1-.712-.622,1.3,1.3,0,0,1,.924-.451,3.806,3.806,0,0,0-.889-1.674.473.473,0,1,1,.7-.635,4.808,4.808,0,0,1,1.222,2.787,1.536,1.536,0,0,1,.349.985,1.918,1.918,0,0,1-.074.535,2.155,2.155,0,0,1,1.7,1.232c.669,1.444.8,4.04.8,8.037a.473.473,0,0,1-.946,0c0-1.246-.009-2.5-.063-3.645H71.534a2.323,2.323,0,0,1-2.2-1.467,4.376,4.376,0,0,1-2.488.33L68.8,31.606a.473.473,0,1,1-.87.371l-4-9.369a4.043,4.043,0,0,0-3.724-2.46.473.473,0,0,1,0-.946,4.994,4.994,0,0,1,1.894.372V17.349c-.387-.163-.637-.289-.666-.3a.473.473,0,0,1,.43-.842,9.9,9.9,0,0,0,3.657,1.024c.8,0,1.4-.723,1.965-2.476A2.82,2.82,0,0,1,65.7,13.712a.473.473,0,1,1,.769-.55,1.974,1.974,0,0,0,1.284.673q.146-.549.293-1.2a.473.473,0,0,1,.442-.368c.436-.018.906-.254.906-.6,0-.16-.149-.331-.393-.6a3.163,3.163,0,0,1-.824-1.32,3.292,3.292,0,0,1-.028-1.475,3.356,3.356,0,0,0-2.25-.5.473.473,0,0,1-.062-.944,4.7,4.7,0,0,1,2.486.438A5.422,5.422,0,0,0,67.6,3.41a3.4,3.4,0,0,1-2.253,2.06,7.139,7.139,0,0,1-1.834.37,9.333,9.333,0,0,1-2.253,3.622.473.473,0,0,1-.716-.03.483.483,0,0,1-.03-.042.95.95,0,0,0-.782-.429A1.007,1.007,0,0,0,58.765,10a1.853,1.853,0,0,0,1.933,1.94.473.473,0,0,1,0,.946,2.872,2.872,0,0,1-2.048-.8,9.907,9.907,0,0,1-1.613,1.1,5.238,5.238,0,0,1,.207,1.464,15.665,15.665,0,0,1-.892,4.545h1.965a.473.473,0,1,1,0,.946H56.063a14.916,14.916,0,0,0-.795,4.3,17.947,17.947,0,0,0,1.469,7.177.473.473,0,0,1-.435.658Zm15.973-8.633-1.49.911a1.435,1.435,0,0,0,.748,2.659H74.6a9.672,9.672,0,0,0-.592-3.049,1.192,1.192,0,0,0-.746-.648,1.217,1.217,0,0,0-.986.126h0Zm-9.227-3.561q.2.142.4.3a4.76,4.76,0,0,1,1.24-2.282,9.646,9.646,0,0,1-1.635-.4ZM53.641,7.219a3.121,3.121,0,0,0-2.161.8,2.818,2.818,0,0,0-.886,2.088A3.01,3.01,0,0,0,53.269,13.1a5.026,5.026,0,0,0,2.584-.388,14.583,14.583,0,0,0-.7-1.3,8.824,8.824,0,0,1-1.48-4.19h-.029ZM67.32,25.2a1.309,1.309,0,0,1-.138-.007.473.473,0,1,1,.1-.94.858.858,0,0,0,.567-.206.473.473,0,0,1,.681.656A1.782,1.782,0,0,1,67.32,25.2Zm1.028-2.35a1.361,1.361,0,0,1-.547-.116.473.473,0,0,1,.38-.866.419.419,0,0,0,.552-.215.473.473,0,0,1,.866.38,1.368,1.368,0,0,1-1.25.817ZM66.117,10.819a2.019,2.019,0,0,1-1.469-.637.473.473,0,0,1,.695-.641,1.051,1.051,0,0,0,1.045.294.473.473,0,0,1,.278.9,1.863,1.863,0,0,1-.549.081Z" transform="translate(0 0)" fill="#393741"/>
  </g>
</svg>
