<svg xmlns="http://www.w3.org/2000/svg" width="24.001" height="24.001" viewBox="0 0 24.001 24.001">
  <path id="pacifier" d="M22.321,9.79a5.739,5.739,0,0,0-.058-8.173,5.738,5.738,0,0,0-9.722,3.709q-.018.251-.054.5A13.906,13.906,0,0,0,8.822,4c-2.067-.614-3.15-.093-3.7.452-.925.926-.966,2.567-.118,4.633a7.617,7.617,0,0,0-2.755,1.772A7.7,7.7,0,1,0,14.915,18.99a7.109,7.109,0,0,0,2.636.607,2.719,2.719,0,0,0,2-.726c.546-.546,1.067-1.632.449-3.7a13.936,13.936,0,0,0-1.83-3.664q.228-.029.459-.044a5.731,5.731,0,0,0,3.7-1.669ZM12.149,20.751A6.3,6.3,0,1,1,5.617,10.356c.248.458.529.921.838,1.383a4.675,4.675,0,0,0-2.1,1.218,4.725,4.725,0,1,0,7.9,4.584c.462.31.926.59,1.383.839a6.315,6.315,0,0,1-1.491,2.371ZM7.367,12.992a21.738,21.738,0,0,0,1.71,1.927A21.735,21.735,0,0,0,11,16.627a3.319,3.319,0,1,1-5.649-2.676A3.284,3.284,0,0,1,7.307,13c.02,0,.04-.006.06-.01Zm11.282,2.576c.323,1.083.288,1.925-.1,2.309-.5.5-1.7.409-3.222-.237a17.715,17.715,0,0,1-5.26-3.714A17.718,17.718,0,0,1,6.358,8.665c-.646-1.52-.735-2.725-.237-3.223.383-.383,1.221-.419,2.3-.1a13.076,13.076,0,0,1,3.692,1.932,6.407,6.407,0,0,1-1.451,2.256l-.153.153a.7.7,0,0,0,0,.994l2.741,2.741a.7.7,0,0,0,.995,0l.034-.034A6.574,6.574,0,0,1,16.7,11.856a13.137,13.137,0,0,1,1.949,3.712Zm-4.883-3.619-1.777-1.777a8.03,8.03,0,0,0,1.955-4.747,4.318,4.318,0,0,1,4.243-4.017,4.328,4.328,0,0,1,.351,8.648A8.171,8.171,0,0,0,13.766,11.949Z" transform="translate(-0.001 -0.001)" fill="#393741"/>
</svg>
