<svg xmlns="http://www.w3.org/2000/svg" xmlns:xlink="http://www.w3.org/1999/xlink" width="405" height="76" viewBox="0 0 405 76">
  <defs>
    <filter id="Rectangle_1" x="0" y="0" width="405" height="76" filterUnits="userSpaceOnUse">
      <feOffset dy="-8" input="SourceAlpha"/>
      <feGaussianBlur stdDeviation="5" result="blur"/>
      <feFlood flood-opacity="0.161"/>
      <feComposite operator="in" in2="blur"/>
      <feComposite in="SourceGraphic"/>
    </filter>
  </defs>
  <g id="Group_279" data-name="Group 279" transform="translate(15 -743)">
    <g transform="matrix(1, 0, 0, 1, -15, 743)" filter="url(#Rectangle_1)">
      <rect id="Rectangle_1-2" data-name="Rectangle 1" width="375" height="46" transform="translate(15 23)" fill="#fff"/>
    </g>
    <g id="shopping-bag_2_" data-name="shopping-bag (2)" transform="translate(-12.8 778.27)">
      <path id="Path_137" data-name="Path 137" d="M65.386,17.917,64.2,4.552a.571.571,0,0,0-.568-.521H61.19a4.1,4.1,0,0,0-8.189,0H50.559a.568.568,0,0,0-.568.521L48.8,17.917c0,.017,0,.034,0,.051a2.954,2.954,0,0,0,3.111,2.759H62.279a2.954,2.954,0,0,0,3.111-2.759A.206.206,0,0,0,65.386,17.917ZM57.1,1.144a2.953,2.953,0,0,1,2.95,2.887h-5.9A2.953,2.953,0,0,1,57.1,1.144Zm5.184,18.438H51.911a1.826,1.826,0,0,1-1.967-1.59L51.08,5.18H53V6.918a.572.572,0,0,0,1.144,0V5.18h5.9V6.918a.572.572,0,0,0,1.144,0V5.18h1.916l1.14,12.814A1.829,1.829,0,0,1,62.279,19.583Z" fill="#596273"/>
    </g>
    <g id="Layer_2" data-name="Layer 2" transform="translate(104.781 778.957)">
      <g id="Layer_1" data-name="Layer 1" transform="translate(-0.029 0.043)">
        <path id="Path_137-2" data-name="Path 137" d="M1.944,7.807c-.413.312-.737.552-1.055.8-.27.212-.556.319-.8,0S.008,8.048.28,7.83q4.38-3.5,8.758-7C9.3.624,9.562.419,9.819.2a.55.55,0,0,1,.78.005q4.782,3.838,9.57,7.658c.271.217.422.475.166.779s-.536.191-.8-.025c-.3-.245-.605-.481-.991-.785v9.371a2.627,2.627,0,0,1-2.829,2.832q-1.637.01-3.273,0c-.577,0-.728-.154-.73-.722,0-1.541.009-3.082-.005-4.623a1.468,1.468,0,0,0-1.779-1.52,1.507,1.507,0,0,0-1.147,1.552c-.009,1.469,0,2.938,0,4.406,0,.816-.092.91-.89.911-1.033,0-2.065,0-3.1,0a2.641,2.641,0,0,1-2.843-2.825V8.406ZM7.8,19.016V14.7a2.413,2.413,0,0,1,.727-1.81,2.312,2.312,0,0,1,2.611-.556,2.358,2.358,0,0,1,1.544,2.276c.035,1.308.009,2.617.011,3.925,0,.154.013.309.02.453a.893.893,0,0,0,.17.045c1,0,2.006.016,3.009,0a1.619,1.619,0,0,0,1.682-1.715q.008-4.972-.011-9.943a.839.839,0,0,0-.273-.571c-2.249-1.819-4.515-3.615-6.768-5.43-.234-.188-.372-.155-.589.018q-3.341,2.7-6.7,5.375a.734.734,0,0,0-.319.652c.013,1.642.006,3.285.006,4.927q0,2.507.006,5.014A1.549,1.549,0,0,0,4.246,19C5.4,19.06,6.567,19.016,7.8,19.016Z" transform="translate(0.029 -0.043)" fill="#393741"/>
      </g>
    </g>
    <g id="Layer_2-2" data-name="Layer 2" transform="translate(178.03 778.997)">
      <g id="Layer_1-2" data-name="Layer 1" transform="translate(-0.03 0.005)">
        <path id="Path_138" data-name="Path 138" d="M5.15,9.009H2.294A2.222,2.222,0,0,1-.028,6.681q0-2.211,0-4.418A2.184,2.184,0,0,1,2.234.008q2.248-.007,4.5,0A2.2,2.2,0,0,1,8.972,2.253c.01,1.982,0,3.964,0,5.941,0,.561-.253.811-.816.813C7.156,9.011,6.153,9.009,5.15,9.009ZM7.57,7.655c.028-.065.046-.088.046-.11,0-1.789.013-3.579,0-5.367a.862.862,0,0,0-.9-.851q-2.246-.018-4.492,0a.9.9,0,0,0-.932.909q-.021,2.264,0,4.53a.852.852,0,0,0,.824.884C3.937,7.664,5.747,7.655,7.57,7.655Z" transform="translate(0.03 -0.005)" fill="#596273"/>
        <path id="Path_139" data-name="Path 139" d="M144.168,147.971v-2.932c0-.589.246-.839.83-.839h5.865a2.213,2.213,0,0,1,2.3,2.3q0,2.211,0,4.418a2.182,2.182,0,0,1-2.272,2.28q-2.228.006-4.455,0a2.212,2.212,0,0,1-2.271-2.258C144.161,149.952,144.168,148.961,144.168,147.971Zm1.4-2.414a.5.5,0,0,0-.044.113c0,1.789-.012,3.579,0,5.367a.86.86,0,0,0,.9.849q2.246.018,4.492,0a.9.9,0,0,0,.93-.915q.02-2.266,0-4.53a.852.852,0,0,0-.827-.881C149.207,145.545,147.394,145.557,145.571,145.557Z" transform="translate(-133.172 -133.207)" fill="#596273"/>
        <path id="Path_140" data-name="Path 140" d="M147.927,9.009h-2.973c-.566,0-.813-.249-.814-.813,0-1.982-.008-3.964,0-5.942A2.206,2.206,0,0,1,146.387.008q2.267-.007,4.533,0a2.182,2.182,0,0,1,2.219,2.218q.01,2.266,0,4.532A2.207,2.207,0,0,1,150.9,9.006c-.495.007-.991,0-1.485,0ZM145.487,7.6a.549.549,0,0,0,.121.046c1.789,0,3.578.015,5.367,0a.856.856,0,0,0,.846-.9q.017-2.246,0-4.491a.9.9,0,0,0-.915-.93q-2.266-.018-4.53,0a.875.875,0,0,0-.887.9c-.01.278,0,.558,0,.839Z" transform="translate(-133.144 -0.005)" fill="#596273"/>
        <path id="Path_141" data-name="Path 141" d="M9.026,148v2.857a2.21,2.21,0,0,1-2.324,2.32H2.284a2.188,2.188,0,0,1-2.257-2.259q0-2.248,0-4.494a2.2,2.2,0,0,1,2.243-2.245c1.982-.009,3.964,0,5.942,0,.566,0,.812.249.813.813C9.029,145.987,9.026,146.994,9.026,148ZM7.677,145.58a.579.579,0,0,0-.121-.046c-1.789,0-3.578-.014-5.367,0a.854.854,0,0,0-.845.9q-.017,2.246,0,4.492a.9.9,0,0,0,.915.929q2.264.02,4.529,0a.875.875,0,0,0,.887-.9c.01-.291,0-.583,0-.875C7.678,148.58,7.677,147.084,7.677,145.58Z" transform="translate(-0.021 -133.179)" fill="#596273"/>
      </g>
    </g>
    <g id="user" transform="translate(250.318 779.002)">
      <path id="Path_142" data-name="Path 142" d="M91.848,9.632a4.66,4.66,0,0,0,3.405-1.411,4.66,4.66,0,0,0,1.411-3.405,4.661,4.661,0,0,0-1.411-3.405,4.815,4.815,0,0,0-6.81,0,4.66,4.66,0,0,0-1.411,3.4,4.66,4.66,0,0,0,1.411,3.405A4.662,4.662,0,0,0,91.848,9.632ZM89.271,2.239a3.643,3.643,0,0,1,5.153,0,3.482,3.482,0,0,1,1.068,2.576,3.482,3.482,0,0,1-1.068,2.577,3.643,3.643,0,0,1-5.153,0A3.481,3.481,0,0,1,88.2,4.816,3.481,3.481,0,0,1,89.271,2.239Zm0,0" transform="translate(-83.633)" fill="#393741"/>
      <path id="Path_143" data-name="Path 143" d="M16.641,253.033a11.9,11.9,0,0,0-.162-1.263,9.954,9.954,0,0,0-.311-1.27,6.274,6.274,0,0,0-.522-1.185,4.466,4.466,0,0,0-.787-1.026,3.472,3.472,0,0,0-1.131-.711,3.909,3.909,0,0,0-1.444-.261,1.466,1.466,0,0,0-.783.332c-.235.153-.509.33-.815.526a4.673,4.673,0,0,1-1.055.465,4.1,4.1,0,0,1-2.581,0A4.659,4.659,0,0,1,6,248.174c-.3-.194-.578-.371-.816-.526a1.464,1.464,0,0,0-.782-.332,3.9,3.9,0,0,0-1.444.262,3.469,3.469,0,0,0-1.131.711,4.467,4.467,0,0,0-.787,1.026A6.286,6.286,0,0,0,.512,250.5,9.978,9.978,0,0,0,.2,251.77a11.815,11.815,0,0,0-.162,1.264c-.027.382-.04.779-.04,1.181a3.32,3.32,0,0,0,.986,2.512,3.549,3.549,0,0,0,2.541.927h9.628a3.55,3.55,0,0,0,2.541-.927,3.319,3.319,0,0,0,.986-2.512c0-.4-.014-.8-.04-1.181Zm-1.754,2.844a2.39,2.39,0,0,1-1.733.6H3.527a2.39,2.39,0,0,1-1.733-.6,2.168,2.168,0,0,1-.622-1.663c0-.375.012-.745.037-1.1a10.656,10.656,0,0,1,.146-1.138,8.8,8.8,0,0,1,.273-1.12,5.118,5.118,0,0,1,.425-.963,3.311,3.311,0,0,1,.579-.758,2.3,2.3,0,0,1,.753-.468,2.7,2.7,0,0,1,.923-.178c.041.022.114.063.232.141.241.157.519.336.825.532a5.806,5.806,0,0,0,1.324.592,5.268,5.268,0,0,0,3.3,0,5.812,5.812,0,0,0,1.325-.592c.314-.2.584-.375.825-.532.118-.077.191-.119.232-.141a2.7,2.7,0,0,1,.923.178,2.307,2.307,0,0,1,.752.468,3.3,3.3,0,0,1,.579.758,5.1,5.1,0,0,1,.425.963,8.779,8.779,0,0,1,.273,1.12,10.747,10.747,0,0,1,.146,1.138h0c.025.354.037.724.038,1.1a2.168,2.168,0,0,1-.622,1.663Zm0,0" transform="translate(0 -237.658)" fill="#393741"/>
    </g>
    <g id="gift-box_3_" data-name="gift-box (3)" transform="translate(287.739 779.001)">
      <g id="Group_283" data-name="Group 283" transform="translate(32.828 -0.001)">
        <path id="Path_146" data-name="Path 146" d="M49.106,6.944l-1.96-.713a2.373,2.373,0,1,0-3.082-3.609l-1.353,1.2-.268-1.794a2.374,2.374,0,1,0-4.681.791l-1.848-.673a1.757,1.757,0,0,0-2.249,1.049l-.8,2.2a.585.585,0,0,0,.35.75l9.143,3.328H33.528a.585.585,0,0,0-.585.585v8.19A1.757,1.757,0,0,0,34.7,20H46.4a1.757,1.757,0,0,0,1.755-1.755V11.577l.453.165a.585.585,0,0,0,.75-.35l.8-2.2A1.757,1.757,0,0,0,49.106,6.944ZM38.792,18.827H34.7a.586.586,0,0,1-.585-.585v-7.6h4.68Zm2.34,0h-1.17v-8.19h1.17ZM44.838,3.5a1.2,1.2,0,1,1,.386,2.033l-1.9-.692ZM39.384,1.4a1.2,1.2,0,0,1,1.9.793l.3,2.009-1.9-.692A1.209,1.209,0,0,1,39.384,1.4Zm.276,5.837-5.5-2,.6-1.649a.586.586,0,0,1,.75-.35l4.947,1.8Zm2.2.8-1.1-.4.8-2.2,1.1.4Zm5.124,10.2a.586.586,0,0,1-.585.585H42.3v-8.19H45.57l1.412.514v7.091Zm2.073-9.449-.6,1.649-5.5-2,.8-2.2,4.947,1.8A.586.586,0,0,1,49.056,8.793Z" transform="translate(-32.828 0.001)" fill="#f2ae2e"/>
      </g>
    </g>
  </g>
</svg>
