<svg xmlns="http://www.w3.org/2000/svg" width="20.977" height="21.332" viewBox="0 0 20.977 21.332">
  <path id="price-tag" d="M.6.1a.355.355,0,0,1,.5,0L2.424,1.422H10.7L21.109,11.914a1.255,1.255,0,0,1,0,1.774l-7.277,7.277a1.257,1.257,0,0,1-1.778,0L1.921,10.554V1.925L.6.607A.355.355,0,0,1,.6.1ZM2.632,10.266l9.929,10.2a.544.544,0,0,0,.769,0l7.277-7.277a.545.545,0,0,0,0-.77L10.406,2.133H3.135L4.853,3.851a1.783,1.783,0,1,1-.5.5L2.632,2.636ZM4.766,5.333A1.067,1.067,0,1,0,5.832,4.266a1.054,1.054,0,0,0-.457.107l.708.708a.355.355,0,1,1-.5.5l-.708-.708A1.049,1.049,0,0,0,4.766,5.333Z" transform="translate(-0.499 0)" fill="#393741"/>
</svg>
