<svg xmlns="http://www.w3.org/2000/svg" width="22.396" height="22.378" viewBox="0 0 22.396 22.378">
  <g id="Layer_2" data-name="Layer 2" transform="translate(0.004 0.055)">
    <g id="Layer_1" data-name="Layer 1" transform="translate(-0.004 -0.055)">
      <path id="Path_167" data-name="Path 167" d="M10.6,2.566h1.273c.01-.193.022-.373.027-.553A1.982,1.982,0,0,1,14-.051h6.357A1.957,1.957,0,0,1,22.44,2.023V4.5a1.947,1.947,0,0,1-1.993,2q-3.238.01-6.475,0A1.967,1.967,0,0,1,11.9,4.488c-.006-.185,0-.37,0-.588H10.638c-.031.34-.039.671-.094.994a1.9,1.9,0,0,1-1.87,1.6q-3.357.015-6.715,0a1.926,1.926,0,0,1-1.9-1.923c-.009-.879-.006-1.759,0-2.638A1.955,1.955,0,0,1,2.03-.051q3.259-.009,6.517,0a1.974,1.974,0,0,1,2.053,2C10.6,2.14,10.6,2.336,10.6,2.566Zm-1.325.022c0-.233,0-.4,0-.576A.687.687,0,0,0,8.5,1.254q-3.175-.007-6.352,0a.705.705,0,0,0-.788.794q-.012,1.179,0,2.357a.709.709,0,0,0,.787.8c2.117.006,4.237,0,6.352,0,.368,0,.673-.128.747-.517a4.686,4.686,0,0,0,.009-.827H6.682V2.587Zm3.989,1.287c-.141,1.081.07,1.33,1.066,1.33h5.953c.6,0,.854-.249.857-.845,0-.732,0-1.464,0-2.2,0-.673-.24-.909-.917-.909H14.19c-.862,0-1.168.448-.879,1.337h2.5V3.876Z" transform="translate(-0.047 0.055)" fill="#393741"/>
      <path id="Path_168" data-name="Path 168" d="M174.025,112.921H164.88c-.026-.031-.056-.051-.056-.07a30.073,30.073,0,0,1,.1-4.182,4.277,4.277,0,0,1,3.481-3.583c.09-.022.181-.04.272-.063a1.014,1.014,0,0,0,.136-.074,3.4,3.4,0,0,1-2.223-1.544,3.182,3.182,0,0,1-.336-2.651,3.282,3.282,0,0,1,3.257-2.337,3.342,3.342,0,0,1,3.133,2.62,3.154,3.154,0,0,1-.518,2.508,3.83,3.83,0,0,1-2.1,1.454c.188.047.376.091.56.141a4.582,4.582,0,0,1,3.433,4.468C174.026,110.7,174.025,111.79,174.025,112.921Zm-7.883-1.335a.748.748,0,0,0,.148.04q3.073,0,6.146.006c.24,0,.288-.11.285-.32-.007-.612.019-1.225-.006-1.839a3.311,3.311,0,0,0-3.1-3.179,3.22,3.22,0,0,0-3.459,2.842A21.912,21.912,0,0,0,166.142,111.587Zm5.25-9.884a1.99,1.99,0,0,0-1.994-1.962,1.962,1.962,0,0,0-.006,3.923A2,2,0,0,0,171.393,101.7Z" transform="translate(-151.629 -90.544)" fill="#393741"/>
      <path id="Path_169" data-name="Path 169" d="M5.315,104.983c.186.048.415.1.64.165A4.523,4.523,0,0,1,9.209,109.3c.041,1.183.007,2.369.007,3.581H0v-.415a34.083,34.083,0,0,1,.08-3.63,4.45,4.45,0,0,1,3.54-3.775,1.752,1.752,0,0,0,.368-.116A3.64,3.64,0,0,1,1.757,103.3a3.117,3.117,0,0,1-.242-2.732,3.345,3.345,0,0,1,3.307-2.175,3.215,3.215,0,0,1,3.014,2.63,3.6,3.6,0,0,1-.12,1.679,3.71,3.71,0,0,1-.959,1.431A7.08,7.08,0,0,1,5.315,104.983ZM4.61,111.6H7.563c.2,0,.365,0,.357-.285-.017-.664.023-1.332-.022-1.994a3.259,3.259,0,0,0-3.074-3.054,3.258,3.258,0,0,0-3.466,2.849c-.09.735-.032,1.487-.05,2.231-.006.269.17.251.348.251Zm.03-7.967A1.975,1.975,0,0,0,6.6,101.685a1.955,1.955,0,0,0-1.97-1.97,1.961,1.961,0,1,0,.007,3.922Z" transform="translate(0.004 -90.517)" fill="#393741"/>
      <path id="Path_170" data-name="Path 170" d="M24.27,17.63H21.678V18.9h2.571a4.686,4.686,0,0,1-.009.827c-.074.389-.379.517-.747.517H17.141a.708.708,0,0,1-.787-.8q-.01-1.177,0-2.357a.706.706,0,0,1,.788-.794q3.177-.007,6.352,0a.686.686,0,0,1,.774.758C24.275,17.231,24.27,17.4,24.27,17.63Z" transform="translate(-15.043 -14.988)" fill="#fff"/>
      <path id="Path_171" data-name="Path 171" d="M164.655,18.9H167.2V17.607h-2.5c-.286-.89.02-1.337.879-1.337h6.032c.678,0,.915.236.917.909,0,.733,0,1.465,0,2.2,0,.6-.253.844-.857.845h-5.953C164.725,20.226,164.514,19.977,164.655,18.9Z" transform="translate(-151.438 -14.965)" fill="#fff"/>
      <path id="Path_172" data-name="Path 172" d="M181.215,202.279a21.822,21.822,0,0,1,.016-2.445,3.22,3.22,0,0,1,3.459-2.842,3.311,3.311,0,0,1,3.1,3.179c.026.611,0,1.224.006,1.839,0,.208-.046.32-.285.32-2.049-.007-4.1,0-6.146-.006A.747.747,0,0,1,181.215,202.279Z" transform="translate(-166.702 -181.236)" fill="#fff"/>
      <path id="Path_173" data-name="Path 173" d="M201.687,116.943a2,2,0,0,1-2,1.96,1.962,1.962,0,1,1,.006-3.923A1.99,1.99,0,0,1,201.687,116.943Z" transform="translate(-181.923 -105.784)" fill="#fff"/>
      <path id="Path_174" data-name="Path 174" d="M19.692,202.334H16.738c-.177,0-.354.018-.348-.251.018-.744-.041-1.5.05-2.231a3.288,3.288,0,0,1,6.541.207c.045.663,0,1.33.022,1.994.007.283-.155.285-.357.285H19.692Z" transform="translate(-15.077 -181.248)" fill="#fff"/>
      <path id="Path_175" data-name="Path 175" d="M35.033,118.921A1.961,1.961,0,1,1,35.026,115,1.955,1.955,0,0,1,37,116.971,1.975,1.975,0,0,1,35.033,118.921Z" transform="translate(-30.389 -105.802)" fill="#fff"/>
    </g>
  </g>
</svg>
