<svg xmlns="http://www.w3.org/2000/svg" width="24.635" height="27.421" viewBox="0 0 24.635 27.421">
  <g id="santa-claus" transform="translate(-26.004 0)">
    <g id="Group_322" data-name="Group 322" transform="translate(26.004 0)">
      <path id="Path_162" data-name="Path 162" d="M46.287,5.5a2.741,2.741,0,0,0,1.655.551,2.658,2.658,0,0,0,2.7-2.61,2.658,2.658,0,0,0-2.7-2.61,2.729,2.729,0,0,0-2.07.939A16.5,16.5,0,0,0,39.421.026a11.572,11.572,0,0,0-6.577,1.38,7.784,7.784,0,0,0-3.8,6.763,1.575,1.575,0,0,0-1.091,1.5V10.7a1.564,1.564,0,0,0,.1.562,2.517,2.517,0,0,0,.113,4.965c0,.085,0,.17.005.253a3.338,3.338,0,0,1-.348,1.732,3.98,3.98,0,0,0-.415,1.811,4.544,4.544,0,0,0,4.619,4.454,1.057,1.057,0,0,1,.977.486,4.7,4.7,0,0,0,8.255,0,1.057,1.057,0,0,1,.977-.486,4.544,4.544,0,0,0,4.619-4.454,3.98,3.98,0,0,0-.415-1.811,3.337,3.337,0,0,1-.348-1.732c0-.083,0-.168.005-.253a2.517,2.517,0,0,0,.113-4.965,1.564,1.564,0,0,0,.1-.562V9.667a1.575,1.575,0,0,0-1.1-1.5,7.542,7.542,0,0,0-.387-1.957c.477-.223.964-.46,1.454-.709Zm1.655-3.6a1.586,1.586,0,0,1,1.626,1.539,1.629,1.629,0,0,1-3.253,0A1.586,1.586,0,0,1,47.942,1.9ZM27.075,13.738a1.507,1.507,0,0,1,1.545-1.461h.1a10.8,10.8,0,0,0-.527,2.865A1.478,1.478,0,0,1,27.075,13.738Zm15.162,9.673a2.07,2.07,0,0,0-1.926,1.061,3.628,3.628,0,0,1-6.356,0,2.07,2.07,0,0,0-1.926-1.061,3.472,3.472,0,0,1-3.548-3.383A2.912,2.912,0,0,1,28.8,18.65a4.383,4.383,0,0,0,.439-2.2,9.966,9.966,0,0,1,.636-4.173h.257c-.137,1.992.01,3.455.967,4.15.89.646,2.3.5,4.586-.47a3.717,3.717,0,0,1,2.888,0,8.758,8.758,0,0,0,3.225.864,2.241,2.241,0,0,0,1.361-.394c.957-.7,1.1-2.158.967-4.15h.257a9.967,9.967,0,0,1,.636,4.173,4.382,4.382,0,0,0,.439,2.2,2.912,2.912,0,0,1,.324,1.377A3.472,3.472,0,0,1,42.237,23.411Zm.819-11.134c.1,1.371.087,2.84-.523,3.284-.528.384-1.718.186-3.537-.589a4.788,4.788,0,0,0-3.727,0c-1.819.774-3.009.972-3.537.589-.611-.444-.622-1.913-.523-3.284H43.056Zm4.134,1.461a1.478,1.478,0,0,1-1.119,1.4,10.806,10.806,0,0,0-.527-2.865h.1A1.507,1.507,0,0,1,47.19,13.738ZM45.244,10.7a.5.5,0,0,1-.5.5H29.522a.5.5,0,0,1-.5-.5V9.667a.5.5,0,0,1,.5-.5h5.2a.536.536,0,1,0,0-1.071H30.116a6.738,6.738,0,0,1,3.273-5.766C36.437.524,41.405.7,45.354,2.709a2.526,2.526,0,0,0,.207,1.959q-.578.289-1.142.554a7.752,7.752,0,0,0-1.042-1.561.536.536,0,1,0-.812.7A6.587,6.587,0,0,1,44.14,8.094h-4.6a.536.536,0,1,0,0,1.071h5.2a.5.5,0,0,1,.5.5V10.7Z" transform="translate(-26.004 0)" fill="#393741"/>
      <path id="Path_163" data-name="Path 163" d="M284.34,253.572a.536.536,0,0,0,0-1.071h0a.536.536,0,0,0,0,1.071Z" transform="translate(-269.998 -238.978)" fill="#393741"/>
      <path id="Path_164" data-name="Path 164" d="M164.335,253.572a.536.536,0,0,0,0-1.071h0a.536.536,0,0,0,0,1.071Z" transform="translate(-156.419 -238.978)" fill="#393741"/>
      <path id="Path_165" data-name="Path 165" d="M197.817,315.865a.535.535,0,0,0-.732.2,1.32,1.32,0,0,1-2.286,0,.536.536,0,1,0-.928.535,2.391,2.391,0,0,0,4.141,0A.536.536,0,0,0,197.817,315.865Z" transform="translate(-184.814 -298.881)" fill="#393741"/>
      <path id="Path_166" data-name="Path 166" d="M224.342,151.126h0a.536.536,0,1,0,.536.536A.535.535,0,0,0,224.341,151.126Z" transform="translate(-213.213 -143.033)" fill="#393741"/>
    </g>
  </g>
</svg>
