<svg xmlns="http://www.w3.org/2000/svg" xmlns:xlink="http://www.w3.org/1999/xlink" width="86.222" height="26.167" viewBox="0 0 86.222 26.167">
  <defs>
    <filter id="Path_107" x="0" y="0" width="86.222" height="26.167" filterUnits="userSpaceOnUse">
      <feOffset dy="2" input="SourceAlpha"/>
      <feGaussianBlur stdDeviation="1" result="blur"/>
      <feFlood flood-opacity="0.161"/>
      <feComposite operator="in" in2="blur"/>
      <feComposite in="SourceGraphic"/>
    </filter>
  </defs>
  <g id="Group_1968" data-name="Group 1968" transform="translate(-176.001 -1410.926)">
    <g id="Group_635" data-name="Group 635" transform="translate(179 1411.926)">
      <g id="Layer_2" data-name="Layer 2" transform="translate(0 0)">
        <g id="Слой_1" data-name="Слой 1" transform="translate(0 0)">
          <rect id="Rectangle_398" data-name="Rectangle 398" width="2.888" height="5.081" transform="translate(0 17.12)" fill="#f2d750"/>
          <path id="Path_106" data-name="Path 106" d="M1443.26,2.035h0A2.035,2.035,0,0,0,1445.3,4.07h.853V0h-.853a2.035,2.035,0,0,0-2.036,2.035Z" transform="translate(-1443.259 20.166)" fill="#f2ae2e"/>
          <g transform="matrix(1, 0, 0, 1, -3, -1)" filter="url(#Path_107)">
            <path id="Path_107-2" data-name="Path 107" d="M.021,80.916V62.851a1.93,1.93,0,0,1,1.694-2.1H79.4a.857.857,0,0,1,.771.616,1.253,1.253,0,0,1-.134,1.125l-4.808,6.82a2.741,2.741,0,0,0,0,3.042l4.808,6.822a1.252,1.252,0,0,1,.135,1.126.856.856,0,0,1-.771.616Z" transform="translate(2.98 -59.75)" fill="#f2d750"/>
          </g>
        </g>
      </g>
    </g>
    <path id="Path_4539" data-name="Path 4539" d="M-49.176.12A3.812,3.812,0,0,1-52.068-.912l.372-.648a3.4,3.4,0,0,0,2.46.924,2.934,2.934,0,0,0,1.686-.432,1.334,1.334,0,0,0,.63-1.152A1.3,1.3,0,0,0-47.5-3.33a5.933,5.933,0,0,0-1.722-.75l-.6-.18a4.4,4.4,0,0,1-1.692-.822,1.841,1.841,0,0,1-.612-1.482,2.156,2.156,0,0,1,.834-1.764A3.4,3.4,0,0,1-49.092-9a3.858,3.858,0,0,1,2.76,1.02l-.432.636a3.3,3.3,0,0,0-2.34-.9,2.454,2.454,0,0,0-1.506.426A1.335,1.335,0,0,0-51.18-6.7a1.192,1.192,0,0,0,.468,1.02,4.243,4.243,0,0,0,1.344.6l.612.18a8.694,8.694,0,0,1,.99.354,5.476,5.476,0,0,1,.87.486,2.109,2.109,0,0,1,.684.738,2.051,2.051,0,0,1,.24,1,2.113,2.113,0,0,1-.882,1.764A3.731,3.731,0,0,1-49.176.12Zm8.928,0A4.351,4.351,0,0,1-43.5-1.14a4.542,4.542,0,0,1-1.236-3.324A4.469,4.469,0,0,1-43.5-7.752,4.374,4.374,0,0,1-40.248-9,4.344,4.344,0,0,1-36.9-7.56l-.576.588a3.48,3.48,0,0,0-2.736-1.272A3.387,3.387,0,0,0-42.8-7.206a3.835,3.835,0,0,0-.978,2.742A3.932,3.932,0,0,0-42.8-1.692,3.324,3.324,0,0,0-40.236-.636a3.4,3.4,0,0,0,2.964-1.548l.624.576a4.119,4.119,0,0,1-1.53,1.272A4.638,4.638,0,0,1-40.248.12Zm6.1-8.22A3.81,3.81,0,0,1-31.5-9a3.81,3.81,0,0,1,2.646.9,3.054,3.054,0,0,1,1,2.388V0h-.912V-3.024h-5.484V0h-.9V-5.712A3.054,3.054,0,0,1-34.146-8.1Zm-.1,4.32h5.484v-1.9a2.439,2.439,0,0,0-.75-1.86A2.775,2.775,0,0,0-31.5-8.244a2.8,2.8,0,0,0-1.992.708,2.43,2.43,0,0,0-.756,1.86ZM-25.536,0V-8.88h.588l6.168,7.3-.012-7.3h.912V0h-.588l-6.168-7.3.012,7.3Zm10.992-.756h4.668V0h-5.58V-8.88h5.472v.756h-4.56v3.216h4.26v.756h-4.26Zm9.6-8.124A4.147,4.147,0,0,1-1.818-7.656,4.467,4.467,0,0,1-.636-4.416a4.4,4.4,0,0,1-1.182,3.2A4.158,4.158,0,0,1-4.944,0H-7.956V-8.88ZM-5.016-.756a3.248,3.248,0,0,0,2.49-1.008,3.728,3.728,0,0,0,.942-2.652A3.805,3.805,0,0,0-2.526-7.1a3.229,3.229,0,0,0-2.49-1.02H-7.044V-.756Z" transform="translate(243 1426.778)" fill="#515a6b"/>
  </g>
</svg>
