<svg id="Group_275" data-name="Group 275" xmlns="http://www.w3.org/2000/svg" width="16.338" height="16.338" viewBox="0 0 16.338 16.338">
  <g id="search-interface-symbol" transform="translate(0)">
    <g id="_x34__4_">
      <g id="Group_88" data-name="Group 88">
        <path id="Path_53" data-name="Path 53" d="M16.189,15.449,11.971,11.3a6.672,6.672,0,0,0,1.783-4.534A6.82,6.82,0,0,0,6.88,0,6.82,6.82,0,0,0,.006,6.765,6.82,6.82,0,0,0,6.88,13.529a6.913,6.913,0,0,0,4.327-1.511l4.235,4.167a.535.535,0,0,0,.748,0A.515.515,0,0,0,16.189,15.449ZM6.88,12.488A5.771,5.771,0,0,1,1.064,6.765,5.771,5.771,0,0,1,6.88,1.041,5.771,5.771,0,0,1,12.7,6.765,5.771,5.771,0,0,1,6.88,12.488Z" transform="translate(-0.006 0)" fill="#6e6e6e"/>
      </g>
    </g>
  </g>
</svg>
