<svg xmlns="http://www.w3.org/2000/svg" xmlns:xlink="http://www.w3.org/1999/xlink" width="86.222" height="26.167" viewBox="0 0 86.222 26.167">
  <defs>
    <filter id="Path_107" x="0" y="0" width="86.222" height="26.167" filterUnits="userSpaceOnUse">
      <feOffset dy="2" input="SourceAlpha"/>
      <feGaussianBlur stdDeviation="1" result="blur"/>
      <feFlood flood-opacity="0.161"/>
      <feComposite operator="in" in2="blur"/>
      <feComposite in="SourceGraphic"/>
    </filter>
  </defs>
  <g id="Group_1968" data-name="Group 1968" transform="translate(-176.001 -1410.926)">
    <g id="Group_635" data-name="Group 635" transform="translate(179 1411.926)">
      <g id="Layer_2" data-name="Layer 2" transform="translate(0 0)">
        <g id="Слой_1" data-name="Слой 1" transform="translate(0 0)">
          <rect id="Rectangle_398" data-name="Rectangle 398" width="2.888" height="5.081" transform="translate(0 17.12)" fill="#f2d750"/>
          <path id="Path_106" data-name="Path 106" d="M1443.26,2.035h0A2.035,2.035,0,0,0,1445.3,4.07h.853V0h-.853a2.035,2.035,0,0,0-2.036,2.035Z" transform="translate(-1443.259 20.166)" fill="#f2ae2e"/>
          <g transform="matrix(1, 0, 0, 1, -3, -1)" filter="url(#Path_107)">
            <path id="Path_107-2" data-name="Path 107" d="M.021,80.916V62.851a1.93,1.93,0,0,1,1.694-2.1H79.4a.857.857,0,0,1,.771.616,1.253,1.253,0,0,1-.134,1.125l-4.808,6.82a2.741,2.741,0,0,0,0,3.042l4.808,6.822a1.252,1.252,0,0,1,.135,1.126.856.856,0,0,1-.771.616Z" transform="translate(2.98 -59.75)" fill="#f2d750"/>
          </g>
        </g>
      </g>
    </g>
    <path id="Path_4540" data-name="Path 4540" d="M-28.344.12A3.812,3.812,0,0,1-31.236-.912l.372-.648a3.4,3.4,0,0,0,2.46.924,2.934,2.934,0,0,0,1.686-.432,1.334,1.334,0,0,0,.63-1.152,1.3,1.3,0,0,0-.582-1.11,5.933,5.933,0,0,0-1.722-.75l-.6-.18a4.4,4.4,0,0,1-1.692-.822A1.841,1.841,0,0,1-31.3-6.564a2.156,2.156,0,0,1,.834-1.764A3.4,3.4,0,0,1-28.26-9,3.858,3.858,0,0,1-25.5-7.98l-.432.636a3.3,3.3,0,0,0-2.34-.9,2.454,2.454,0,0,0-1.506.426,1.335,1.335,0,0,0-.57,1.122,1.192,1.192,0,0,0,.468,1.02,4.243,4.243,0,0,0,1.344.6l.612.18a8.694,8.694,0,0,1,.99.354,5.476,5.476,0,0,1,.87.486,2.109,2.109,0,0,1,.684.738,2.051,2.051,0,0,1,.24,1,2.113,2.113,0,0,1-.882,1.764A3.731,3.731,0,0,1-28.344.12Zm5.94-.876h4.668V0h-5.58V-8.88h5.472v.756H-22.4v3.216h4.26v.756H-22.4ZM-15.816,0V-8.88h.588l6.168,7.3-.012-7.3h.912V0h-.588l-6.168-7.3L-14.9,0ZM-.156-8.88v.756H-3.012V0h-.912V-8.124H-6.792V-8.88Z" transform="translate(233.947 1426.778)" fill="#515a6b"/>
  </g>
</svg>
