<svg xmlns="http://www.w3.org/2000/svg" width="28.202" height="27.74" viewBox="0 0 28.202 27.74">
  <g id="kids" transform="translate(-15.999 -16)">
    <path id="Path_416" data-name="Path 416" d="M43.851,28.959c-1.388-.347-1.491-2.572-1.5-3.879a1.844,1.844,0,0,0-.007-2.449,7.108,7.108,0,0,0-1.91-4.589,6.1,6.1,0,0,0-9.112,0,7.108,7.108,0,0,0-1.91,4.589l-.007.008V22.01a5.842,5.842,0,0,0-1.936-4.15,6.461,6.461,0,0,0-9.073,0,5.842,5.842,0,0,0-1.936,4.15v.628a1.848,1.848,0,0,0,1.387,3.071,1.877,1.877,0,0,0,.19-.01,5.085,5.085,0,0,0,1.176,2.086A6.023,6.023,0,0,0,16,33.106V43.277a.462.462,0,0,0,.462.462h25.89a.462.462,0,0,0,.462-.462V33.106a5.989,5.989,0,0,0-.188-1.487,2.047,2.047,0,0,0,1.3-1.08,2.739,2.739,0,0,0,.28-1.131.462.462,0,0,0-.35-.449ZM41.89,35.418h-.925V30.185a5.083,5.083,0,0,1,.925,2.922Zm-1.849,7.4h-3.7V31.626l1.195-.8a.462.462,0,0,0,.192-.273l.421-1.682a5.081,5.081,0,0,0,.7-.424,5.063,5.063,0,0,1,1.188.733ZM18.773,40.966h3.7v1.849h-3.7Zm4.623,0h3.7v1.849H23.4Zm4.623-4.623h.925v6.473H28.02Zm.925-12.483a.926.926,0,0,1-.925.925H28c.014-.152.021-.306.021-.461V22.935a.926.926,0,0,1,.925.925Zm1.849-.925v1.387c0,.156.007.309.021.461h-.021a.925.925,0,0,1,0-1.849ZM27.83,25.7a1.878,1.878,0,0,0,.19.01,1.845,1.845,0,0,0,1.379-.618c-.041,1.4-.276,3.1-1.491,3.406a.462.462,0,0,0-.129.055,5.986,5.986,0,0,0-1.124-.766A5.085,5.085,0,0,0,27.83,25.7Zm2.472-.057a1.844,1.844,0,0,0,.492.067,1.877,1.877,0,0,0,.19-.01,5.085,5.085,0,0,0,1.176,2.086A6.027,6.027,0,0,0,29.407,30.8a6.04,6.04,0,0,0-.919-1.524c1.416-.6,1.736-2.388,1.814-3.633Zm-.433,7.464a5.083,5.083,0,0,1,.925-2.922v5.233h-.925Zm1.849-3.923a5.064,5.064,0,0,1,1.192-.735,5.093,5.093,0,0,0,.73.439l.417,1.669a.462.462,0,0,0,.192.273l1.167.778V42.815h-3.7Zm4.175,1.63-.982-.654-.223-.893a5.092,5.092,0,0,0,2.412-.007l-.225.9Zm-.014-2.33a4.166,4.166,0,0,1-4.161-4.161v-1a2.083,2.083,0,0,0,1.338-1.108c.064-.127.126-.239.187-.339a.462.462,0,1,0,.651-.657l-.015-.015a1.087,1.087,0,0,1,.542-.12,1.762,1.762,0,0,0,1.438-.791,1.679,1.679,0,0,0,1.407.791,1.232,1.232,0,0,1,.6.136.462.462,0,0,0,.649.658c.063.1.126.212.189.338a2.094,2.094,0,0,0,1.167,1.054c.06.022.117.04.171.055v1a4.2,4.2,0,0,1-.065.737,4.154,4.154,0,0,1-4.1,3.423Zm5.086-4.161V22.935a.925.925,0,0,1,0,1.849h-.021C40.958,24.63,40.965,24.476,40.965,24.322Zm-1.2-5.648a6.162,6.162,0,0,1,1.606,3.381,1.846,1.846,0,0,0-1.394.244,1.192,1.192,0,0,1-.444-.5,4.415,4.415,0,0,0-.351-.589l.264-.264a.462.462,0,1,0-.654-.654l-.256.256a2.132,2.132,0,0,0-1.266-.392c-.6,0-.868-.791-.925-.985V16.946A5.363,5.363,0,0,1,39.761,18.674Zm-7.763,0a5.363,5.363,0,0,1,3.419-1.728v2.217c-.075.215-.388,1-1,1a1.992,1.992,0,0,0-1.211.376l-.24-.24a.462.462,0,0,0-.654.654l.26.26a4.95,4.95,0,0,0-.346.594,1.2,1.2,0,0,1-.444.5,1.845,1.845,0,0,0-1.394-.244A6.162,6.162,0,0,1,32,18.674Zm-12.965-.143a5.538,5.538,0,0,1,7.8,0,4.919,4.919,0,0,1,1.647,3.479v.059a1.846,1.846,0,0,0-.462-.059h-.462a.462.462,0,0,0-.179.036c-.062.026-.123.057-.188.09a2.777,2.777,0,0,1-1.164.325,7.241,7.241,0,0,0-.948-1.658.466.466,0,0,0-.521-.163.451.451,0,0,0-.308.439c0,.1-.063,1-1.316,1.375-1.253-.377-1.313-1.271-1.316-1.369a.455.455,0,0,0-.308-.442.465.465,0,0,0-.521.16,7.238,7.238,0,0,0-.947,1.657,2.934,2.934,0,0,1-1.111-.309c-.089-.041-.172-.08-.258-.112a.462.462,0,0,0-.162-.029h-.462a1.846,1.846,0,0,0-.462.059V22.01A4.919,4.919,0,0,1,19.033,18.532Zm-1.185,6.253a.925.925,0,0,1,0-1.849v1.387c0,.156.007.309.021.461Zm.925-1.612a3.971,3.971,0,0,0,1.387.225.463.463,0,0,0,.442-.326,5.7,5.7,0,0,1,.418-.932,2.821,2.821,0,0,0,1.8,1.243.464.464,0,0,0,.233,0,2.821,2.821,0,0,0,1.8-1.243,5.705,5.705,0,0,1,.417.931.462.462,0,0,0,.442.326,4.116,4.116,0,0,0,1.387-.212v1.137a4.161,4.161,0,0,1-8.322,0Zm5.9,5.928a1.849,1.849,0,0,1-3.486,0,5.09,5.09,0,0,0,3.486,0Zm-4.712-.652q.1.07.2.136a2.773,2.773,0,0,0,5.543,0q.1-.066.2-.136a5.1,5.1,0,0,1,3.041,4.658v2.312H28.02V34.031a.462.462,0,1,0-.925,0v6.01H18.773v-6.01a.462.462,0,1,0-.925,0v1.387h-.925V33.106a5.1,5.1,0,0,1,3.041-4.658Zm-3.041,7.894h.925v6.473h-.925Zm12.945,0h.925v6.473h-.925Zm11.1,6.473V36.342h.925v6.473Zm2.117-12.666a1.12,1.12,0,0,1-.754.6A6.026,6.026,0,0,0,39.6,27.788,5.057,5.057,0,0,0,40.776,25.7a1.869,1.869,0,0,0,.189.01,1.845,1.845,0,0,0,.473-.062c.048,1.448.316,3.422,1.8,4.075a1.734,1.734,0,0,1-.152.427Z" transform="translate(0)" fill="#393741"/>
    <circle id="Ellipse_17" data-name="Ellipse 17" cx="0.371" cy="0.371" r="0.371" transform="translate(20.451 23.932)" fill="#393741"/>
    <circle id="Ellipse_18" data-name="Ellipse 18" cx="0.371" cy="0.371" r="0.371" transform="translate(24.162 23.932)" fill="#393741"/>
    <circle id="Ellipse_19" data-name="Ellipse 19" cx="0.371" cy="0.371" r="0.371" transform="translate(33.811 23.932)" fill="#393741"/>
    <circle id="Ellipse_20" data-name="Ellipse 20" cx="0.371" cy="0.371" r="0.371" transform="translate(37.522 23.932)" fill="#393741"/>
    <path id="Path_417" data-name="Path 417" d="M104.135,184.135a.462.462,0,0,0,0,.654,2.456,2.456,0,0,0,1.714.6h0a2.456,2.456,0,0,0,1.714-.6.462.462,0,0,0-.654-.654,1.882,1.882,0,0,1-2.12,0A.462.462,0,0,0,104.135,184.135Z" transform="translate(-82.915 -158.291)" fill="#393741"/>
    <path id="Path_418" data-name="Path 418" d="M330.909,184.135a1.882,1.882,0,0,1-2.12,0,.462.462,0,1,0-.654.654,2.456,2.456,0,0,0,1.714.6h0a2.455,2.455,0,0,0,1.714-.6.462.462,0,1,0-.654-.654Z" transform="translate(-293.97 -158.291)" fill="#393741"/>
  </g>
</svg>
