<svg xmlns="http://www.w3.org/2000/svg" xmlns:xlink="http://www.w3.org/1999/xlink" width="73.655" height="92.28" viewBox="0 0 73.655 92.28">
  <defs>
    <clipPath id="clip-path">
      <path id="Path_951" data-name="Path 951" d="M186.128,423.726c-.048-.222-.348-1.531.6-.505a2.445,2.445,0,0,0,1.943.5c1.431-.078,1.623,1.109,1.671,2.184-1.361,1.239-6.06-.059-6.351-.283.058-1.193.548-1.492.376-2.022C184.5,423.3,185.7,423.551,186.128,423.726Z" transform="translate(-183.995 -422.833)" fill="none"/>
    </clipPath>
    <clipPath id="clip-path-2">
      <path id="Path_954" data-name="Path 954" d="M157.64,427.168c-.062-.2-.443-1.385.625-.53a2.873,2.873,0,0,0,2.107.269c1.532-.217,1.791.865,1.891,1.858-1.4,1.288-6.5.557-6.825.378.009-1.113.521-1.44.311-1.914C155.872,426.936,157.172,427.049,157.64,427.168Z" transform="translate(-155.438 -426.332)" fill="none"/>
    </clipPath>
    <clipPath id="clip-path-3">
      <path id="Path_957" data-name="Path 957" d="M164.539,361.925a1.843,1.843,0,0,0-.207-.33c-.7-.863-3.095-1.571-3.095-1.571s-1.441.669-1.778.88c-4.3,2.682-4.768,7.218-5.022,10.008,1.176.724,5.728,1.363,8.76,1.34a.034.034,0,0,0,0,.012c.207.211,5.481-.608,5.481-.608s-.057-2.978-.445-5.881c-.281-2.1-.934-4.386-.894-4.409h0A16.5,16.5,0,0,1,164.539,361.925Z" transform="translate(-154.437 -360.024)" fill="none"/>
    </clipPath>
    <clipPath id="clip-path-4">
      <path id="Path_962" data-name="Path 962" d="M163.925,332.337s1.792,1.066,2.663.542A1.526,1.526,0,0,0,167.42,331a4.126,4.126,0,0,1,2.218,2.018c1.116,2,2.205,9.216,2.241,9.507a4.524,4.524,0,0,1-3.67,2.31c-5.564.67-6.844-.984-7.051-1.044-.174-.051-.336-8.1,1.068-10.138A4.482,4.482,0,0,1,163.925,332.337Z" transform="translate(-161.047 -330.998)" fill="none"/>
    </clipPath>
  </defs>
  <g id="Group_833" data-name="Group 833" transform="translate(-124.654 -117.117)">
    <g id="Group_794" data-name="Group 794" transform="translate(153.509 117.118)">
      <g id="Group_793" data-name="Group 793" transform="translate(0 0)">
        <g id="Group_776" data-name="Group 776" transform="translate(14.434 85.113)">
          <path id="Path_922" data-name="Path 922" d="M279.522,418.734s-3.73,2.352-4.269,3.525c-.3.653,2.868.4,4.815-.322l1.36-.9.195.918,1.131-.057s.175-1.108.338-2.363c.058-.442-.336-2.737-.65-2.7Z" transform="translate(-275.233 -416.837)" fill="#142238" fill-rule="evenodd"/>
        </g>
        <g id="Group_777" data-name="Group 777" transform="translate(16.462 28.827)">
          <path id="Path_923" data-name="Path 923" d="M291.712,224.6c-4.013-.509-8.4-.2-6.4,12.226.42,2.605.5,5.333.735,7.939.264,2.919,1.186,5.938,1.215,8.846.054,5.285-1.366,25.708-1.957,27.757-.379,1.314-3.546,3.177-3.1,3.179.845.005,4.107-1.058,4.941-2.748a110.7,110.7,0,0,0,6.339-20.1c.427-2.679-1.92-7.665-1.865-7.923.715-3.379,1.38-7.369,2.421-10.918a43.082,43.082,0,0,0,1.256-13.12C295.187,227.843,293.772,224.862,291.712,224.6Z" transform="translate(-282.162 -224.465)" fill="#ffc7b5" fill-rule="evenodd"/>
        </g>
        <g id="Group_780" data-name="Group 780" transform="translate(25.8 48.4)">
          <g id="Group_778" data-name="Group 778" transform="translate(13.353 36.447)">
            <path id="Path_924" data-name="Path 924" d="M359.719,417.079a31.082,31.082,0,0,0,.357,3.7c.44,2.633,1.615,3.943,2.575.5.215-.772.039-4.318-1.285-5.139S359.719,417.079,359.719,417.079Z" transform="translate(-359.719 -415.926)" fill="#142238" fill-rule="evenodd"/>
          </g>
          <g id="Group_779" data-name="Group 779">
            <path id="Path_925" data-name="Path 925" d="M314.737,302.85c1.011,1.481,2.466,2.8,3.271,4.406a123.774,123.774,0,0,1,5.891,12.611c.9,2.43,2.4,5.752,3.325,8.175.515,1.346.419,5.139,1.584,4.628,1.3-.571-.03-5.8-.159-6.615-.4-2.561-1.255-11.661-1.56-13.259-.772-4.045-3.615-7.225-6.436-9.871-.564-.529-1.657-8.025-2.844-10.427C315.37,287.563,312.857,300.094,314.737,302.85Z" transform="translate(-314.08 -291.358)" fill="#ffc7b5" fill-rule="evenodd"/>
          </g>
        </g>
        <g id="Group_781" data-name="Group 781" transform="translate(9.351)">
          <path id="Path_926" data-name="Path 926" d="M258.652,130.42c1.272-1.821,5.056-3.98,7.979-4.447a3.855,3.855,0,0,1,4.425,3.126c.617,2.91,2.229,2.367,3.627,4.29a3.6,3.6,0,0,1-.126,4.472,1.623,1.623,0,0,0-1.091-2.152,2.442,2.442,0,0,1-1.688-1.512s-.408,1.056,1.325,1.7a1.738,1.738,0,0,1,1.094,2.206,5.443,5.443,0,0,1-2.679,2.261c-1.9.764-9.343,3.423-11.216,2.3a3.473,3.473,0,0,0,.318-4.024s.809,2.986-.909,3.957l-1.724-1.779s2.608-1.6,1.011-3.925C257.668,134.956,257.44,132.155,258.652,130.42Z" transform="translate(-257.86 -125.939)" fill="#df6b6b" fill-rule="evenodd"/>
        </g>
        <g id="Group_782" data-name="Group 782" transform="translate(10.746 2.259)">
          <path id="Path_927" data-name="Path 927" d="M272.773,135.121c2.631,6.58-4.224,11.74-5.614,11.08-3.5-1.661-5.205-7.105-4.286-8.96C264.589,133.78,271.664,132.348,272.773,135.121Z" transform="translate(-262.627 -133.659)" fill="#ffc7b5" fill-rule="evenodd"/>
        </g>
        <g id="Group_783" data-name="Group 783" transform="translate(10.476 1.561)">
          <path id="Path_928" data-name="Path 928" d="M261.7,135.394a5.557,5.557,0,0,0,4.25,3.585l-.505-1.7s.625,1.783,4.064,1c0,0,1.736,1.358,1.258,2.477,0,0,1.105-.94-.356-2.9,0,0,.037-1.195,1.1-.978.951.193.848,1.881-.051,2.84,0,0-.3.907-.386,1.224-.262.952,1.754,1.973,1.094,2.631l1.028-.363a5.191,5.191,0,0,0-.343-2.639,3.341,3.341,0,0,1,.827,2.164s2.644-.355,2.685-1.7c0,0-3.542-3.13-2.948-6.107S266.626,128.256,261.7,135.394Z" transform="translate(-261.705 -131.273)" fill="#df6b6b" fill-rule="evenodd"/>
        </g>
        <g id="Group_784" data-name="Group 784" transform="translate(15.584 9.672)">
          <path id="Path_929" data-name="Path 929" d="M279.171,161.331c-.144-.365,1.812-3.678,3.459-1.722,1.476,1.753,2.62,3.972,3.569,5.009.517.566-2.62,4.5-4.879,3.111C281.267,167.7,280.16,163.849,279.171,161.331Z" transform="translate(-279.163 -158.996)" fill="#ffc7b5" fill-rule="evenodd"/>
        </g>
        <g id="Group_787" data-name="Group 787" transform="translate(0 16.568)">
          <g id="Group_785" data-name="Group 785" transform="translate(2.421)">
            <path id="Path_930" data-name="Path 930" d="M246.872,185.943c-1.4,2.807,1.345,13.9-11.343,26-2.232,2.129-1.664,4.113,1.425,1.972,11.262-7.806,16.562-20.865,15.21-27.568C251.169,181.416,249.174,181.334,246.872,185.943Z" transform="translate(-234.176 -182.566)" fill="#f9c1b6" fill-rule="evenodd"/>
          </g>
          <g id="Group_786" data-name="Group 786" transform="translate(0 29.381)">
            <path id="Path_931" data-name="Path 931" d="M229.674,282.985a7.605,7.605,0,0,0-1.206.807,4.2,4.2,0,0,1-1.416.616c-.553.151-.49-.045-.751.019-.055.013.026.189.381.376a1.033,1.033,0,0,0,.84.063c-.4.462-1.9,2.028-1.58,2.256.167.121,1.76-1.681,1.75-1.656-.079.211-.683,1.4-.945,1.83s-.187.5-.167.561.189-.076.284-.208c.306-.424,1.369-1.7,1.458-1.862a21.158,21.158,0,0,0-.672,2.055c-.074.391-.006.716.316.122a10.92,10.92,0,0,0,.538-1.361c.078-.208.29-.551.368-.758.034-.09-.12,1-.136,1.392a2.212,2.212,0,0,0,.061.638c.028.119.226.014.259-.168a4.909,4.909,0,0,1,.307-1.377,3.537,3.537,0,0,1,1.1-1.385C230.79,284.686,229.674,282.985,229.674,282.985Z" transform="translate(-225.9 -282.985)" fill="#f9c1b6" fill-rule="evenodd"/>
          </g>
        </g>
        <g id="Group_788" data-name="Group 788" transform="translate(15.93 13.488)">
          <path id="Path_932" data-name="Path 932" d="M290.649,191.526c-1.911,1.7-4.581.389-4.581.389s-6.548-8.775-5.635-11.631a42.264,42.264,0,0,0,1.036-5.494s1.226,3.978,4.126-2.74c.031-.072,2,.268,2.554.321.928.086,3.067,4.352,3.091,4.438.577,2.091,1.5,9.868,1.5,9.868S292.5,189.877,290.649,191.526Z" transform="translate(-280.346 -172.039)" fill="#fff" fill-rule="evenodd"/>
        </g>
        <g id="Group_789" data-name="Group 789" transform="translate(16.936 28.868)">
          <path id="Path_933" data-name="Path 933" d="M286.388,225.913s-2.136,5.86-2.08,15.721c.061,10.946-.525,33.952-.525,33.952s14.72,4.266,24.157-.558c0,0-.318-11.038-1.939-23.04-1.53-11.324-4.156-23.527-10.892-27.384a18.952,18.952,0,0,1-5.294,1.62A15.732,15.732,0,0,1,286.388,225.913Z" transform="translate(-283.783 -224.604)" fill="#142238" fill-rule="evenodd"/>
        </g>
        <g id="Group_792" data-name="Group 792" transform="translate(22.093 13.614)">
          <g id="Group_790" data-name="Group 790">
            <path id="Path_934" data-name="Path 934" d="M303.019,177.447c1.767,2.594,12.792,5.607,17.169,22.586.77,2.987,2.78,3.459,2.417-.282-1.321-13.639-10.136-24.635-16.647-26.725C301.163,171.488,300.119,173.189,303.019,177.447Z" transform="translate(-301.41 -172.469)" fill="#f9c1b6" fill-rule="evenodd"/>
          </g>
          <g id="Group_791" data-name="Group 791" transform="translate(18.391 27.54)">
            <path id="Path_935" data-name="Path 935" d="M364.652,266.62a7.618,7.618,0,0,0,.116,1.447,4.2,4.2,0,0,1-.153,1.536c-.138.557-.278.406-.349.665-.015.054.178.069.514-.15a1.034,1.034,0,0,0,.465-.7c.207.576.846,2.644,1.2,2.479.187-.087-.61-2.356-.592-2.336.146.172.891,1.28,1.136,1.718s.347.408.408.42.026-.2-.043-.35c-.221-.474-.813-2.023-.915-2.181a21.252,21.252,0,0,0,1.466,1.588c.305.255.622.355.261-.217a10.938,10.938,0,0,0-.926-1.133c-.143-.169-.339-.522-.482-.691-.062-.074.815.592,1.149.8a2.2,2.2,0,0,0,.587.257c.118.033.122-.191-.02-.308a4.911,4.911,0,0,1-1.052-.94,3.536,3.536,0,0,1-.675-1.631C366.681,266.476,364.652,266.62,364.652,266.62Z" transform="translate(-364.265 -266.596)" fill="#f9c1b6" fill-rule="evenodd"/>
          </g>
        </g>
      </g>
    </g>
    <g id="Group_832" data-name="Group 832" transform="translate(124.654 153.794)">
      <g id="Group_795" data-name="Group 795" transform="translate(9.01 14.932)">
        <path id="Path_936" data-name="Path 936" d="M172.929,333.138c1.218.2,2.235-.953,3.079-1.531,2.2-1.508,10.75-8.6,10.338-9.332-.978-1.729-6.2,1.983-9.148,3.713-2.728,1.6-5.717,2.677-5.892,4.912A2.085,2.085,0,0,0,172.929,333.138Z" transform="translate(-171.301 -321.827)" fill="#f58a88" fill-rule="evenodd"/>
      </g>
      <g id="Group_796" data-name="Group 796" transform="translate(21.747 11.991)">
        <path id="Path_937" data-name="Path 937" d="M206.843,316.837a2.755,2.755,0,0,0,1.395-1.74c.119-.327.2.024.252.223.112-.527.192-1.454.382-1.439.163.012.22.61.2,1.142,0,0,.437-1.365.59-1.391.367-.061-.048,1.434-.048,1.434.4-.594.546-1.238.765-1.2.315.053-.435,2.179-1.115,3.246a7.853,7.853,0,0,1-1.017,1.165S206.526,317.01,206.843,316.837Z" transform="translate(-206.804 -313.631)" fill="#f58a88" fill-rule="evenodd"/>
      </g>
      <g id="Group_831" data-name="Group 831" transform="translate(0 -9.069)">
        <g id="Group_798" data-name="Group 798" transform="translate(0 16.001)">
          <path id="Path_941" data-name="Path 941" d="M160.219,305.842c-.211-1.212.066-3.3-2.031-4.47-.546-.306-1.336-2.793-5.058-1.448-5.861,2.119-5.686,6.2-6.117,6.629a2.6,2.6,0,0,0,.222,3.961c-.057-.008-.959,1.417-.236,2.359,1.249,1.629,2.023.415,2.339.334a2.265,2.265,0,0,0,.081,3.179c.862,1.017,2.281.177,2.929-.109a4.891,4.891,0,0,0,1.029-.8c-.043.388-.079-.717.126-.4.7,1.091,2.586,1.887,3.163.125-.143-.019.192.583.233.634a1.67,1.67,0,0,0,1.164.458c.916-.034,1.341-.873,1.45-1.847-.1-.013.141.176.172.191a1.857,1.857,0,0,0,.475.2c.438.059.8-.375,1.1-.722a2.065,2.065,0,0,0,.516-2.14c-.039-.108-.382-.54-.38-.554.232.031.416-.276.576-.458a2.58,2.58,0,0,0,.622-1.858,3.269,3.269,0,0,0-.556-1.448C161.479,306.8,160.483,307.357,160.219,305.842Z" transform="translate(-146.185 -299.528)" fill-rule="evenodd"/>
        </g>
        <g id="Group_799" data-name="Group 799" transform="translate(0.535 26.605)">
          <path id="Path_942" data-name="Path 942" d="M159.69,348.457c1.144-.757-.108-19.564-.805-19.366-1.535.436-9.247.733-10.439,2.041-.676.742-.638,2.34-.681,3.283-.137,3.01-.378,11.941,1.62,13.4C150.478,348.613,158.5,349.246,159.69,348.457Z" transform="translate(-147.676 -329.089)" fill="#f56c76" fill-rule="evenodd"/>
        </g>
        <g id="Group_800" data-name="Group 800" transform="translate(1.382 29.479)">
          <path id="Path_943" data-name="Path 943" d="M151.407,337.1c-1.412.293-1.384,2.506-1.364,4a54.136,54.136,0,0,0,.394,6.323c.251,1.832-.513,4.86,1.412,4.831.973-.014,1.184-1.431,1.127-2.753l-.246-2.078c.007-.092.013-.185.018-.277a70.484,70.484,0,0,0-.551-8.767,2.061,2.061,0,0,0-.19-.855A.6.6,0,0,0,151.407,337.1Zm1.126,13.617-.015-.031.006.009-.007-.01" transform="translate(-150.038 -337.099)" fill="#d84651" fill-rule="evenodd"/>
        </g>
        <g id="Group_801" data-name="Group 801" transform="translate(5.904 26.923)">
          <path id="Path_944" data-name="Path 944" d="M167.1,347.21l-3.641-5.916c-.787-3.543-1.318-4.652-.08-7.715.314-.776,1.328-1.266,1.75-2.155a2.054,2.054,0,0,1,3.151-1.1c2.278,1.1,2.664,1.782,2.916,3.2l1.142,10.325c.211,2.073-3.751,4.565-5.239,3.36" transform="translate(-162.641 -329.973)" fill="#f9c1b6"/>
        </g>
        <g id="Group_802" data-name="Group 802" transform="translate(5.689 34.146)">
          <path id="Path_945" data-name="Path 945" d="M171.234,350.868a21.961,21.961,0,0,1,0,12.271l-6.332-.206c-3.67-1.9-3.6-5.452-.977-10.645C166.719,348.429,171.234,350.868,171.234,350.868Z" transform="translate(-162.042 -350.107)" fill="#f9c1b6"/>
        </g>
        <g id="Group_803" data-name="Group 803" transform="translate(8.025 24.387)">
          <path id="Path_946" data-name="Path 946" d="M170.977,329a1.478,1.478,0,0,1-1.827-1.172l-.566-2.94a1.686,1.686,0,0,1,1.228-1.936,1.478,1.478,0,0,1,1.827,1.173l.566,2.94A1.686,1.686,0,0,1,170.977,329" transform="translate(-168.554 -322.904)" fill="#f9c1b6"/>
        </g>
        <g id="Group_804" data-name="Group 804" transform="translate(9.887 40.703)">
          <path id="Path_947" data-name="Path 947" d="M179.055,390.178c-1.769-2.464-4.032-7.508-2.884-8.929a20.88,20.88,0,0,1-2.214-5.33c-.9-3.125,1.108-9.388,4.447-7,2.351,1.678,1.462,7.291,1.572,12.707C180.043,384.908,179.319,390.547,179.055,390.178Z" transform="translate(-173.744 -368.386)" fill="#f58a88"/>
        </g>
        <g id="Group_805" data-name="Group 805" transform="translate(3.458 40.506)">
          <path id="Path_948" data-name="Path 948" d="M155.86,384.6c-.242-1.862.805-3.932,1.016-4.6a30.241,30.241,0,0,0,.975-5.55c.372-3.448,4.808-9.029,7.105-5.469,1.617,2.506-1.478,7.826-3.524,13.3-1.241,3.32-2.71,9.161-3.165,9.044C155.91,390.712,155.86,384.6,155.86,384.6Z" transform="translate(-155.824 -367.837)" fill="#f9c1b6"/>
        </g>
        <g id="Group_809" data-name="Group 809" transform="translate(13.564 60.236)">
          <path id="Path_949" data-name="Path 949" d="M186.128,423.726c-.048-.222-.348-1.531.6-.505a2.445,2.445,0,0,0,1.943.5c1.431-.078,1.623,1.109,1.671,2.184-1.361,1.239-6.06-.059-6.351-.283.058-1.193.548-1.492.376-2.022C184.5,423.3,185.7,423.551,186.128,423.726Z" transform="translate(-183.995 -422.833)" fill-rule="evenodd"/>
          <g id="Group_808" data-name="Group 808">
            <g id="Group_807" data-name="Group 807" clip-path="url(#clip-path)">
              <g id="Group_806" data-name="Group 806" transform="translate(-0.977 0.741)">
                <path id="Path_950" data-name="Path 950" d="M184.195,427.151q-.285-.068-.569-.163c-.633-.169-1.527-.516-1.56-.528-.651-.261-1.761.781.9,1.5,3.339,1.347,6.624.163,9.644-1.659l1.016-.733.07-.253-.466.048c-.477.234-.946.478-1.422.737l.545-.6c.125-.262.1-.364-.122-.542a.316.316,0,0,0-.509.207,12.284,12.284,0,0,1-1.741,1.107c-.593-.038-2.805-.71-4.2.081a11.971,11.971,0,0,0-1.157.536C184.474,426.978,184.333,427.063,184.195,427.151Zm5.047-.526a8.169,8.169,0,0,1-4.383.654,12.849,12.849,0,0,1,1.461-.853,2.164,2.164,0,0,1,1.411-.142c.414.071.626.18.848.222S189.021,426.59,189.242,426.625Zm-3.962.073-.395.18S185.346,426.653,185.28,426.7Z" transform="translate(-181.272 -424.9)" fill="#eceeee"/>
              </g>
            </g>
          </g>
        </g>
        <g id="Group_813" data-name="Group 813" transform="translate(3.319 61.491)">
          <path id="Path_952" data-name="Path 952" d="M157.64,427.168c-.062-.2-.443-1.385.625-.53a2.873,2.873,0,0,0,2.107.269c1.532-.217,1.791.865,1.891,1.858-1.4,1.288-6.5.557-6.825.378.009-1.113.521-1.44.311-1.914C155.872,426.936,157.172,427.049,157.64,427.168Z" transform="translate(-155.438 -426.332)" fill-rule="evenodd"/>
          <g id="Group_812" data-name="Group 812">
            <g id="Group_811" data-name="Group 811" clip-path="url(#clip-path-2)">
              <g id="Group_810" data-name="Group 810" transform="translate(-1.051 -0.076)">
                <path id="Path_953" data-name="Path 953" d="M155.655,429q-.308-.035-.617-.094c-.687-.093-1.661-.324-1.7-.332-.71-.177-1.854.9,1.029,1.305,3.642.913,7.112-.517,10.27-2.514l1.056-.783.064-.243-.5.092c-.5.265-.993.539-1.492.827l.558-.61c.122-.255.1-.348-.156-.49-.467-.166-.537.244-.537.244a14.426,14.426,0,0,1-1.817,1.2c-.637.025-3.042-.375-4.506.5,0,0-.811.365-1.216.614C155.947,428.812,155.8,428.9,155.655,429Zm5.39-1a10.257,10.257,0,0,1-4.672,1.049,15.269,15.269,0,0,1,1.528-.939,2.7,2.7,0,0,1,1.507-.274c.448.025.679.1.92.121S160.806,427.992,161.045,428Zm-4.247.467-.415.207S156.867,428.422,156.8,428.47Z" transform="translate(-152.507 -426.12)" fill="#eceeee"/>
              </g>
            </g>
          </g>
        </g>
        <g id="Group_817" data-name="Group 817" transform="translate(2.96 37.703)">
          <path id="Path_955" data-name="Path 955" d="M164.539,361.925a1.843,1.843,0,0,0-.207-.33c-.7-.863-3.095-1.571-3.095-1.571s-1.441.669-1.778.88c-4.3,2.682-4.768,7.218-5.022,10.008,1.176.724,5.728,1.363,8.76,1.34a.034.034,0,0,0,0,.012c.207.211,5.481-.608,5.481-.608s-.057-2.978-.445-5.881c-.281-2.1-.934-4.386-.894-4.409h0A16.5,16.5,0,0,1,164.539,361.925Z" transform="translate(-154.437 -360.024)" fill="#31979b" fill-rule="evenodd"/>
          <g id="Group_816" data-name="Group 816">
            <g id="Group_815" data-name="Group 815" clip-path="url(#clip-path-3)">
              <g id="Group_814" data-name="Group 814" transform="translate(-2.415 2.068)">
                <path id="Path_956" data-name="Path 956" d="M162.768,366.749q-.109-.431-.228-.863s-.049-.211-.162-.018q.113.469.223.939a14.96,14.96,0,0,1-1.831.506c-.05-.206-.1-.41-.157-.616,0,0-.069-.337-.192-.127q.093.389.175.778a18.092,18.092,0,0,1-2.818.323q-.032-.465-.07-.928s-.011-.259-.16-.082q.041.506.076,1.015a23.659,23.659,0,0,1-2.41-.052c.057-.555.189-1.018-.024-.89q-.13.433-.231.87-.693-.056-1.38-.145c.174-.393.258-.649.081-.592q-.152.28-.293.564c-.963-.13-1.91-.3-2.828-.5,0,0,1.269.293,2.81.536l-.079.161q-1.422-.171-2.823-.471l-.307-.006.438.108c.862.2,1.737.382,2.619.523a19,19,0,0,0-.947,2.392c-.953-.121-1.877-.277-2.759-.458l-.224.071c.958.23,1.936.42,2.928.564q-.056.18-.107.361a32.551,32.551,0,0,1-3.509-.737,31.539,31.539,0,0,0,3.473.865,18.446,18.446,0,0,0-.5,2.4q-.792-.159-1.612-.363a10.921,10.921,0,0,0-2.232-.474s1.708.567,3.812,1.086q-.021.168-.039.338a25.205,25.205,0,0,1-3.243-.891l-.067.03s1.455.494,3.3.942q-.067.639-.087,1.288s.094-.519.239-1.252a28.568,28.568,0,0,0,2.93.556c.015.437.033.877.05,1.323l.141,1.2q0-.256,0-.512,0-.99.018-1.981c.265.031.527.056.781.073.7.047,1.41.091,2.119.119-.07.947-.175,1.878-.324,2.782,0,0-.059.813.114-.107.16-.883.274-1.774.351-2.671a27.262,27.262,0,0,0,3.572-.069c.019.893.017,1.789,0,2.686l.192.006c.037-.905.055-1.811.046-2.716a15.089,15.089,0,0,0,2.186-.39c.077,1.076.113,2.2.095,3.387,0,0,.085.5.105-.142q.039-1.648-.059-3.283a11.512,11.512,0,0,0,1.721-.615s.182-.248-.145-.1a9.438,9.438,0,0,1-1.589.516q-.014-.208-.029-.415l1.468-.248.064-.165q-.778.126-1.547.234-.118-1.478-.351-2.952a18.808,18.808,0,0,0,1.971-.642s0-.163-.128-.114q-.92.339-1.869.59-.04-.251-.084-.5,1.067-.293,2.106-.691s.133-.214-.045-.147a21.031,21.031,0,0,1-2.09.671q-.193-1.078-.447-2.16a6.906,6.906,0,0,0,1.741-.777s-.035-.158-.143-.09a7.3,7.3,0,0,1-1.625.751q-.053-.223-.109-.446a12.129,12.129,0,0,0,1.388-.582s.045-.193-.068-.137A13.509,13.509,0,0,1,162.768,366.749Zm-1.419,7.232c0,.124.008.248.011.371-.554.039-1.112.061-1.67.08-.623.02-1.248.029-1.873.024,0-.052.008-.1.011-.157A31.791,31.791,0,0,0,161.349,373.982Zm-6.586.161a18.094,18.094,0,0,0,2.92.161c0,.05-.006.1-.01.152-.971-.012-1.944-.06-2.913-.15C154.761,374.251,154.762,374.2,154.763,374.142Zm8.979-.537c.012.141.024.281.035.423a15.924,15.924,0,0,1-2.175.306c0-.129,0-.258-.008-.387C162.313,373.844,163.029,373.726,163.742,373.606Zm-12.04-.074c.914.221,1.893.429,2.834.577,0,.058,0,.118.006.176-.974-.1-1.944-.237-2.905-.429C151.658,373.751,151.68,373.643,151.7,373.532Zm9.444-2.591c.094.915.155,1.835.192,2.759-1.15.105-2.3.166-3.481.166.052-.88.071-1.763.065-2.643A26.941,26.941,0,0,0,161.147,370.94Zm-6.26.233c.956.055,1.917.076,2.876.053.006.885-.01,1.767-.055,2.638-.96,0-1.935-.051-2.934-.147Q154.81,372.442,154.887,371.174Zm-2.59-.288c.588.1,1.2.188,1.786.234.147.011.295.022.441.032-.03.832-.023,1.678,0,2.541-.9-.095-1.822-.23-2.77-.414C151.913,372.509,152.105,371.63,152.3,370.885Zm11.049-.389c.156.943.286,1.914.38,2.925-.715.1-1.426.185-2.139.254-.03-.925-.092-1.85-.194-2.773Q162.38,370.743,163.346,370.5Zm-8.422.129c.94.052,1.886.06,2.831.021q0,.216.006.433c-.964.027-1.922.006-2.864-.057C154.906,370.889,154.914,370.757,154.924,370.625Zm6.152-.327q.029.238.054.478a26.756,26.756,0,0,1-3.207.3c0-.145,0-.29-.007-.435A26.418,26.418,0,0,0,161.076,370.3Zm-8.643.087q1.05.144,2.118.217c-.007.131-.014.262-.019.393-.746-.058-1.481-.141-2.2-.245C152.366,370.623,152.4,370.5,152.433,370.385Zm10.8-.554c.03.165.059.331.088.5-.642.164-1.292.3-1.945.408-.019-.16-.039-.321-.06-.481C161.958,370.141,162.6,370,163.231,369.832Zm-8.064-1.8c.83.079,1.661.121,2.487.12q.069,1.133.1,2.273c-.945.037-1.886.029-2.812-.016Q155.028,369.218,155.167,368.036Zm5.546-.1c.137.719.249,1.443.34,2.17a27.672,27.672,0,0,1-3.142.315c-.018-.76-.053-1.516-.1-2.268A20.89,20.89,0,0,0,160.713,367.937Zm-7.3-.12q.727.112,1.457.189a18.07,18.07,0,0,0-.308,2.386c-.7-.042-1.4-.106-2.079-.187.044-.148.088-.284.13-.4.119-.34.243-.677.374-1.013S153.275,368.12,153.415,367.817Zm9.346-.31c.158.707.306,1.424.44,2.156q-.947.243-1.912.4c-.1-.721-.225-1.441-.382-2.161q.863-.138,1.7-.358Zm-2.142-.043c.023.112.046.224.067.336a22.579,22.579,0,0,1-2.893.107l-.009-.142A19.737,19.737,0,0,0,160.619,367.464Zm-5.413.241c.443.042.878.069,1.283.075q.569.008,1.142-.009c0,.044.006.089.008.134-.624-.014-1.247-.041-1.857-.069-.2-.009-.391-.02-.587-.031l.006-.051C155.2,367.738,155.2,367.722,155.205,367.706Zm-1.646-.2c.45.068.918.131,1.382.179-.008.036-.016.071-.023.106q-.716-.05-1.429-.131C153.514,367.6,153.537,367.551,153.559,367.5Zm9.074-.55q.051.222.1.444a11.155,11.155,0,0,1-1.857.383q-.039-.173-.08-.347A14.716,14.716,0,0,0,162.633,366.951Z" transform="translate(-147.704 -365.788)" fill="#1eb6bc" fill-rule="evenodd"/>
              </g>
            </g>
          </g>
        </g>
        <g id="Group_818" data-name="Group 818" transform="translate(11.474 26.877)">
          <path id="Path_958" data-name="Path 958" d="M178.368,330.372a13.806,13.806,0,0,1,2.445,3.566c.151.4.289.813.407,1.228.2.694.368,1.691.368,1.691.01.228.019-.523-.022.655a10.857,10.857,0,0,1-.236,3.968l.065.261a8.771,8.771,0,0,0,1.069-1.771,7.985,7.985,0,0,0,.25-2.134c-.046-1.088-.685-5.45-3.2-7.355-1.33-1.009-1.071-.521-1.267-.479C177.984,330.058,178.444,330.425,178.368,330.372Z" transform="translate(-178.167 -329.846)" fill="#f56c76" fill-rule="evenodd"/>
        </g>
        <g id="Group_819" data-name="Group 819" transform="translate(0.143 41.365)">
          <path id="Path_959" data-name="Path 959" d="M151.117,370.289c-.05.13.162-.041-.214.274,0,0-.718.683-1.028,1.073a5.552,5.552,0,0,0-1.428,2.926c-.337,2.461-.126,5.208-1.859,7.077,0,0-.06.227.23-.065,1.93-1.981,2.064-5.222,2.611-7.662,0,0,.869-1.327,1.361-2.312.016-.032.352-.495.352-.495.287-.987.241-.716.241-.759,0-.129-.221-.115-.221-.115S151.1,370.354,151.117,370.289Z" transform="translate(-146.583 -370.232)" fill="#d84651" fill-rule="evenodd"/>
        </g>
        <g id="Group_824" data-name="Group 824" transform="translate(5.332 27.29)">
          <path id="Path_960" data-name="Path 960" d="M163.925,332.337s1.792,1.066,2.663.542A1.526,1.526,0,0,0,167.42,331a4.126,4.126,0,0,1,2.218,2.018c1.116,2,2.205,9.216,2.241,9.507a4.524,4.524,0,0,1-3.67,2.31c-5.564.67-6.844-.984-7.051-1.044-.174-.051-.336-8.1,1.068-10.138A4.482,4.482,0,0,1,163.925,332.337Z" transform="translate(-161.047 -330.998)" fill="#31979b" fill-rule="evenodd"/>
          <g id="Group_823" data-name="Group 823">
            <g id="Group_822" data-name="Group 822" clip-path="url(#clip-path-4)">
              <g id="Group_821" data-name="Group 821" transform="translate(-0.325 -0.106)">
                <g id="Group_820" data-name="Group 820">
                  <path id="Path_961" data-name="Path 961" d="M168.873,333.726q-.186-.454-.4-.892a8.645,8.645,0,0,0-1.55-2.116s-.052-.055-.053.049a10.679,10.679,0,0,1,1.794,3.051,10.786,10.786,0,0,1-1.593.531,13.043,13.043,0,0,0-1.059-2.241s-.108-.194-.163.024c.045.08.09.16.134.241a13.172,13.172,0,0,1,.861,2.03,9.628,9.628,0,0,1-1.649.222c-.245-.894-.519-1.777-.8-2.642,0,0-.024-.083-.068.02.181.677.188.723.251.978.132.549.267,1.1.4,1.651a10.017,10.017,0,0,1-2.9-.366,12.677,12.677,0,0,0,2.937.538l.1.416c-.474.09-.786.144-.786.144q.4-.033.8-.1c.186.8.359,1.6.5,2.406a21.559,21.559,0,0,1-2.338.322c-.067-.339-.127-.663-.171-.965,0,0-.02-.3-.114-.164q.022.263.042.526c.014.194.029.406.045.618l-.306.02-.153.086.466-.01.027.351-.118.015h.119c.041.536.076.976.076.976.047.4.108.81.164,1.215q-.725.033-1.446.034c-.058-1.086-.117-2.174-.235-3.259,0,0-.018-.15-.151.014.01.112.018.225.027.336.067.969.091,1.938.118,2.908h-.115l.115,0c.008.261.015.522.023.784.022.617.085,1.332.142,1.881-1.011,0-1.655-.028-1.655-.028.532.036,1.089.071,1.662.1.023.217.044.4.06.546q-.827-.042-1.642-.134l-.123.079q.886.134,1.782.2l.017.133c.3,1.151.231-.031.231-.031,0-.029-.007-.058-.01-.087q.573.034,1.147.038c-.019.061-.038.122-.058.183-.31.9-.024.533-.024.533.036-.063.07-.125.1-.189a4.341,4.341,0,0,0,.227-.527,19.844,19.844,0,0,0,2.123-.125c-.035.15-.06.241-.06.241s.041-.093.1-.245a18.356,18.356,0,0,0,1.991-.341c.262-.06.521-.128.778-.2-.012.159-.036.333-.072.541-.061.339.442,1.343.315-.614.583-.179,1.157-.387,1.731-.593a6.764,6.764,0,0,1-.1,1.043l-.014.068s.114.233.189-.178a7.091,7.091,0,0,0,.1-.995l.465-.165.744-.293s-.008-.085-.23,0c-.435.176-.736.288-.976.372,0-.145,0-.29,0-.435a7.908,7.908,0,0,0,1.068-.57.172.172,0,0,0-.141,0,8.482,8.482,0,0,1-.93.52,18.008,18.008,0,0,0-.274-2.35,11.528,11.528,0,0,0,1.05-.556l.454.436-.33-.566-.17-.249c0-.033-.013-.064-.043-.063l-.15-.22.117.231q-.5.24-1.02.442c-.016-.094-.032-.188-.047-.281-.1-.61-.209-1.221-.333-1.827.362-.153.723-.31,1.084-.465,0,0,.025-.176-.06-.14q-.527.222-1.065.41l-.033-.155a10.469,10.469,0,0,1,1.281-.427s.056-.171-.037-.148c-.437.111-.866.227-1.294.346a19.4,19.4,0,0,0-.7-2.418l.07-.031c1.657-.75.85-.619.77-.478-.294.129-.591.257-.888.38-.022-.059-.045-.118-.069-.177.395-.2.782-.411,1.165-.631l.138-.168a.174.174,0,0,0-.141-.007A13.189,13.189,0,0,1,168.873,333.726Zm-6.781,9.718c.449.018.907.03,1.37.032a5.04,5.04,0,0,1-.108.536q-.6,0-1.209-.022-.01-.089-.018-.179C162.115,343.689,162.1,343.566,162.092,343.444Zm3.727-.052c-.033.177-.068.343-.1.483-.7.078-1.4.121-2.107.133a5.244,5.244,0,0,0,.136-.532C164.434,343.474,165.129,343.45,165.819,343.392Zm2.668-.423a3.252,3.252,0,0,1,.01.4,19.367,19.367,0,0,1-2.71.5c.051-.14.108-.308.16-.487A16.755,16.755,0,0,0,168.487,342.97Zm-6.57-2.264c.321.006.837.011,1.452,0,.019.143.038.286.056.429-.463.01-.927.014-1.389.021,0,0,.562.05,1.4.061a8.883,8.883,0,0,1,.047,2.116c-.507.019-.978.028-1.4.03C162.01,342.48,161.964,341.594,161.917,340.706Zm4.066.4a14.111,14.111,0,0,1-.064,1.6c-.015.155-.037.316-.063.473-.723.068-1.426.112-2.078.14a8.2,8.2,0,0,0,.053-2.1A20.654,20.654,0,0,0,165.983,341.107Zm4.476,1.223c0,.142.007.283,0,.424-.273.092-.478.152-.767.252q-.482.165-.973.3c-.009-.119-.019-.248-.033-.388a11.394,11.394,0,0,0,1.362-.451l.044-.012C170.217,342.419,170.339,342.377,170.459,342.33Zm-2.34-1.636q.093.59.2,1.171c.072.413.126.707.156.962-.813.151-1.65.261-2.467.34a4.253,4.253,0,0,0,.117-.644c.045-.479.066-.96.066-1.441a12.051,12.051,0,0,0,1.632-.306C167.92,340.75,168.019,340.723,168.119,340.694Zm2.045-.745c.021.125.043.25.064.375a15.251,15.251,0,0,1,.23,1.969c-.133.061-.268.119-.4.174-.442.123-.9.23-1.375.323-.015-.143-.031-.295-.05-.458-.067-.569-.134-1.146-.209-1.726A15.431,15.431,0,0,0,170.164,339.948Zm-4.2.6c.007.141.012.283.015.424-.716.089-1.437.129-2.159.15q-.02-.216-.048-.43C164.453,340.676,165.219,340.634,165.965,340.551Zm2.073-.369.054.343c-.2.066-.389.122-.56.165a12.48,12.48,0,0,1-1.344.258c0-.141,0-.281-.008-.422.407-.05.805-.111,1.176-.189Q167.7,340.266,168.038,340.182Zm-2.3-1.83c.106.693.184,1.384.223,2.071-.728.105-1.461.177-2.192.22-.1-.747-.248-1.485-.386-2.174C163.895,338.46,164.855,338.432,165.735,338.352Zm4.359,1.192c.011.063.022.127.033.19-.534.23-1.16.486-1.731.688-.014-.107-.028-.214-.043-.321A18.049,18.049,0,0,0,170.094,339.543Zm-2.4-1.537c.116.672.218,1.348.321,2.018-.607.149-1.221.27-1.839.365a20.4,20.4,0,0,0-.192-2.062c.174-.019.344-.039.5-.062A9.446,9.446,0,0,0,167.693,338.007Zm1.977-.71c.148.694.277,1.4.4,2.094a17.81,17.81,0,0,1-1.737.553c-.093-.678-.2-1.358-.324-2.031C168.569,337.739,169.122,337.525,169.67,337.3Zm1.682,1.712.072.142s-.465.22-1.1.5c-.01-.061-.02-.121-.031-.182Q170.828,339.258,171.352,339.009Zm-5.674-1.016.012.073c-.767.137-1.54.253-2.319.359l-.064-.321C164.1,338.089,164.893,338.069,165.678,337.994Zm1.5-.227c-.413.093-.828.177-1.245.254,0-.017-.006-.035-.009-.053A12.424,12.424,0,0,0,167.182,337.766Zm.449-.108v0l-.208.05Zm-.657-2.829a23.473,23.473,0,0,1,.578,2.405c-.546.142-1.1.275-1.681.392-.138-.8-.317-1.6-.521-2.4A13.638,13.638,0,0,0,166.975,334.829Zm2.618,2.115c.01.048.021.1.032.144q-.83.281-1.68.5l0-.015C168.5,337.395,169.048,337.163,169.593,336.944Zm-.751-2.647a21.336,21.336,0,0,1,.693,2.394c-.557.155-1.113.313-1.679.464a21.415,21.415,0,0,0-.641-2.384A15.164,15.164,0,0,0,168.842,334.3Zm-1.912.387.045.144c-.584.137-1.167.257-1.637.349-.032-.121-.063-.241-.1-.362A7.114,7.114,0,0,0,166.93,334.683Zm1.8-.677c.02.054.041.108.061.163-.523.212-1.051.412-1.586.585-.014-.042-.028-.085-.043-.127.131-.034.26-.074.386-.119A12.394,12.394,0,0,0,168.735,334.007Z" transform="translate(-160.142 -330.703)" fill="#1eb6bc" fill-rule="evenodd"/>
                </g>
              </g>
            </g>
          </g>
        </g>
        <g id="Group_825" data-name="Group 825" transform="translate(2.491 17.314)">
          <path id="Path_963" data-name="Path 963" d="M164.168,308.55c.28,3.049-1.632,3.661-2.948,4.155-1.964.737-7.8-.357-8.077-3.407s3.186-5.685,5.212-6.07,5.534,2.273,5.813,5.322" transform="translate(-153.128 -303.19)" fill="#f9c1b6"/>
        </g>
        <g id="Group_826" data-name="Group 826" transform="translate(5.04 24.876)">
          <path id="Path_964" data-name="Path 964" d="M161.776,324.273c.894.06,1.525.451,1.434.836-.3,1.287-.875,1.8-1.769,1.737a1.152,1.152,0,0,1-1.195-1.363,1.355,1.355,0,0,1,1.529-1.21" transform="translate(-160.233 -324.269)" fill="#f9c1b6"/>
        </g>
        <g id="Group_827" data-name="Group 827" transform="translate(2.099 16.397)">
          <path id="Path_965" data-name="Path 965" d="M159.231,301.339a6.822,6.822,0,0,1-.017,5.5c-.263.6-.329,1.207-.6,1.819-.523,1.171-1.488,1.613-2.126,1.155-.742-.533-1.244.328-1.142.739.193.786-.294.748-.454.729s-.323-.174-.467-.234a3.585,3.585,0,0,1-1.681-1.706,5.464,5.464,0,0,1-.638-3.208,10.592,10.592,0,0,1,4.364-5.33c.833-.341,2.475-.2,2.9.762" transform="translate(-152.036 -300.634)" fill-rule="evenodd"/>
        </g>
        <g id="Group_828" data-name="Group 828" transform="translate(4.203 28.435)">
          <path id="Path_966" data-name="Path 966" d="M159.827,334.733s1.121.7,1.14.716c.217.184-.284-.541.657.6,1.418,1.712,1.13,4.2.9,5.371-.366,1.886-1.631,3.189-3.229,4.5-1.183.971-.106.335-.836.664l-.561.244a5.648,5.648,0,0,0,2.456-.754c3.146-1.825,4.517-6.442,3.748-8.9a4.322,4.322,0,0,0-3.487-2.977l-1.033.166C159.079,334.6,159.926,334.739,159.827,334.733Z" transform="translate(-157.902 -334.188)" fill="#f56c76" fill-rule="evenodd"/>
        </g>
        <g id="Group_829" data-name="Group 829" transform="translate(5.736 24.688)">
          <path id="Path_967" data-name="Path 967" d="M163.535,333.289c1.146.382,2.234-.623,3.1-1.078,2.258-1.188,11.138-7.054,10.815-7.852-.766-1.893-6.132,1.061-9.123,2.361-2.769,1.2-5.736,1.835-6.124,4.065A2.262,2.262,0,0,0,163.535,333.289Z" transform="translate(-162.174 -323.743)" fill="#f9c1b6" fill-rule="evenodd"/>
        </g>
        <g id="Group_834" data-name="Group 834" transform="translate(13.042)">
          <g id="Group_834-2" data-name="Group 834" transform="translate(7.447 8.53)">
            <path id="Path_969" data-name="Path 969" d="M151.61,251.951l.766-.424c-3.3-5.954-1.368-15.642-1.349-15.739l-.858-.175C150.086,236.023,148.16,245.717,151.61,251.951Z" transform="translate(-149.559 -235.613)" fill="#36c0a9"/>
          </g>
          <g id="Group_835" data-name="Group 835" transform="translate(5.344 12.786)">
            <path id="Path_970" data-name="Path 970" d="M147.766,258.9l.647-.589c-4.566-5.018-2.408-12.341-2.385-12.414l-.838-.255C145.092,245.964,142.868,253.521,147.766,258.9Z" transform="translate(-144.602 -245.645)" fill="#36c0a9"/>
          </g>
          <g id="Group_836" data-name="Group 836" transform="translate(0.286)">
            <path id="Path_971" data-name="Path 971" d="M132.678,223.187c.058-.719,1.97-1.151,4.27-.965a12.6,12.6,0,0,1,1.572.225,12.5,12.5,0,0,1-1-1.235c-1.338-1.88-1.946-3.744-1.359-4.161s2.149.767,3.487,2.647l.054.079c0-.032,0-.064,0-.1,0-2.307.584-4.178,1.306-4.178s1.306,1.871,1.306,4.178a12.22,12.22,0,0,1-.132,1.824,12.222,12.222,0,0,1,1.376-1.2c1.843-1.389,3.688-2.049,4.122-1.473s-.707,2.169-2.55,3.558q-.332.25-.661.467c.262.005.533.018.809.04,2.3.186,4.118.919,4.06,1.638s-1.97,1.151-4.27.965a12.508,12.508,0,0,1-1.572-.225,12.456,12.456,0,0,1,1,1.235c1.338,1.88,1.947,3.743,1.359,4.161s-2.148-.767-3.486-2.648c-.019-.026-.036-.053-.055-.079,0,.032,0,.064,0,.1,0,2.308-.585,4.178-1.306,4.178s-1.306-1.871-1.306-4.178a12.214,12.214,0,0,1,.132-1.824,12.228,12.228,0,0,1-1.377,1.2c-1.842,1.39-3.688,2.049-4.122,1.473s.708-2.169,2.55-3.558c.221-.167.442-.322.661-.467-.263-.005-.533-.018-.809-.04C134.438,224.639,132.62,223.906,132.678,223.187Z" transform="translate(-132.677 -215.502)" fill="#f2d750"/>
            <path id="Path_972" data-name="Path 972" d="M148.009,233.693a1.7,1.7,0,1,0,1.7-1.567A1.636,1.636,0,0,0,148.009,233.693Z" transform="translate(-141.506 -225.075)" fill="#f2d750"/>
          </g>
          <g id="Group_837" data-name="Group 837" transform="translate(0 7.384)">
            <path id="Path_973" data-name="Path 973" d="M132,237.841c.037-.461,1.264-.738,2.74-.619a8.031,8.031,0,0,1,1.009.144,7.931,7.931,0,0,1-.641-.792c-.858-1.206-1.249-2.4-.872-2.67s1.378.492,2.237,1.7c.012.017.023.034.035.051,0-.021,0-.041,0-.062,0-1.481.375-2.681.838-2.681s.838,1.2.838,2.681a7.838,7.838,0,0,1-.085,1.17,7.83,7.83,0,0,1,.883-.772c1.182-.892,2.366-1.314,2.645-.945s-.454,1.391-1.636,2.283c-.142.107-.284.207-.425.3.168,0,.342.011.519.026,1.476.119,2.642.59,2.6,1.051s-1.264.738-2.74.619a8.031,8.031,0,0,1-1.009-.144,8.041,8.041,0,0,1,.641.792c.859,1.206,1.249,2.4.872,2.67s-1.379-.492-2.237-1.7l-.035-.051c0,.021,0,.041,0,.061,0,1.481-.375,2.681-.838,2.681s-.838-1.2-.838-2.681a7.853,7.853,0,0,1,.085-1.17,7.822,7.822,0,0,1-.883.772c-1.182.892-2.366,1.315-2.645.945s.454-1.391,1.636-2.283q.213-.16.425-.3c-.169,0-.342-.011-.519-.026C133.133,238.772,131.966,238.3,132,237.841Z" transform="translate(-132.003 -232.911)" fill="#fff"/>
            <path id="Path_974" data-name="Path 974" d="M141.839,244.581a1.093,1.093,0,1,0,1.089-1.005A1.05,1.05,0,0,0,141.839,244.581Z" transform="translate(-137.667 -239.052)" fill="#fff"/>
          </g>
        </g>
        <g id="Group_830" data-name="Group 830" transform="translate(18.037 21.164)">
          <path id="Path_968" data-name="Path 968" d="M199.444,318.353c.768-.72.683-1.558,1.443-2.044.271-.273-.145-.142-.389-.077.485-.376,1.409-.947,1.278-1.089-.112-.123-.775.159-1.325.462,0,0,1.166-1.092,1.1-1.227-.16-.324-1.477.822-1.477.822.379-.643.966-1.109.794-1.261-.249-.221-2.023,1.536-2.727,2.656a5.479,5.479,0,0,1-1.679,1.192S197.987,319.622,199.444,318.353Z" transform="translate(-196.462 -313.92)" fill="#f9c1b6" fill-rule="evenodd"/>
        </g>
        <g id="Group_838" data-name="Group 838" transform="translate(17.839 11.002)">
          <g id="Group_834-3" data-name="Group 834" transform="translate(3.829 4.886)">
            <path id="Path_969-2" data-name="Path 969" d="M150,244.972l-.439-.243c1.888-3.411.784-8.96.773-9.015l.491-.1C150.87,235.848,151.974,241.4,150,244.972Z" transform="translate(-149.559 -235.613)" fill="#36c0a9"/>
          </g>
          <g id="Group_835-2" data-name="Group 835" transform="translate(4.464 7.324)">
            <path id="Path_970-2" data-name="Path 970" d="M144.973,253.239l-.371-.337c2.615-2.874,1.379-7.069,1.366-7.111l.48-.146C146.5,245.828,147.778,250.156,144.973,253.239Z" transform="translate(-144.602 -245.645)" fill="#36c0a9"/>
          </g>
          <g id="Group_836-2" data-name="Group 836" transform="translate(0 0)">
            <path id="Path_971-2" data-name="Path 971" d="M142.22,219.9c-.033-.412-1.128-.659-2.446-.553a7.222,7.222,0,0,0-.9.129,7.15,7.15,0,0,0,.572-.707c.767-1.077,1.115-2.144.778-2.384s-1.231.439-2,1.516l-.031.045c0-.018,0-.036,0-.055,0-1.322-.335-2.393-.748-2.393s-.748,1.072-.748,2.393a7,7,0,0,0,.076,1.045,7.009,7.009,0,0,0-.788-.69c-1.055-.8-2.112-1.173-2.361-.844s.405,1.242,1.461,2.038q.19.143.379.268c-.15,0-.305.01-.463.023-1.318.106-2.359.526-2.326.938s1.128.659,2.446.553a7.161,7.161,0,0,0,.9-.129,7.132,7.132,0,0,0-.572.707c-.766,1.077-1.115,2.144-.778,2.384s1.231-.44,2-1.517l.031-.045c0,.018,0,.036,0,.055,0,1.322.335,2.393.748,2.393s.748-1.072.748-2.393a7,7,0,0,0-.076-1.045,7,7,0,0,0,.789.69c1.055.8,2.113,1.174,2.361.844s-.405-1.242-1.461-2.038c-.127-.1-.253-.185-.379-.268.15,0,.305-.01.463-.023C141.212,220.736,142.253,220.315,142.22,219.9Z" transform="translate(-132.677 -215.502)" fill="#f20f22"/>
            <path id="Path_972-2" data-name="Path 972" d="M149.953,233.024a.975.975,0,1,1-.972-.9A.937.937,0,0,1,149.953,233.024Z" transform="translate(-144.134 -228.087)" fill="#f20f22"/>
          </g>
          <g id="Group_837-2" data-name="Group 837" transform="translate(3.585 4.23)">
            <path id="Path_973-2" data-name="Path 973" d="M138.126,235.735c-.021-.264-.724-.423-1.569-.355a4.606,4.606,0,0,0-.578.083,4.542,4.542,0,0,0,.367-.454c.492-.691.715-1.376.5-1.529s-.789.282-1.281.973l-.02.029c0-.012,0-.023,0-.035,0-.848-.215-1.535-.48-1.535s-.48.687-.48,1.535a4.5,4.5,0,0,0,.049.67,4.476,4.476,0,0,0-.506-.442c-.677-.511-1.355-.753-1.515-.541s.26.8.937,1.308c.081.061.163.119.243.172-.1,0-.2.007-.3.015-.845.068-1.513.338-1.492.6s.724.423,1.569.355a4.588,4.588,0,0,0,.578-.083,4.636,4.636,0,0,0-.367.454c-.492.691-.715,1.376-.5,1.529s.79-.282,1.281-.973l.02-.029c0,.012,0,.023,0,.035,0,.848.215,1.535.48,1.535s.48-.687.48-1.535a4.5,4.5,0,0,0-.049-.67,4.474,4.474,0,0,0,.506.442c.677.511,1.355.753,1.515.541s-.26-.8-.937-1.308q-.122-.092-.243-.172c.1,0,.2-.007.3-.015C137.479,236.268,138.147,236,138.126,235.735Z" transform="translate(-132.003 -232.911)" fill="#78ae86"/>
            <path id="Path_974-2" data-name="Path 974" d="M143.087,244.152a.626.626,0,1,1-.624-.576A.6.6,0,0,1,143.087,244.152Z" transform="translate(-139.353 -240.985)" fill="#78ae86"/>
          </g>
        </g>
      </g>
    </g>
  </g>
</svg>
