<svg id="Layer_1" data-name="Layer 1" xmlns="http://www.w3.org/2000/svg" width="19.611" height="33.047" viewBox="0 0 19.611 33.047">
  <path id="Path_397" data-name="Path 397" d="M1.572,28.351a14.951,14.951,0,0,0,2.474.032,1.479,1.479,0,0,0,.1-.829c.013-.334.107-.612.479-.633.425-.026.557.286.558.64.01,1.217,0,2.435,0,3.652v1.055c0,.351-.042.777-.5.781-.518,0-.531-.432-.528-.829V29.557H1.569v2.681c0,.4-.037.829-.555.812-.479-.016-.467-.441-.466-.8,0-3.22.015-6.439,0-9.658a.89.89,0,0,1,.724-.985c1.623-.523,3.23-1.073,4.842-1.623.172-.058.386-.041.513-.278-.131-.227-.393-.2-.6-.227-1.735-.276-3.467-.563-5.207-.8-.573-.078-.789-.325-.784-.894.019-2.813-.058-5.629.039-8.44a9.783,9.783,0,0,1,19.465-.891,28.971,28.971,0,0,1,.083,3.485c.011,1.92-.015,3.842.013,5.762.01.649-.229.894-.872.974-1.716.226-3.42.524-5.127.8a.812.812,0,0,0-.609.243,4.014,4.014,0,0,0,1.339.542q2.029.706,4.077,1.355a.844.844,0,0,1,.69.928c-.023,3.219-.015,6.437-.019,9.656,0,.38.039.849-.5.841s-.511-.461-.511-.849V29.569a14.433,14.433,0,0,0-2.584-.1v2.685c0,.386.031.852-.477.875-.581.028-.55-.479-.552-.885q-.013-2.152,0-4.3c0-.4-.076-.912.5-.935s.526.487.534.891c0,.162.016.325.028.539h2.448a3.4,3.4,0,0,0,.1-1.482c.019-1.217,0-2.435,0-3.652,0-.291.06-.612-.334-.729a13.69,13.69,0,0,0-2.11-.622,7.421,7.421,0,0,1-1.5,2.214A6.157,6.157,0,0,1,4.371,22.5c-.313-.607-.591-.661-1.174-.459-1.6.552-1.613.528-1.623,2.233C1.568,25.634,1.572,26.978,1.572,28.351Zm11.441-9.835,5.212-.812c.487-.076.373-.461.373-.763,0-2.354.018-4.707,0-7.059a8.7,8.7,0,0,0-8.8-8.8A8.7,8.7,0,0,0,1.064,9.872c-.016,2,0,4,0,6.006,0,1.737,0,1.755,1.721,2.047,1.3.219,2.6.388,3.835.573.268-.628-.1-.841-.438-1.086a5.769,5.769,0,0,1-2.435-3.884,43.56,43.56,0,0,1-.1-5.751c0-.424.325-.5.685-.513.649-.032,1.3-.045,1.948-.133,1.136-.162,2.328-.247,3.167-1.221a.444.444,0,0,1,.758,0,3.234,3.234,0,0,0,1.967,1.032,15.032,15.032,0,0,0,2.737.305c1.091.062,1.1.047,1.1,1.1,0,1.217-.024,2.435,0,3.652A6.182,6.182,0,0,1,13.334,17.5.776.776,0,0,0,13.014,18.517ZM4.663,8.31c0,1.436-.018,2.806,0,4.176a5.158,5.158,0,0,0,9.925,1.894c.8-1.972.287-4.03.411-6.092a15.744,15.744,0,0,1-3.021-.333c-.743-.162-1.42-.716-2.11-.752s-1.4.589-2.172.752a22.479,22.479,0,0,1-3.034.354ZM5.117,21.5a4.951,4.951,0,0,0,4.952,3.3c2.131-.115,4.2-1.67,4.444-3.391-.649-.216-1.308-.446-1.974-.649a.8.8,0,0,1-.636-.888,4.679,4.679,0,0,0-.084-1.571,7.3,7.3,0,0,1-4.068,0v.974c0,1.253,0,1.243-1.225,1.665A5.356,5.356,0,0,0,5.117,21.5Z" transform="translate(-0.021 -0.004)" fill="#393741"/>
  <path id="Path_398" data-name="Path 398" d="M18.372,24.059a.778.778,0,0,1,.325-1.011,6.177,6.177,0,0,0,2.685-5.507c-.029-1.216,0-2.435,0-3.652,0-1.049-.011-1.034-1.1-1.1a15.031,15.031,0,0,1-2.737-.305,3.251,3.251,0,0,1-1.967-1.032.44.44,0,0,0-.758,0c-.839.974-2.022,1.062-3.167,1.221-.649.088-1.3.1-1.948.133-.355.016-.688.089-.685.513a43.56,43.56,0,0,0,.1,5.751,5.7,5.7,0,0,0,2.435,3.884c.334.245.706.458.438,1.086-1.255-.19-2.553-.359-3.84-.578-1.719-.292-1.717-.31-1.721-2.047,0-2-.019-4,0-6.006a8.767,8.767,0,1,1,17.535.011c.018,2.352,0,4.707,0,7.059,0,.3.114.687-.373.763Z" transform="translate(-5.379 -5.546)" fill="#fff"/>
  <path id="Path_399" data-name="Path 399" d="M28.586,45.45a22.479,22.479,0,0,0,3.034-.354c.774-.162,1.461-.792,2.177-.755.685.036,1.362.588,2.11.752a15.745,15.745,0,0,0,3.016.336c-.123,2.061.385,4.12-.411,6.092a5.158,5.158,0,0,1-9.921-1.894C28.568,48.257,28.586,46.882,28.586,45.45Zm5.145,6.666a2.724,2.724,0,0,0,2.393-1.073c.219-.281.325-.6,0-.851-.278-.211-.529-.068-.777.162a2.014,2.014,0,0,1-3.17.015c-.271-.255-.531-.407-.833-.127-.274.256-.146.547.049.8A2.742,2.742,0,0,0,33.731,52.117Zm-3.571-4.27c-.018.289.032.552.359.631a.487.487,0,0,0,.622-.367c.1-.294.19-.579.565-.579s.427.325.534.6a.47.47,0,0,0,.638.325.543.543,0,0,0,.36-.649,1.642,1.642,0,0,0-1.558-1.376,1.593,1.593,0,0,0-1.516,1.415Zm5.65-1.4a1.638,1.638,0,0,0-1.534,1.31.566.566,0,0,0,.37.711.48.48,0,0,0,.627-.357c.106-.289.153-.6.545-.591s.458.3.549.6a.487.487,0,0,0,.625.355c.325-.086.359-.354.346-.649a1.546,1.546,0,0,0-1.524-1.375Z" transform="translate(-23.944 -37.144)" fill="#fff"/>
  <path id="Path_400" data-name="Path 400" d="M31.42,116a5.054,5.054,0,0,1,1.409-.552c1.219-.422,1.222-.412,1.225-1.665v-.974a7.357,7.357,0,0,0,4.068,0,4.88,4.88,0,0,1,.084,1.571.789.789,0,0,0,.636.888c.665.206,1.323.437,1.974.649-.242,1.721-2.313,3.275-4.444,3.391A4.968,4.968,0,0,1,31.42,116Z" transform="translate(-26.323 -94.5)" fill="#fff"/>
  <path id="Path_401" data-name="Path 401" d="M47.173,81.795a2.763,2.763,0,0,1-2.341-1.075c-.195-.25-.325-.541-.049-.8.3-.281.562-.128.833.127a2.014,2.014,0,0,0,3.17-.015c.248-.232.5-.375.777-.162.325.25.221.57,0,.851a2.724,2.724,0,0,1-2.391,1.071Z" transform="translate(-37.385 -66.822)" fill="#393741"/>
  <path id="Path_402" data-name="Path 402" d="M38.324,58.7a1.57,1.57,0,0,1,1.516-1.4A1.642,1.642,0,0,1,41.4,58.676a.558.558,0,0,1-.36.649A.481.481,0,0,1,40.4,59c-.114-.279-.14-.614-.534-.614s-.467.291-.562.584a.487.487,0,0,1-.622.367C38.356,59.254,38.306,58.991,38.324,58.7Z" transform="translate(-32.104 -47.999)" fill="#393741"/>
  <path id="Path_403" data-name="Path 403" d="M65.167,57.34a1.553,1.553,0,0,1,1.527,1.383c.013.287-.016.555-.346.649a.487.487,0,0,1-.625-.355c-.094-.3-.174-.6-.549-.6s-.445.313-.545.591a.488.488,0,0,1-.627.357.564.564,0,0,1-.37-.711A1.638,1.638,0,0,1,65.167,57.34Z" transform="translate(-53.297 -48.034)" fill="#393741"/>
</svg>
