<svg xmlns="http://www.w3.org/2000/svg" xmlns:xlink="http://www.w3.org/1999/xlink" width="68.106" height="21.613" viewBox="0 0 68.106 21.613">
  <defs>
    <filter id="Path_107" x="0" y="0" width="68.106" height="21.613" filterUnits="userSpaceOnUse">
      <feOffset dy="2" input="SourceAlpha"/>
      <feGaussianBlur stdDeviation="1" result="blur"/>
      <feFlood flood-opacity="0.161"/>
      <feComposite operator="in" in2="blur"/>
      <feComposite in="SourceGraphic"/>
    </filter>
  </defs>
  <g id="Group_1968" data-name="Group 1968" transform="translate(-187.001 -1413.926)">
    <g id="Group_635" data-name="Group 635" transform="translate(190 1414.926)">
      <g id="Layer_2" data-name="Layer 2" transform="translate(0 0)">
        <g id="Слой_1" data-name="Слой 1" transform="translate(0 0)">
          <rect id="Rectangle_398" data-name="Rectangle 398" width="2.236" height="3.934" transform="translate(0 13.254)" fill="#f2d750"/>
          <path id="Path_106" data-name="Path 106" d="M1443.26,1.575h0a1.575,1.575,0,0,0,1.576,1.575h.661V0h-.661a1.575,1.575,0,0,0-1.576,1.575Z" transform="translate(-1443.259 15.612)" fill="#f2ae2e"/>
          <g transform="matrix(1, 0, 0, 1, -3, -1)" filter="url(#Path_107)">
            <path id="Path_107-2" data-name="Path 107" d="M.021,76.362V62.376A1.494,1.494,0,0,1,1.332,60.75H61.471a.664.664,0,0,1,.6.477.97.97,0,0,1-.1.871l-3.722,5.28a2.122,2.122,0,0,0,0,2.355l3.722,5.281a.969.969,0,0,1,.1.872.663.663,0,0,1-.6.477Z" transform="translate(2.98 -59.75)" fill="#f2d750"/>
          </g>
        </g>
      </g>
    </g>
    <path id="Path_4538" data-name="Path 4538" d="M-36.51-7.4h.81L-38.34,0h-.72l-2.07-6.29L-43.2,0h-.71l-2.65-7.4h.81l2.23,6.38,2.03-6.38h.73l2.03,6.38Zm2.14,3a2.212,2.212,0,0,1,2.1-.99l-.06.66a2.273,2.273,0,0,0-1.495.445A1.5,1.5,0,0,0-34.36-3.07V0h-.72V-5.29h.7Zm6.96-.89h.7V0h-.7l-.02-1.14A2.147,2.147,0,0,1-29.54.1a2.4,2.4,0,0,1-1.83-.755,2.766,2.766,0,0,1-.71-1.975,2.816,2.816,0,0,1,.71-2,2.384,2.384,0,0,1,1.83-.765,2.147,2.147,0,0,1,2.11,1.24ZM-29.37-.52a1.814,1.814,0,0,0,1.4-.585A2.186,2.186,0,0,0-27.43-2.64a2.186,2.186,0,0,0-.535-1.535,1.814,1.814,0,0,0-1.4-.585,1.826,1.826,0,0,0-1.415.585A2.2,2.2,0,0,0-31.32-2.63a2.167,2.167,0,0,0,.535,1.53A1.834,1.834,0,0,0-29.37-.52Zm7.13-4.87a2.383,2.383,0,0,1,1.825.755,2.777,2.777,0,0,1,.7,1.975,2.824,2.824,0,0,1-.7,2A2.376,2.376,0,0,1-22.24.1a2.147,2.147,0,0,1-2.11-1.24V2.2h-.72V-5.29h.7l.02,1.14A2.147,2.147,0,0,1-22.24-5.39Zm-.17,4.87A1.826,1.826,0,0,0-21-1.105,2.2,2.2,0,0,0-20.46-2.65,2.167,2.167,0,0,0-21-4.18a1.834,1.834,0,0,0-1.415-.58,1.822,1.822,0,0,0-1.4.58,2.182,2.182,0,0,0-.535,1.54,2.186,2.186,0,0,0,.535,1.535A1.814,1.814,0,0,0-22.41-.52Zm6.83-4.87a2.383,2.383,0,0,1,1.825.755,2.777,2.777,0,0,1,.7,1.975,2.824,2.824,0,0,1-.7,2A2.376,2.376,0,0,1-15.58.1a2.147,2.147,0,0,1-2.11-1.24V2.2h-.72V-5.29h.7l.02,1.14A2.147,2.147,0,0,1-15.58-5.39Zm-.17,4.87a1.826,1.826,0,0,0,1.415-.585A2.2,2.2,0,0,0-13.8-2.65a2.167,2.167,0,0,0-.535-1.53,1.834,1.834,0,0,0-1.415-.58,1.822,1.822,0,0,0-1.4.58,2.182,2.182,0,0,0-.535,1.54,2.186,2.186,0,0,0,.535,1.535A1.814,1.814,0,0,0-15.75-.52Zm8.66-2.19q0,.25-.01.33h-4.22a2.282,2.282,0,0,0,.53,1.39,1.575,1.575,0,0,0,1.23.51,2.047,2.047,0,0,0,1.71-.9l.55.31A2.564,2.564,0,0,1-9.56.1a2.38,2.38,0,0,1-1.83-.755,2.817,2.817,0,0,1-.7-2,2.828,2.828,0,0,1,.69-1.985A2.348,2.348,0,0,1-9.58-5.39a2.352,2.352,0,0,1,1.805.735A2.738,2.738,0,0,1-7.09-2.71ZM-8.355-4.3A1.571,1.571,0,0,0-9.58-4.81,1.571,1.571,0,0,0-10.8-4.3a2.213,2.213,0,0,0-.515,1.4h3.48A2.213,2.213,0,0,0-8.355-4.3ZM-1.54-7.8h.72V0h-.7l-.02-1.14A2.147,2.147,0,0,1-3.65.1,2.4,2.4,0,0,1-5.48-.655,2.766,2.766,0,0,1-6.19-2.63a2.816,2.816,0,0,1,.71-2A2.384,2.384,0,0,1-3.65-5.39,2.147,2.147,0,0,1-1.54-4.15ZM-3.48-.52a1.814,1.814,0,0,0,1.4-.585A2.186,2.186,0,0,0-1.54-2.64a2.186,2.186,0,0,0-.535-1.535,1.814,1.814,0,0,0-1.4-.585,1.826,1.826,0,0,0-1.415.585A2.2,2.2,0,0,0-5.43-2.63,2.167,2.167,0,0,0-4.895-1.1,1.834,1.834,0,0,0-3.48-.52Z" transform="translate(244.632 1425.879)" fill="#515a6b"/>
  </g>
</svg>
