<svg xmlns="http://www.w3.org/2000/svg" width="17.767" height="17.767" viewBox="0 0 17.767 17.767">
  <g id="youtube" opacity="0.84">
    <path id="Path_4462" data-name="Path 4462" d="M224.113,211.368,227,209.7l-2.89-1.664Zm0,0" transform="translate(-216.336 -200.82)" fill="#515a6b"/>
    <path id="Path_4463" data-name="Path 4463" d="M8.884,0a8.884,8.884,0,1,0,8.884,8.884A8.885,8.885,0,0,0,8.884,0Zm5.551,8.893a14.662,14.662,0,0,1-.229,2.67,1.391,1.391,0,0,1-.979.978,33.766,33.766,0,0,1-4.344.229,32.557,32.557,0,0,1-4.344-.238,1.391,1.391,0,0,1-.979-.979,14.6,14.6,0,0,1-.229-2.67,14.653,14.653,0,0,1,.229-2.67,1.419,1.419,0,0,1,.979-.988A33.765,33.765,0,0,1,8.884,5a32.488,32.488,0,0,1,4.344.238,1.391,1.391,0,0,1,.979.979A13.914,13.914,0,0,1,14.435,8.893Zm0,0" fill="#515a6b"/>
  </g>
</svg>
