<svg xmlns="http://www.w3.org/2000/svg" width="16.163" height="16.159" viewBox="0 0 16.163 16.159">
  <g id="Layer_2" data-name="Layer 2" transform="translate(0.03 -0.005)">
    <g id="Layer_1" data-name="Layer 1" transform="translate(-0.03 0.005)">
      <path id="Path_138" data-name="Path 138" d="M4.156,7.281H1.848A1.8,1.8,0,0,1-.028,5.4q0-1.787,0-3.57A1.765,1.765,0,0,1,1.8.008Q3.616,0,5.434.008A1.78,1.78,0,0,1,7.245,1.822c.008,1.6,0,3.2,0,4.8,0,.453-.2.656-.659.657C5.777,7.283,4.967,7.281,4.156,7.281ZM6.112,6.187c.023-.052.037-.071.037-.089,0-1.446.01-2.892,0-4.338a.7.7,0,0,0-.727-.688q-1.815-.015-3.63,0a.726.726,0,0,0-.754.734q-.017,1.83,0,3.661a.688.688,0,0,0,.666.715C3.176,6.194,4.639,6.187,6.112,6.187Z" transform="translate(0.03 -0.005)" fill="#f2ae2e"/>
      <path id="Path_139" data-name="Path 139" d="M144.167,147.247v-2.37c0-.476.2-.678.671-.678h4.74a1.789,1.789,0,0,1,1.863,1.859q0,1.787,0,3.57a1.763,1.763,0,0,1-1.836,1.842q-1.8,0-3.6,0a1.787,1.787,0,0,1-1.835-1.825C144.162,148.848,144.167,148.048,144.167,147.247ZM145.3,145.3a.4.4,0,0,0-.036.091c0,1.446-.01,2.892,0,4.338a.7.7,0,0,0,.729.686q1.815.015,3.63,0a.727.727,0,0,0,.752-.739q.016-1.831,0-3.661a.689.689,0,0,0-.669-.712C148.24,145.287,146.774,145.3,145.3,145.3Z" transform="translate(-135.281 -135.316)" fill="#f2ae2e"/>
      <path id="Path_140" data-name="Path 140" d="M147.2,7.281h-2.4c-.457,0-.657-.2-.658-.657,0-1.6-.006-3.2,0-4.8A1.783,1.783,0,0,1,145.955.008q1.832-.006,3.663,0A1.763,1.763,0,0,1,151.412,1.8q.008,1.831,0,3.663A1.784,1.784,0,0,1,149.6,7.279c-.4.006-.8,0-1.2,0Zm-1.972-1.138a.444.444,0,0,0,.1.037c1.445,0,2.891.012,4.337,0a.692.692,0,0,0,.683-.729q.014-1.815,0-3.63a.731.731,0,0,0-.739-.752q-1.831-.015-3.661,0a.707.707,0,0,0-.717.729c-.008.225,0,.451,0,.678Z" transform="translate(-135.253 -0.005)" fill="#f2ae2e"/>
      <path id="Path_141" data-name="Path 141" d="M7.3,147.262v2.309a1.786,1.786,0,0,1-1.878,1.875H1.851a1.768,1.768,0,0,1-1.824-1.826q0-1.816,0-3.632a1.778,1.778,0,0,1,1.813-1.814c1.6-.007,3.2,0,4.8,0,.457,0,.656.2.657.657C7.3,145.639,7.3,146.452,7.3,147.262ZM6.209,145.31a.47.47,0,0,0-.1-.037c-1.445,0-2.891-.012-4.337,0a.69.69,0,0,0-.683.729q-.014,1.815,0,3.63a.731.731,0,0,0,.739.751q1.83.016,3.66,0a.707.707,0,0,0,.717-.729c.008-.235,0-.471,0-.707C6.209,147.734,6.209,146.525,6.209,145.31Z" transform="translate(-0.022 -135.288)" fill="#f2ae2e"/>
    </g>
  </g>
</svg>
