<svg xmlns="http://www.w3.org/2000/svg" width="18" height="18.002" viewBox="0 0 18 18.002">
  <g id="delivery" transform="translate(0)">
    <g id="Group_1718" data-name="Group 1718" transform="translate(0)">
      <path id="Path_4126" data-name="Path 4126" d="M3.9,9.337,1.163,6.6a3.867,3.867,0,1,1,6.6-2.735A3.842,3.842,0,0,1,6.632,6.6Zm0-8.282a2.813,2.813,0,0,0-1.989,4.8L3.9,7.845,5.886,5.856A2.813,2.813,0,0,0,3.9,1.055Z" transform="translate(-0.03)" fill="#f2ae2e"/>
    </g>
    <g id="Group_1719" data-name="Group 1719" transform="translate(2.109 2.11)">
      <path id="Path_4127" data-name="Path 4127" d="M61.79,63.52a1.758,1.758,0,1,1,1.758-1.758A1.76,1.76,0,0,1,61.79,63.52Zm0-2.461a.7.7,0,1,0,.7.7A.7.7,0,0,0,61.79,61.059Z" transform="translate(-60.032 -60.004)" fill="#f2ae2e"/>
    </g>
    <g id="Group_1720" data-name="Group 1720" transform="translate(12.375 11.212)">
      <path id="Path_4128" data-name="Path 4128" d="M354.835,325.7l-1.989-1.989a2.813,2.813,0,1,1,3.978,0Zm-1.243-2.735,1.243,1.243,1.243-1.243a1.758,1.758,0,1,0-2.486,0Z" transform="translate(-352.022 -318.914)" fill="#f2ae2e"/>
    </g>
    <g id="Group_1721" data-name="Group 1721" transform="translate(3.34 8.063)">
      <path id="Path_4129" data-name="Path 4129" d="M104.316,239.3H98.429a3.394,3.394,0,0,1,0-6.788h1.957a1.047,1.047,0,0,0,0-2.094H98.34v-1.055h2.046a2.1,2.1,0,0,1,0,4.2H98.429a2.339,2.339,0,0,0,0,4.679h5.887V239.3Z" transform="translate(-95.035 -229.361)" fill="#f2ae2e"/>
    </g>
  </g>
</svg>
