<svg xmlns="http://www.w3.org/2000/svg" width="13.034" height="13.034" viewBox="0 0 13.034 13.034">
  <g id="pencil" transform="translate(0 0)">
    <g id="Group_1671" data-name="Group 1671" transform="translate(0 0)">
      <path id="Path_4091" data-name="Path 4091" d="M12.628,1.586,11.447.4A1.386,1.386,0,0,0,9.49.4L.7,9.193a.389.389,0,0,0-.105.2L.006,12.583a.382.382,0,0,0,.445.445l3.189-.591a.389.389,0,0,0,.2-.105l8.788-8.788A1.383,1.383,0,0,0,12.628,1.586ZM.859,12.176l.357-1.929,1.572,1.572Zm2.712-.654L1.512,9.463,9.028,1.947l2.058,2.059ZM12.088,3l-.462.462L9.568,1.407,10.03.945a.621.621,0,0,1,.877,0l1.181,1.181A.62.62,0,0,1,12.088,3Z" transform="translate(0 0)" fill="#f2ae2e"/>
    </g>
  </g>
</svg>
