<svg xmlns="http://www.w3.org/2000/svg" width="16.163" height="13.381" viewBox="0 0 16.163 13.381">
  <g id="Group_1631" data-name="Group 1631" transform="translate(0 -35.514)">
    <g id="Group_1630" data-name="Group 1630" transform="translate(0 35.514)">
      <path id="Path_4065" data-name="Path 4065" d="M11.58,35.514h0a4.542,4.542,0,0,0-3.5,1.616,4.48,4.48,0,0,0-3.5-1.616A4.583,4.583,0,0,0,0,40.1c0,4.337,7.57,8.572,7.877,8.736a.368.368,0,0,0,.409,0c.307-.164,7.877-4.337,7.877-8.736A4.583,4.583,0,0,0,11.58,35.514Zm-3.5,12.5c-1.187-.7-7.263-4.4-7.263-7.918a3.764,3.764,0,0,1,3.764-3.764,3.683,3.683,0,0,1,3.151,1.7.43.43,0,0,0,.7,0A3.764,3.764,0,0,1,15.344,40.1C15.344,43.657,9.268,47.34,8.081,48.015Z" transform="translate(0 -35.514)" fill="#f2ae2e"/>
    </g>
  </g>
</svg>
