<svg id="question" xmlns="http://www.w3.org/2000/svg" width="16" height="16" viewBox="0 0 16 16">
  <path id="Path_4152" data-name="Path 4152" d="M236,363.335a.667.667,0,1,1-.667-.667A.667.667,0,0,1,236,363.335Zm0,0" transform="translate(-227.335 -351.335)" fill="#f2ae2e"/>
  <path id="Path_4153" data-name="Path 4153" d="M8,16a8,8,0,1,1,8-8A8.009,8.009,0,0,1,8,16ZM8,1a7,7,0,1,0,7,7A7.008,7.008,0,0,0,8,1ZM8,1" fill="#f2ae2e"/>
  <path id="Path_4154" data-name="Path 4154" d="M168.165,92.5a.5.5,0,0,1-.5-.5v-.673a1.5,1.5,0,0,1,1-1.415A2.068,2.068,0,0,0,170,88.165a1.833,1.833,0,1,0-3.667,0,.5.5,0,0,1-1,0,2.833,2.833,0,1,1,5.667,0,3.068,3.068,0,0,1-2,2.689.5.5,0,0,0-.334.472V92A.5.5,0,0,1,168.165,92.5Zm0,0" transform="translate(-160.165 -82.665)" fill="#f2ae2e"/>
</svg>
