<svg id="settings" xmlns="http://www.w3.org/2000/svg" width="16.902" height="16.902" viewBox="0 0 16.902 16.902">
  <g id="Group_1728" data-name="Group 1728">
    <g id="Group_1727" data-name="Group 1727">
      <path id="Path_4156" data-name="Path 4156" d="M15.8,6.614H14.424a6.218,6.218,0,0,0-.45-1.087l.972-.972a1.1,1.1,0,0,0,0-1.56l-1.04-1.04a1.13,1.13,0,0,0-1.559,0l-.972.972a6.235,6.235,0,0,0-1.087-.45V1.1A1.1,1.1,0,0,0,9.186,0H7.716a1.1,1.1,0,0,0-1.1,1.1V2.478a6.247,6.247,0,0,0-1.087.45l-.972-.972A1.1,1.1,0,0,0,3,1.956L1.955,3a1.1,1.1,0,0,0,0,1.559l.972.972a6.235,6.235,0,0,0-.45,1.087H1.1A1.1,1.1,0,0,0,0,7.717v1.47a1.1,1.1,0,0,0,1.1,1.1H2.478a6.247,6.247,0,0,0,.45,1.087l-.972.972a1.1,1.1,0,0,0,0,1.559L3,14.947a1.1,1.1,0,0,0,1.559,0l.972-.972a6.235,6.235,0,0,0,1.087.45V15.8a1.1,1.1,0,0,0,1.1,1.1h1.47a1.1,1.1,0,0,0,1.1-1.1V14.424a6.235,6.235,0,0,0,1.087-.45l.972.972a1.13,1.13,0,0,0,1.559,0l1.04-1.04a1.1,1.1,0,0,0,0-1.559l-.972-.972a6.235,6.235,0,0,0,.45-1.087H15.8a1.1,1.1,0,0,0,1.1-1.1V7.716A1.1,1.1,0,0,0,15.8,6.614Zm.367,2.572a.368.368,0,0,1-.367.367H14.147a.368.368,0,0,0-.356.276,5.523,5.523,0,0,1-.589,1.423.368.368,0,0,0,.057.446l1.168,1.169a.369.369,0,0,1,0,.52l-1.04,1.04a.378.378,0,0,1-.52,0L11.7,13.259a.368.368,0,0,0-.447-.057,5.5,5.5,0,0,1-1.422.589.367.367,0,0,0-.275.355V15.8a.368.368,0,0,1-.367.367H7.716a.368.368,0,0,1-.367-.367V14.147a.368.368,0,0,0-.276-.356A5.509,5.509,0,0,1,5.651,13.2a.364.364,0,0,0-.187-.051.367.367,0,0,0-.26.108L4.035,14.427a.369.369,0,0,1-.52,0l-1.04-1.04a.368.368,0,0,1,0-.52L3.644,11.7a.367.367,0,0,0,.057-.446,5.517,5.517,0,0,1-.589-1.423.367.367,0,0,0-.355-.276H1.1a.368.368,0,0,1-.367-.367V7.716A.368.368,0,0,1,1.1,7.349H2.756a.368.368,0,0,0,.356-.276A5.509,5.509,0,0,1,3.7,5.651.367.367,0,0,0,3.644,5.2L2.475,4.036a.369.369,0,0,1,0-.52l1.04-1.04a.368.368,0,0,1,.52,0L5.2,3.644a.366.366,0,0,0,.446.057,5.517,5.517,0,0,1,1.423-.589.368.368,0,0,0,.276-.356V1.1A.368.368,0,0,1,7.716.735h1.47a.368.368,0,0,1,.367.367V2.756a.368.368,0,0,0,.276.356,5.5,5.5,0,0,1,1.422.589.367.367,0,0,0,.447-.057l1.168-1.168a.377.377,0,0,1,.52,0l1.04,1.04a.369.369,0,0,1,0,.52L13.258,5.2a.368.368,0,0,0-.057.446,5.518,5.518,0,0,1,.589,1.423.367.367,0,0,0,.355.276H15.8a.368.368,0,0,1,.367.367Z" fill="#f2ae2e"/>
    </g>
  </g>
  <g id="Group_1730" data-name="Group 1730" transform="translate(5.144 5.144)">
    <g id="Group_1729" data-name="Group 1729">
      <path id="Path_4157" data-name="Path 4157" d="M115.307,112a3.307,3.307,0,1,0,3.307,3.307A3.311,3.311,0,0,0,115.307,112Zm0,5.879a2.572,2.572,0,1,1,2.572-2.572A2.575,2.575,0,0,1,115.307,117.879Z" transform="translate(-112 -112)" fill="#f2ae2e"/>
    </g>
  </g>
</svg>
