<svg xmlns="http://www.w3.org/2000/svg" width="12.376" height="13.201" viewBox="0 0 12.376 13.201">
  <g id="share" transform="translate(-16)">
    <g id="Group_1726" data-name="Group 1726" transform="translate(16)">
      <path id="Path_4155" data-name="Path 4155" d="M26.056,8.56A2.319,2.319,0,0,0,24.19,9.5L20.547,7.642a2.321,2.321,0,0,0-.075-1.525l3.818-2.294a2.311,2.311,0,1,0-.4-.664l-3.827,2.3a2.32,2.32,0,1,0,.142,2.878l3.632,1.856A2.321,2.321,0,1,0,26.056,8.56Zm0-7.787a1.547,1.547,0,1,1-1.547,1.547A1.549,1.549,0,0,1,26.056.774ZM18.321,8.535a1.547,1.547,0,1,1,1.547-1.547A1.549,1.549,0,0,1,18.321,8.535Zm7.735,3.893A1.547,1.547,0,1,1,27.6,10.881,1.549,1.549,0,0,1,26.056,12.428Z" transform="translate(-16)" fill="#f2ae2e"/>
    </g>
  </g>
</svg>
