<svg xmlns="http://www.w3.org/2000/svg" width="13.098" height="16.364" viewBox="0 0 13.098 16.364">
  <g id="shopping-bag_2_" data-name="shopping-bag (2)" transform="translate(-48.8)">
    <path id="Path_137" data-name="Path 137" d="M61.894,14.145,60.957,3.594a.451.451,0,0,0-.448-.412H58.581a3.233,3.233,0,0,0-6.465,0H50.189a.449.449,0,0,0-.448.412L48.8,14.145c0,.013,0,.027,0,.04a2.332,2.332,0,0,0,2.456,2.178h8.185A2.332,2.332,0,0,0,61.9,14.185.163.163,0,0,0,61.894,14.145ZM55.349.9a2.331,2.331,0,0,1,2.329,2.279H53.02A2.331,2.331,0,0,1,55.349.9ZM59.441,15.46H51.256A1.442,1.442,0,0,1,49.7,14.205l.9-10.116h1.513V5.461a.452.452,0,0,0,.9,0V4.089h4.661V5.461a.452.452,0,0,0,.9,0V4.089h1.513l.9,10.116A1.444,1.444,0,0,1,59.441,15.46Z" fill="#f2ae2e"/>
  </g>
</svg>
