<svg id="Group_1670" data-name="Group 1670" xmlns="http://www.w3.org/2000/svg" width="46.835" height="45.581" viewBox="0 0 46.835 45.581">
  <g id="Group_1669" data-name="Group 1669" transform="translate(0 0)">
    <path id="Path_4088" data-name="Path 4088" d="M101.543,350.322a4.89,4.89,0,1,0,4.89,4.89A4.889,4.889,0,0,0,101.543,350.322Zm0,7.606a2.716,2.716,0,1,1,2.716-2.716A2.716,2.716,0,0,1,101.543,357.928Z" transform="translate(-86.602 -314.52)" fill="#393741"/>
    <path id="Path_4089" data-name="Path 4089" d="M300.074,350.322a4.89,4.89,0,1,0,4.889,4.89A4.89,4.89,0,0,0,300.074,350.322Zm0,7.606a2.716,2.716,0,1,1,2.716-2.716A2.716,2.716,0,0,1,300.074,357.928Z" transform="translate(-264.488 -314.52)" fill="#393741"/>
    <path id="Path_4090" data-name="Path 4090" d="M46.614,13.308a1.358,1.358,0,0,0-.869-.435l-35.368-.489L9.4,9.4A5,5,0,0,0,4.727,6.028H1.087a1.087,1.087,0,1,0,0,2.173h3.64a2.825,2.825,0,0,1,2.608,1.9l6.9,20.808-.543,1.25a5.215,5.215,0,0,0,.489,4.727,5.053,5.053,0,0,0,4.075,2.282H39.388a1.087,1.087,0,0,0,0-2.173H18.254a2.771,2.771,0,0,1-2.282-1.3,2.988,2.988,0,0,1-.272-2.608l.435-.978,22.872-2.39a5.976,5.976,0,0,0,5.161-4.564l2.608-10.92A.924.924,0,0,0,46.614,13.308ZM42.05,24.663a3.694,3.694,0,0,1-3.314,2.879l-22.6,2.336L11.083,14.558l33.3.489Z" transform="translate(0 -6.028)" fill="#393741"/>
  </g>
</svg>
