<svg xmlns="http://www.w3.org/2000/svg" width="52" height="47.131" viewBox="0 0 52 47.131">
  <g id="tshirt" transform="translate(0 -19.089)">
    <g id="Group_1675" data-name="Group 1675" transform="translate(0 19.089)">
      <path id="Path_4117" data-name="Path 4117" d="M51.719,31.707l-.037-.037L40.948,22.13a1.02,1.02,0,0,0-.337-.2L32.847,19.15a1.02,1.02,0,0,0-1.367.908c0,.224-.337,5.4-5.51,5.479-5.2-.082-5.53-5.255-5.541-5.479a1.02,1.02,0,0,0-1.357-.908l-7.755,2.806a1.02,1.02,0,0,0-.337.2L.318,31.67a1.02,1.02,0,0,0-.037,1.443l.037.037,8.489,8.581V65.2a1.02,1.02,0,0,0,1.02,1.02H42.173a1.02,1.02,0,0,0,1.02-1.02V41.731l8.489-8.581A1.02,1.02,0,0,0,51.719,31.707Zm-8.557,7.116V34.088a1.02,1.02,0,1,0-2.041,0V64.127H10.807V34.088a1.02,1.02,0,1,0-2.041,0v4.745L2.491,32.476,12.2,23.782l6.387-2.306a7.52,7.52,0,0,0,14.765,0l6.387,2.306,9.683,8.693Z" transform="translate(0 -19.089)" fill="#393741"/>
    </g>
  </g>
</svg>
