<svg xmlns="http://www.w3.org/2000/svg" width="59.04" height="45.386" viewBox="0 0 59.04 45.386">
  <g id="laptop" transform="translate(0 -59.201)">
    <g id="Group_1707" data-name="Group 1707" transform="translate(0 59.201)">
      <g id="Group_1706" data-name="Group 1706" transform="translate(0 0)">
        <path id="Path_4121" data-name="Path 4121" d="M59.037,100.351c0-.009,0-.017,0-.026a.848.848,0,0,0-.015-.1l0-.01a.839.839,0,0,0-.025-.089l-.008-.023q-.015-.039-.033-.076l-.006-.013-4.625-9.123V60.875A1.676,1.676,0,0,0,52.646,59.2H6.393a1.676,1.676,0,0,0-1.674,1.674V90.891L.094,100.014l-.006.013c-.012.025-.023.05-.033.076l-.008.023a.882.882,0,0,0-.025.089l0,.009a.853.853,0,0,0-.015.1c0,.009,0,.017,0,.026s0,.036,0,.054V102.6a1.991,1.991,0,0,0,1.988,1.988H57.051A1.991,1.991,0,0,0,59.04,102.6v-2.194C59.04,100.387,59.038,100.369,59.037,100.351ZM6.449,60.931H52.591v29.3H6.449ZM6.115,91.962h46.81l3.842,7.578h-19l-.954-3.458a1.633,1.633,0,0,0-1.57-1.2H23.8a1.633,1.633,0,0,0-1.57,1.2l-.954,3.458h-19ZM35.971,99.54h-12.9l.806-2.924h11.29ZM57.31,102.6a.259.259,0,0,1-.259.259H1.988a.259.259,0,0,1-.259-.259V101.27H57.31Z" transform="translate(0 -59.201)" fill="#393741"/>
      </g>
    </g>
    <g id="Group_1709" data-name="Group 1709" transform="translate(8.294 77.023)">
      <g id="Group_1708" data-name="Group 1708" transform="translate(0 0)">
        <path id="Path_4122" data-name="Path 4122" d="M113.511,213.756a.865.865,0,0,0-.865.865v8.77H73.653v-8.77a.865.865,0,0,0-1.73,0v9.144a1.358,1.358,0,0,0,1.356,1.356h39.74a1.358,1.358,0,0,0,1.356-1.356v-9.144A.865.865,0,0,0,113.511,213.756Z" transform="translate(-71.923 -213.756)" fill="#393741"/>
      </g>
    </g>
    <g id="Group_1711" data-name="Group 1711" transform="translate(8.294 62.776)">
      <g id="Group_1710" data-name="Group 1710">
        <path id="Path_4123" data-name="Path 4123" d="M113.019,90.2H73.279a1.358,1.358,0,0,0-1.356,1.356V100.7a.865.865,0,0,0,1.73,0v-8.77h38.993v8.77a.865.865,0,1,0,1.73,0V91.559A1.358,1.358,0,0,0,113.019,90.2Z" transform="translate(-71.923 -90.203)" fill="#393741"/>
      </g>
    </g>
  </g>
</svg>
