<svg xmlns="http://www.w3.org/2000/svg" width="52" height="29.466" viewBox="0 0 52 29.466">
  <g id="coupon" transform="translate(0 -104)">
    <g id="Group_1677" data-name="Group 1677" transform="translate(15.437 121.171)">
      <g id="Group_1676" data-name="Group 1676" transform="translate(0 0)">
        <rect id="Rectangle_541" data-name="Rectangle 541" width="2" height="2" transform="translate(-0.438 -0.437)" fill="#393741"/>
      </g>
    </g>
    <g id="Group_1679" data-name="Group 1679" transform="translate(15.437 124.421)">
      <g id="Group_1678" data-name="Group 1678" transform="translate(0 0)">
        <rect id="Rectangle_542" data-name="Rectangle 542" width="2" height="2" transform="translate(-0.438 0.313)" fill="#393741"/>
      </g>
    </g>
    <g id="Group_1681" data-name="Group 1681" transform="translate(15.437 128.483)">
      <g id="Group_1680" data-name="Group 1680" transform="translate(0 0)">
        <rect id="Rectangle_543" data-name="Rectangle 543" width="2" height="1" transform="translate(-0.438 0.25)" fill="#393741"/>
      </g>
    </g>
    <g id="Group_1683" data-name="Group 1683" transform="translate(15.437 117.921)">
      <g id="Group_1682" data-name="Group 1682" transform="translate(0 0)">
        <rect id="Rectangle_544" data-name="Rectangle 544" width="2" height="2" transform="translate(-0.438 -0.187)" fill="#393741"/>
      </g>
    </g>
    <g id="Group_1685" data-name="Group 1685" transform="translate(15.437 114.671)">
      <g id="Group_1684" data-name="Group 1684" transform="translate(0 0)">
        <rect id="Rectangle_545" data-name="Rectangle 545" width="2" height="2" transform="translate(-0.438 0.063)" fill="#393741"/>
      </g>
    </g>
    <g id="Group_1687" data-name="Group 1687" transform="translate(15.437 110.608)">
      <g id="Group_1686" data-name="Group 1686">
        <rect id="Rectangle_546" data-name="Rectangle 546" width="2" height="2" transform="translate(-0.438 0.125)" fill="#393741"/>
      </g>
    </g>
    <g id="Group_1689" data-name="Group 1689" transform="translate(15.437 107.358)">
      <g id="Group_1688" data-name="Group 1688">
        <rect id="Rectangle_547" data-name="Rectangle 547" width="2" height="1" transform="translate(-0.438 0.375)" fill="#393741"/>
      </g>
    </g>
    <g id="Group_1691" data-name="Group 1691" transform="translate(3.25 107.358)">
      <g id="Group_1690" data-name="Group 1690">
        <rect id="Rectangle_548" data-name="Rectangle 548" width="2" height="1" transform="translate(-0.25 0.375)" fill="#393741"/>
      </g>
    </g>
    <g id="Group_1693" data-name="Group 1693" transform="translate(47.125 107.358)">
      <g id="Group_1692" data-name="Group 1692">
        <rect id="Rectangle_549" data-name="Rectangle 549" width="2" height="1" transform="translate(-0.125 0.375)" fill="#393741"/>
      </g>
    </g>
    <g id="Group_1695" data-name="Group 1695" transform="translate(47.125 128.483)">
      <g id="Group_1694" data-name="Group 1694" transform="translate(0 0)">
        <rect id="Rectangle_550" data-name="Rectangle 550" width="2" height="1" transform="translate(-0.125 0.25)" fill="#393741"/>
      </g>
    </g>
    <g id="Group_1697" data-name="Group 1697" transform="translate(3.25 128.483)">
      <g id="Group_1696" data-name="Group 1696" transform="translate(0 0)">
        <rect id="Rectangle_551" data-name="Rectangle 551" width="2" height="1" transform="translate(-0.25 0.25)" fill="#393741"/>
      </g>
    </g>
    <g id="Group_1699" data-name="Group 1699" transform="translate(0 104)">
      <g id="Group_1698" data-name="Group 1698">
        <path id="Path_4118" data-name="Path 4118" d="M51.133,114.4a.867.867,0,0,0,.867-.867v-8.667a.867.867,0,0,0-.867-.867H.867a.867.867,0,0,0-.867.867v8.667a.867.867,0,0,0,.867.867,4.333,4.333,0,1,1,0,8.667.867.867,0,0,0-.867.867V132.6a.867.867,0,0,0,.867.867H51.133A.867.867,0,0,0,52,132.6v-8.667a.867.867,0,0,0-.867-.867,4.333,4.333,0,1,1,0-8.667Zm-6.01,5.2a6.067,6.067,0,0,0,5.143,5.143v6.995H1.733v-6.995a6.067,6.067,0,0,0,0-12.01v-6.995H50.266v6.995A6.067,6.067,0,0,0,45.123,119.6Z" transform="translate(0 -104)" fill="#393741"/>
      </g>
    </g>
    <g id="Group_1701" data-name="Group 1701" transform="translate(22.533 110.067)">
      <g id="Group_1700" data-name="Group 1700" transform="translate(0 0)">
        <path id="Path_4119" data-name="Path 4119" d="M211.467,160a3.467,3.467,0,1,0,3.467,3.467A3.467,3.467,0,0,0,211.467,160Zm0,5.2a1.733,1.733,0,1,1,1.733-1.733A1.733,1.733,0,0,1,211.467,165.2Z" transform="translate(-208 -160)" fill="#393741"/>
      </g>
    </g>
    <g id="Group_1703" data-name="Group 1703" transform="translate(32.933 120.467)">
      <g id="Group_1702" data-name="Group 1702" transform="translate(0 0)">
        <path id="Path_4120" data-name="Path 4120" d="M307.467,256a3.467,3.467,0,1,0,3.467,3.467A3.467,3.467,0,0,0,307.467,256Zm0,5.2a1.733,1.733,0,1,1,1.733-1.733A1.733,1.733,0,0,1,307.467,261.2Z" transform="translate(-304 -256)" fill="#393741"/>
      </g>
    </g>
    <g id="Group_1705" data-name="Group 1705" transform="translate(23.654 111.185)">
      <g id="Group_1704" data-name="Group 1704">
        <rect id="Rectangle_552" data-name="Rectangle 552" width="19.61" height="1.733" transform="translate(0 13.866) rotate(-45)" fill="#393741"/>
      </g>
    </g>
  </g>
</svg>
