<svg xmlns="http://www.w3.org/2000/svg" width="32.882" height="45.867" viewBox="0 0 32.882 45.867">
  <path id="bag" d="M97,45.867H71.768a3.825,3.825,0,0,1-3.807-4.158l2.327-26.373A3.8,3.8,0,0,1,74.1,11.849h2.36V7.931a7.931,7.931,0,0,1,15.862,0v3.918h2.36a.764.764,0,0,1,0,1.529h-2.36v3.44a.764.764,0,0,1-1.529,0v-3.44H80.755a.764.764,0,1,1,0-1.529H90.789V7.931a6.4,6.4,0,1,0-12.8,0v8.887a.764.764,0,1,1-1.529,0v-3.44H74.1a2.281,2.281,0,0,0-2.284,2.092L69.484,41.843a2.291,2.291,0,0,0,2.284,2.495H97a2.291,2.291,0,0,0,2.284-2.495L96.962,15.47a.764.764,0,0,1,1.523-.134l2.327,26.373A3.825,3.825,0,0,1,97,45.867ZM79.991,39.273H74.449a.764.764,0,1,0,0,1.529h5.542a.764.764,0,1,0,0-1.529Zm0-3.822H74.449a.764.764,0,1,0,0,1.529h5.542a.764.764,0,1,0,0-1.529Z" transform="translate(-67.946)" fill="#393741"/>
</svg>
