<svg id="electronics" xmlns="http://www.w3.org/2000/svg" width="46" height="46" viewBox="0 0 46 46">
  <path id="Path_4097" data-name="Path 4097" d="M276.7,0H256.767A.767.767,0,0,0,256,.767V43.7a.767.767,0,0,0,.767.767h.767V46h1.533V44.467H274.4V46h1.533V44.467h.767a.767.767,0,0,0,.767-.767V.767A.767.767,0,0,0,276.7,0Zm-.767,42.933h-18.4V16.1h18.4Zm0-28.367h-18.4V1.533h18.4Zm0,0" transform="translate(-231.467)"/>
  <path id="Path_4098" data-name="Path 4098" d="M296,56h1.533v7.667H296Zm0,0" transform="translate(-267.633 -50.633)"/>
  <path id="Path_4099" data-name="Path 4099" d="M296,184h1.533v10.733H296Zm0,0" transform="translate(-267.633 -166.367)"/>
  <path id="Path_4100" data-name="Path 4100" d="M.767,196.367h.767V197.9H3.067v-1.533H19.933V197.9h1.533v-1.533h.767A.767.767,0,0,0,23,195.6V168.767a.767.767,0,0,0-.767-.767H.767a.767.767,0,0,0-.767.767V195.6A.767.767,0,0,0,.767,196.367Zm.767-26.833H21.467v4.6H1.533Zm0,6.133H21.467v19.167H1.533Zm0,0" transform="translate(0 -151.9)"/>
  <path id="Path_4101" data-name="Path 4101" d="M40.433,256a8.433,8.433,0,1,0,8.433,8.433A8.433,8.433,0,0,0,40.433,256Zm0,15.333a6.9,6.9,0,1,1,4.3-12.286l-1.089,1.092a5.378,5.378,0,1,0-.013,8.58l1.1,1.1A6.858,6.858,0,0,1,40.433,271.333Zm1.758-4.058.347.347a3.833,3.833,0,1,1,0-6.383l-.351.351a.767.767,0,0,0-.225.542v4.6a.767.767,0,0,0,.225.542Zm3.628,1.457L43.5,266.416v-3.965l2.319-2.319a6.867,6.867,0,0,1,0,8.6Zm0,0" transform="translate(-28.933 -231.467)"/>
  <path id="Path_4102" data-name="Path 4102" d="M32,200h1.533v1.533H32Zm0,0" transform="translate(-28.933 -180.833)"/>
  <path id="Path_4103" data-name="Path 4103" d="M64,200h1.533v1.533H64Zm0,0" transform="translate(-57.867 -180.833)"/>
  <path id="Path_4104" data-name="Path 4104" d="M96,200h1.533v1.533H96Zm0,0" transform="translate(-86.8 -180.833)"/>
  <path id="Path_4105" data-name="Path 4105" d="M160,200h4.6v1.533H160Zm0,0" transform="translate(-144.667 -180.833)"/>
  <path id="Path_4106" data-name="Path 4106" d="M.767,14.567H22.233A.767.767,0,0,0,23,13.8V.767A.767.767,0,0,0,22.233,0H.767A.767.767,0,0,0,0,.767V13.8A.767.767,0,0,0,.767,14.567Zm16.1-13.033h4.6v11.5h-4.6Zm-15.333,0h13.8v11.5H1.533Zm0,0"/>
  <path id="Path_4107" data-name="Path 4107" d="M192,32h1.533v1.533H192Zm0,0" transform="translate(-173.6 -28.933)"/>
  <path id="Path_4108" data-name="Path 4108" d="M192,64h1.533v1.533H192Zm0,0" transform="translate(-173.6 -57.867)"/>
  <path id="Path_4109" data-name="Path 4109" d="M41.967,32h-9.2a.767.767,0,0,0-.767.767v6.9a.767.767,0,0,0,.767.767h9.2a.767.767,0,0,0,.767-.767v-6.9A.767.767,0,0,0,41.967,32ZM41.2,38.9H33.533V33.533H41.2Zm0,0" transform="translate(-28.933 -28.933)"/>
  <path id="Path_4110" data-name="Path 4110" d="M189.15,100a1.15,1.15,0,1,0,1.15,1.15A1.15,1.15,0,0,0,189.15,100Zm0,1.533a.383.383,0,1,1,.383-.383A.383.383,0,0,1,189.15,101.533Zm0,0" transform="translate(-169.983 -90.417)"/>
</svg>
