<svg xmlns="http://www.w3.org/2000/svg" width="56.984" height="21.675" viewBox="0 0 56.984 21.675">
  <g id="sunglasses" transform="translate(0 -147.166)">
    <path id="Path_4092" data-name="Path 4092" d="M57.894,170.694a39.549,39.549,0,0,0-13.783-.384,3.751,3.751,0,0,0-3.174,4.364c.081.458.162.887.238,1.274.348,1.747.725,3.323,1.121,4.682a5.742,5.742,0,0,0,4.359,4.051l.144.029a12.367,12.367,0,0,0,14.123-8.219l.1-.307a4.229,4.229,0,0,0-3.133-5.49Zm1.995,5.113-.1.3a11.167,11.167,0,0,1-12.753,7.427l-.14-.028a4.545,4.545,0,0,1-3.445-3.211c-.387-1.326-.755-2.867-1.1-4.58-.075-.378-.154-.8-.234-1.249A2.551,2.551,0,0,1,44.28,171.5a38.36,38.36,0,0,1,13.365.37,3.029,3.029,0,0,1,2.244,3.939Z" transform="translate(-35.975 -19.994)" fill="#393741"/>
    <path id="Path_4093" data-name="Path 4093" d="M105.2,185.876a36.2,36.2,0,0,0-7.494-.767c-.682,0-1.38.019-2.074.056a.6.6,0,1,0,.064,1.2c.673-.036,1.35-.054,2.011-.054a35.008,35.008,0,0,1,7.245.741,1.205,1.205,0,0,1,.9,1.564.6.6,0,1,0,1.136.384,2.4,2.4,0,0,0-1.784-3.122Z" transform="translate(-83.66 -33.392)" fill="#393741"/>
    <path id="Path_4094" data-name="Path 4094" d="M284.4,175.948c.077-.386.157-.815.238-1.274a3.751,3.751,0,0,0-3.174-4.364,39.555,39.555,0,0,0-13.782.384,4.229,4.229,0,0,0-3.134,5.49l.1.308a12.367,12.367,0,0,0,14.125,8.218l.143-.029a5.741,5.741,0,0,0,4.358-4.051C283.676,179.272,284.053,177.7,284.4,175.948Zm-2.273,4.346a4.544,4.544,0,0,1-3.444,3.211l-.139.028a11.167,11.167,0,0,1-12.755-7.426l-.1-.307a3.029,3.029,0,0,1,2.246-3.933,36.645,36.645,0,0,1,7.609-.783,41.034,41.034,0,0,1,5.756.413,2.551,2.551,0,0,1,2.161,2.967c-.08.451-.159.871-.234,1.249C282.883,177.428,282.515,178.969,282.128,180.295Z" transform="translate(-232.618 -19.994)" fill="#393741"/>
    <path id="Path_4095" data-name="Path 4095" d="M343.619,185.514a40.479,40.479,0,0,0-5.654-.4c-.719,0-1.444.021-2.155.061a.6.6,0,1,0,.068,1.2c.688-.039,1.39-.059,2.087-.059a39.262,39.262,0,0,1,5.486.393.732.732,0,0,1,.495.3.7.7,0,0,1,.126.546.6.6,0,1,0,1.181.209,1.9,1.9,0,0,0-.336-1.459A1.921,1.921,0,0,0,343.619,185.514Z" transform="translate(-295.027 -33.392)" fill="#393741"/>
    <path id="Path_4096" data-name="Path 4096" d="M56.844,167.351,52.19,161.8c.083-.213.158-.43.223-.652a69.422,69.422,0,0,0,1.725-8.022h1.186a.6.6,0,0,0,.6-.6v-2.918a.6.6,0,0,0-.43-.575c-11.141-3.287-19.73-1.5-23.858-.149a10.013,10.013,0,0,1-6.287,0c-4.128-1.355-12.716-3.137-23.858.149a.6.6,0,0,0-.43.575v2.918a.6.6,0,0,0,.6.6H2.847a69.454,69.454,0,0,0,1.725,8.022c.065.222.14.439.223.652L.14,167.351a.6.6,0,0,0,.151.9,4.08,4.08,0,0,0,5.075-.683l2.181-2.282a7.6,7.6,0,0,0,2.829,1.2l.1.019a14.024,14.024,0,0,0,2.717.266,14.3,14.3,0,0,0,12.59-7.605l5.08-.7A14.3,14.3,0,0,0,43.8,166.771a14.044,14.044,0,0,0,2.717-.266l.084-.017a7.624,7.624,0,0,0,2.84-1.2l2.182,2.283a4.08,4.08,0,0,0,5.075.683.6.6,0,0,0,.151-.9ZM4.5,166.739a2.884,2.884,0,0,1-2.931.776l3.806-4.541a7.592,7.592,0,0,0,1.241,1.55Zm21.881-8.867c.105-.259.206-.521.3-.789.308-.909.58-1.717.784-2.324a1.089,1.089,0,0,1,2.065,0c.2.607.476,1.415.784,2.324.027.079.056.155.084.233Zm19.981,7.441-.081.016A13.062,13.062,0,0,1,31.445,156.7c-.307-.908-.579-1.715-.782-2.321a2.289,2.289,0,0,0-4.34,0c-.2.606-.475,1.413-.783,2.321A13.063,13.063,0,0,1,10.7,165.329l-.092-.018a6.4,6.4,0,0,1-4.889-4.5,69.546,69.546,0,0,1-1.766-8.369.6.6,0,0,0-.594-.517H2.26v-1.868c10.619-3.024,18.772-1.33,22.714-.035a11.2,11.2,0,0,0,7.036,0c3.942-1.294,12.1-2.988,22.714.035v1.868h-1.1a.6.6,0,0,0-.594.517,69.483,69.483,0,0,1-1.766,8.369A6.405,6.405,0,0,1,46.36,165.313Zm6.125,1.426-2.118-2.216a7.6,7.6,0,0,0,1.241-1.549l3.807,4.541A2.884,2.884,0,0,1,52.486,166.739Z" transform="translate(0)" fill="#393741"/>
  </g>
</svg>
