<svg xmlns="http://www.w3.org/2000/svg" width="27.561" height="43.508" viewBox="0 0 27.561 43.508">
  <g id="perfume" transform="translate(-94.832)">
    <g id="Group_1674" data-name="Group 1674" transform="translate(94.832 0)">
      <g id="Group_1673" data-name="Group 1673" transform="translate(0 0)">
        <path id="Path_4114" data-name="Path 4114" d="M119.348,19.691h0a9.043,9.043,0,0,0-5.661-2.271V13.777a1.442,1.442,0,0,0-.538-1.118l3.744-5.781,1-1.338a.716.716,0,0,0,.137-.428c0-.013.007-.024.007-.037l0-.011c0-.018-.008-.035-.011-.053a.708.708,0,0,0-.291-.51L113.476.214A.724.724,0,0,0,112.962,0h-8.7a.724.724,0,0,0-.514.214L99.488,4.5a.708.708,0,0,0-.291.51c0,.018-.01.035-.011.053l0,.011c0,.013.007.024.007.037a.716.716,0,0,0,.137.428l.973,1.3,3.771,5.821a1.441,1.441,0,0,0-.538,1.118v3.642a9.043,9.043,0,0,0-8.2,12l3.693,10.669a5.078,5.078,0,0,0,4.8,3.415H113.4a5.078,5.078,0,0,0,4.8-3.415l3.693-10.669A9.03,9.03,0,0,0,119.348,19.691ZM115.7,6.05l-4.067,6.277h-1.9L112.7,5.8h3.186Zm-3.467,7.727V17.4h-7.251V13.777ZM112.66,1.45l2.883,2.9h-2.859l-1.45-2.9h1.425Zm-5.051,0h2l1.45,2.9h-4.9Zm3.5,4.351-2.5,5.5-2.5-5.5h5ZM104.562,1.45h1.425l-1.45,2.9h-2.859ZM101.49,6.01l-.156-.209h3.184l2.967,6.526h-1.9Zm15.336,33.608a3.628,3.628,0,0,1-3.426,2.44h-9.578a3.628,3.628,0,0,1-3.426-2.439l-1.126-3.254a10.488,10.488,0,0,1,9.772-.619,19.049,19.049,0,0,0,7.731,1.57c.3,0,.58-.009.858-.02Zm3.693-10.669-2.376,6.863a18.028,18.028,0,0,1-8.513-1.393,11.884,11.884,0,0,0-10.845.548L96.7,28.949a7.608,7.608,0,0,1,7.189-10.1h9.439a7.608,7.608,0,0,1,7.189,10.1Z" transform="translate(-94.832 0)" fill="#393741"/>
        <path id="Path_4115" data-name="Path 4115" d="M345.558,286.7a.725.725,0,0,0-.893.884,4.7,4.7,0,0,1-.109,2.729l-1.846,5.335a.725.725,0,0,0,1.37.474l1.846-5.335a6.14,6.14,0,0,0,.142-3.57A.725.725,0,0,0,345.558,286.7Z" transform="translate(-321.609 -262.316)" fill="#393741"/>
        <path id="Path_4116" data-name="Path 4116" d="M308.553,241.72a.725.725,0,0,0,.253-1.232,6.154,6.154,0,0,0-4.091-1.555.725.725,0,0,0,0,1.45,4.7,4.7,0,0,1,3.127,1.189A.725.725,0,0,0,308.553,241.72Z" transform="translate(-286.217 -218.629)" fill="#393741"/>
      </g>
    </g>
  </g>
</svg>
