<svg xmlns="http://www.w3.org/2000/svg" width="47.97" height="46.422" viewBox="0 0 47.97 46.422">
  <g id="toys" transform="translate(-8.001 -16.005)">
    <path id="Path_4084" data-name="Path 4084" d="M118.1,160.514c3.413,0,6.19-2.256,6.19-5.029a.774.774,0,0,0-1.547,0c0,1.722-1.676,3.155-3.869,3.432v-2.456a1.748,1.748,0,0,0,.235-.141l1.313-.937h0a1.874,1.874,0,0,0,.773-1.528A1.82,1.82,0,0,0,119.413,152h-2.626A1.82,1.82,0,0,0,115,153.856a1.874,1.874,0,0,0,.773,1.528l1.313.937a1.738,1.738,0,0,0,.235.141v2.456c-2.193-.277-3.869-1.71-3.869-3.432a.774.774,0,0,0-1.547,0C111.91,158.258,114.687,160.514,118.1,160.514Zm-1.423-6.39a.33.33,0,0,1-.125-.268.281.281,0,0,1,.234-.305h2.626a.281.281,0,0,1,.234.305.33.33,0,0,1-.125.268l-1.313.937a.18.18,0,0,1-.219,0Z" transform="translate(-93.86 -122.845)" fill="#393741"/>
    <circle id="Ellipse_73" data-name="Ellipse 73" cx="0.774" cy="0.774" r="0.774" transform="translate(28.109 27.61)" fill="#393741"/>
    <circle id="Ellipse_74" data-name="Ellipse 74" cx="0.774" cy="0.774" r="0.774" transform="translate(18.824 27.61)" fill="#393741"/>
    <path id="Path_4085" data-name="Path 4085" d="M355.095,254.19A3.095,3.095,0,1,0,352,251.095,3.095,3.095,0,0,0,355.095,254.19Zm0-4.642a1.547,1.547,0,1,1-1.547,1.547A1.547,1.547,0,0,1,355.095,249.547Z" transform="translate(-310.729 -209.558)" fill="#393741"/>
    <path id="Path_4086" data-name="Path 4086" d="M55.2,46.18H50.555V36.121a.77.77,0,0,0-.14-.443h0L45,27.941a.774.774,0,0,0-1.268,0l-5.416,7.737h0a.77.77,0,0,0-.139.443v4.842a12.219,12.219,0,0,0-4.218-3.518,11.491,11.491,0,0,0,2.662-7.514,12.223,12.223,0,0,0-.567-3.72,5.416,5.416,0,1,0-7.362-7.233,15.5,15.5,0,0,0-8.9,0,5.416,5.416,0,1,0-7.362,7.233,12.223,12.223,0,0,0-.568,3.72,11.492,11.492,0,0,0,2.662,7.514A11.58,11.58,0,0,0,8.08,46.84c0,.01,0,.019,0,.029L8,47.931a.744.744,0,0,0,0,.1,4.652,4.652,0,0,0,3.09,4.069,7.607,7.607,0,0,0-.77,3.36c0,3.84,2.777,6.963,6.19,6.963a5.9,5.9,0,0,0,4.624-2.342,6.5,6.5,0,0,0,6.226,0,5.9,5.9,0,0,0,4.624,2.342,6.173,6.173,0,0,0,5.543-3.869H55.2a.774.774,0,0,0,.774-.774V46.953A.774.774,0,0,0,55.2,46.18ZM44.365,29.733l3.93,5.614h-7.86ZM39.723,36.9h9.285V46.18h-8.7a12.6,12.6,0,0,0-.588-2.321ZM37.4,52.1a4.671,4.671,0,0,0,1.9-1.277h1.2v3.095H38.02A7.463,7.463,0,0,0,37.4,52.1Zm1.458-5.107.07.992a3.1,3.1,0,0,1-2.4,2.76,5.981,5.981,0,0,0-3.788-2.189,13.463,13.463,0,0,0-2.935-8.084,11.31,11.31,0,0,0,3-1.869,10.171,10.171,0,0,1,6.049,8.39Zm-5.336-29.44a3.869,3.869,0,0,1,1.952,7.209A10.8,10.8,0,0,0,33.31,21.72a11.191,11.191,0,0,0-3.166-2.181A3.877,3.877,0,0,1,33.525,17.552ZM11.087,21.421a3.869,3.869,0,0,1,7.25-1.881,11.188,11.188,0,0,0-3.166,2.181A10.8,10.8,0,0,0,13,24.761,3.877,3.877,0,0,1,11.087,21.421Zm5.169,1.4a11.087,11.087,0,0,1,7.984-2.951,11.087,11.087,0,0,1,7.985,2.951,9.842,9.842,0,0,1,2.847,7.108,9.842,9.842,0,0,1-2.847,7.108A11.086,11.086,0,0,1,24.24,39.99a11.086,11.086,0,0,1-7.984-2.951,9.842,9.842,0,0,1-2.848-7.108A9.842,9.842,0,0,1,16.256,22.824ZM9.55,47.984l.069-.992a10.172,10.172,0,0,1,6.049-8.39,11.313,11.313,0,0,0,3.017,1.875,13.519,13.519,0,0,0-2.932,8.078,5.983,5.983,0,0,0-3.791,2.193A3.1,3.1,0,0,1,9.55,47.984Zm6.961,12.9c-2.56,0-4.642-2.43-4.642-5.416s2.082-5.416,4.642-5.416,4.642,2.43,4.642,5.416S19.072,60.88,16.512,60.88Zm7.737-1.547a5,5,0,0,1-2.29-.564,7.615,7.615,0,0,0,.743-3.3c0-3.538-2.358-6.465-5.4-6.9a11.576,11.576,0,0,1,2.974-7.532,15.675,15.675,0,0,0,7.939,0,11.523,11.523,0,0,1,2.978,7.535c-3.04.439-5.4,3.366-5.4,6.9a7.615,7.615,0,0,0,.743,3.3A5,5,0,0,1,24.249,59.333Zm7.737,1.547c-2.56,0-4.642-2.43-4.642-5.416s2.082-5.416,4.642-5.416,4.642,2.43,4.642,5.416S34.546,60.88,31.986,60.88Zm6.19-5.416h3.095a.774.774,0,0,0,.774-.774V50.048a.774.774,0,0,0-.774-.774H40.222a4.605,4.605,0,0,0,.256-1.239.774.774,0,0,0,0-.1l-.014-.2h3.128v9.285H38.02a7.782,7.782,0,0,0,.156-1.547Zm16.248,1.547H45.139V47.727h9.285Z" fill="#393741"/>
    <path id="Path_4087" data-name="Path 4087" d="M408.774,366.19h4.642a.774.774,0,0,0,.692-1.12l-2.321-4.642a.774.774,0,0,0-1.384,0l-2.321,4.642a.774.774,0,0,0,.692,1.12ZM411.1,362.5l1.069,2.138h-2.139Z" transform="translate(-361.314 -310.726)" fill="#393741"/>
  </g>
</svg>
