<svg xmlns="http://www.w3.org/2000/svg" width="31.882" height="46.374" viewBox="0 0 31.882 46.374">
  <g id="watch" transform="translate(-80)">
    <path id="Path_4111" data-name="Path 4111" d="M111.882,23.187a14.432,14.432,0,0,0-3.647-9.6c0-.016-.008-.032-.013-.048l-1.843-5.53a2.169,2.169,0,0,0-1.018-1.218V2.174A2.176,2.176,0,0,0,103.187,0H91.593A2.176,2.176,0,0,0,89.42,2.174V6.79A2.169,2.169,0,0,0,88.4,8.008l-1.843,5.53c-.005.016-.009.032-.013.048a14.492,14.492,0,0,0-2.98,5.253H82.174A2.176,2.176,0,0,0,80,21.013v4.348a2.176,2.176,0,0,0,2.174,2.174h1.391a14.492,14.492,0,0,0,2.98,5.254c0,.016.008.032.013.047l1.843,5.53a2.169,2.169,0,0,0,1.017,1.218V44.2a2.176,2.176,0,0,0,2.174,2.174h11.593A2.176,2.176,0,0,0,105.36,44.2V39.584a2.169,2.169,0,0,0,1.018-1.218l1.844-5.53c.005-.016.009-.032.013-.048A14.431,14.431,0,0,0,111.882,23.187ZM89.777,8.466a.724.724,0,0,1,.687-.5h9.1a.725.725,0,1,0,0-1.449H90.869V2.174a.725.725,0,0,1,.725-.725h11.593a.725.725,0,0,1,.725.725V6.521h-1.449a.725.725,0,0,0,0,1.449h1.854a.724.724,0,0,1,.687.5l1.033,3.1a14.463,14.463,0,0,0-17.292,0Zm-7.6,17.619a.725.725,0,0,1-.725-.725V21.013a.725.725,0,0,1,.725-.725H83.19a14.561,14.561,0,0,0,0,5.8ZM97.39,10.144A13.043,13.043,0,1,1,84.348,23.187,13.057,13.057,0,0,1,97.39,10.144ZM105,37.908a.724.724,0,0,1-.687.5h-1.854a.725.725,0,0,0,0,1.449h1.449V44.2a.725.725,0,0,1-.725.725H91.593a.725.725,0,0,1-.725-.725V39.852h8.695a.725.725,0,1,0,0-1.449h-9.1a.724.724,0,0,1-.687-.5l-1.033-3.1a14.463,14.463,0,0,0,17.292,0Z" transform="translate(0)" fill="#393741"/>
    <path id="Path_4112" data-name="Path 4112" d="M155.593,151.187a11.594,11.594,0,0,0,9.274-18.551.725.725,0,0,0-1.159.871,10.039,10.039,0,0,1,2,5.363h-.7a.725.725,0,1,0,0,1.449h.7a10.16,10.16,0,0,1-9.393,9.393v-.7a.725.725,0,0,0-1.449,0v.7a10.159,10.159,0,0,1-9.393-9.393h.7a.725.725,0,0,0,0-1.449h-.7a10.159,10.159,0,0,1,9.393-9.393v.7a.725.725,0,0,0,1.449,0v-.7a10.04,10.04,0,0,1,5.362,2,.725.725,0,1,0,.87-1.159,11.594,11.594,0,1,0-6.957,20.868Z" transform="translate(-58.203 -116.407)" fill="#393741"/>
    <path id="Path_4113" data-name="Path 4113" d="M264.725,176a.725.725,0,0,0-.725.725v6.521c0,.006,0,.012,0,.018s0,.029,0,.044,0,.02,0,.029,0,.027.006.041,0,.021.007.032.006.024.009.036.007.023.011.035l.011.031.016.037.013.027c.007.013.014.025.021.038l.009.016,3.623,5.8a.725.725,0,1,0,1.229-.768l-3.513-5.621v-6.313A.725.725,0,0,0,264.725,176Z" transform="translate(-167.335 -160.059)" fill="#393741"/>
  </g>
</svg>
