<svg xmlns="http://www.w3.org/2000/svg" width="12.89" height="19.206" viewBox="0 0 12.89 19.206">
  <g id="location-pin" transform="translate(0 0)">
    <path id="Path_4245" data-name="Path 4245" d="M8.32,14.786l2.472-3.372c1.106-1.507,2.1-3.022,2.1-4.97A6.452,6.452,0,0,0,6.472,0H6.444A6.452,6.452,0,0,0,0,6.444c0,1.948.992,3.463,2.1,4.97L4.57,14.786H1.7L.029,19.205H12.861l-1.666-4.419ZM3.005,10.749c-1.028-1.4-1.88-2.694-1.88-4.3A5.325,5.325,0,0,1,6.42,1.125h.025a5.326,5.326,0,0,1,5.32,5.319c0,1.61-.851,2.9-1.88,4.3l-3.435,4.7ZM1.657,18.08l.817-2.168H5.4l1.039,1.418S7.3,16.186,7.5,15.912h2.913l.817,2.168Zm0,0" fill="#f2ae2e"/>
    <path id="Path_4246" data-name="Path 4246" d="M73.937,69.969a3.969,3.969,0,1,0-3.969,3.969A3.974,3.974,0,0,0,73.937,69.969Zm-3.969,2.843a2.844,2.844,0,1,1,2.844-2.843A2.847,2.847,0,0,1,69.968,72.812Zm0,0" transform="translate(-63.523 -63.525)" fill="#f2ae2e"/>
  </g>
</svg>
